<?xml version="1.0" encoding="utf-8" standalone="no"?>
<!DOCTYPE svg PUBLIC "-//W3C//DTD SVG 1.1//EN"
  "http://www.w3.org/Graphics/SVG/1.1/DTD/svg11.dtd">
<svg xmlns:xlink="http://www.w3.org/1999/xlink" width="576pt" height="345.6pt" viewBox="0 0 576 345.6" xmlns="http://www.w3.org/2000/svg" version="1.1">
 <metadata>
  <rdf:RDF xmlns:dc="http://purl.org/dc/elements/1.1/" xmlns:cc="http://creativecommons.org/ns#" xmlns:rdf="http://www.w3.org/1999/02/22-rdf-syntax-ns#">
   <cc:Work>
    <dc:type rdf:resource="http://purl.org/dc/dcmitype/StillImage"/>
    <dc:date>2025-12-28T19:29:14.916020</dc:date>
    <dc:format>image/svg+xml</dc:format>
    <dc:creator>
     <cc:Agent>
      <dc:title>Matplotlib v3.10.8, https://matplotlib.org/</dc:title>
     </cc:Agent>
    </dc:creator>
   </cc:Work>
  </rdf:RDF>
 </metadata>
 <defs>
  <style type="text/css">*{stroke-linejoin: round; stroke-linecap: butt}</style>
 </defs>
 <g id="figure_1">
  <g id="patch_1">
   <path d="M 0 345.6 
L 576 345.6 
L 576 0 
L 0 0 
z
" style="fill: #ffffff"/>
  </g>
  <g id="axes_1">
   <g id="patch_2">
    <path d="M 47.073125 303.960625 
L 565.2 303.960625 
L 565.2 10.8 
L 47.073125 10.8 
z
" style="fill: #ffffff"/>
   </g>
   <g id="patch_3">
    <path d="M 115.62285 303.960625 
L 255.003926 303.960625 
L 255.003926 10.8 
L 115.62285 10.8 
z
" clip-path="url(#pb93941b227)" style="fill: #1f77b4; opacity: 0.15; stroke: #1f77b4; stroke-linejoin: miter"/>
   </g>
   <g id="patch_4">
    <path d="M 252.256094 303.960625 
L 443.323203 303.960625 
L 443.323203 10.8 
L 252.256094 10.8 
z
" clip-path="url(#pb93941b227)" style="fill: #ff7f0e; opacity: 0.15; stroke: #ff7f0e; stroke-linejoin: miter"/>
   </g>
   <g id="patch_5">
    <path d="M 136.786076 303.960625 
L 245.426222 303.960625 
L 245.426222 10.8 
L 136.786076 10.8 
z
" clip-path="url(#pb93941b227)" style="fill: #2ca02c; opacity: 0.15; stroke: #2ca02c; stroke-linejoin: miter"/>
   </g>
   <g id="matplotlib.axis_1">
    <g id="xtick_1">
     <g id="line2d_1">
      <path d="M 70.624347 303.960625 
L 70.624347 10.8 
" clip-path="url(#pb93941b227)" style="fill: none; stroke: #b0b0b0; stroke-width: 0.8; stroke-linecap: square"/>
     </g>
     <g id="line2d_2">
      <defs>
       <path id="m764d485249" d="M 0 0 
L 0 3.5 
" style="stroke: #000000; stroke-width: 0.8"/>
      </defs>
      <g>
       <use xlink:href="#m764d485249" x="70.624347" y="303.960625" style="stroke: #000000; stroke-width: 0.8"/>
      </g>
     </g>
     <g id="text_1">
      <!-- 785.0 -->
      <g transform="translate(59.374347 317.904375) scale(0.1 -0.1)">
       <defs>
        <path id="TimesNewRomanPSMT-37" d="M 644 4238 
L 2916 4238 
L 2916 4119 
L 1503 -88 
L 1153 -88 
L 2419 3728 
L 1253 3728 
Q 900 3728 750 3644 
Q 488 3500 328 3200 
L 238 3234 
L 644 4238 
z
" transform="scale(0.015625)"/>
        <path id="TimesNewRomanPSMT-38" d="M 1228 2134 
Q 725 2547 579 2797 
Q 434 3047 434 3316 
Q 434 3728 753 4026 
Q 1072 4325 1600 4325 
Q 2113 4325 2425 4047 
Q 2738 3769 2738 3413 
Q 2738 3175 2569 2928 
Q 2400 2681 1866 2347 
Q 2416 1922 2594 1678 
Q 2831 1359 2831 1006 
Q 2831 559 2490 242 
Q 2150 -75 1597 -75 
Q 994 -75 656 303 
Q 388 606 388 966 
Q 388 1247 577 1523 
Q 766 1800 1228 2134 
z
M 1719 2469 
Q 2094 2806 2194 3001 
Q 2294 3197 2294 3444 
Q 2294 3772 2109 3958 
Q 1925 4144 1606 4144 
Q 1288 4144 1088 3959 
Q 888 3775 888 3528 
Q 888 3366 970 3203 
Q 1053 3041 1206 2894 
L 1719 2469 
z
M 1375 2016 
Q 1116 1797 991 1539 
Q 866 1281 866 981 
Q 866 578 1086 336 
Q 1306 94 1647 94 
Q 1984 94 2187 284 
Q 2391 475 2391 747 
Q 2391 972 2272 1150 
Q 2050 1481 1375 2016 
z
" transform="scale(0.015625)"/>
        <path id="TimesNewRomanPSMT-35" d="M 2778 4238 
L 2534 3706 
L 1259 3706 
L 981 3138 
Q 1809 3016 2294 2522 
Q 2709 2097 2709 1522 
Q 2709 1188 2573 903 
Q 2438 619 2231 419 
Q 2025 219 1772 97 
Q 1413 -75 1034 -75 
Q 653 -75 479 54 
Q 306 184 306 341 
Q 306 428 378 495 
Q 450 563 559 563 
Q 641 563 702 538 
Q 763 513 909 409 
Q 1144 247 1384 247 
Q 1750 247 2026 523 
Q 2303 800 2303 1197 
Q 2303 1581 2056 1914 
Q 1809 2247 1375 2428 
Q 1034 2569 447 2591 
L 1259 4238 
L 2778 4238 
z
" transform="scale(0.015625)"/>
        <path id="TimesNewRomanPSMT-2e" d="M 800 606 
Q 947 606 1047 504 
Q 1147 403 1147 259 
Q 1147 116 1045 14 
Q 944 -88 800 -88 
Q 656 -88 554 14 
Q 453 116 453 259 
Q 453 406 554 506 
Q 656 606 800 606 
z
" transform="scale(0.015625)"/>
        <path id="TimesNewRomanPSMT-30" d="M 231 2094 
Q 231 2819 450 3342 
Q 669 3866 1031 4122 
Q 1313 4325 1613 4325 
Q 2100 4325 2488 3828 
Q 2972 3213 2972 2159 
Q 2972 1422 2759 906 
Q 2547 391 2217 158 
Q 1888 -75 1581 -75 
Q 975 -75 572 641 
Q 231 1244 231 2094 
z
M 844 2016 
Q 844 1141 1059 588 
Q 1238 122 1591 122 
Q 1759 122 1940 273 
Q 2122 425 2216 781 
Q 2359 1319 2359 2297 
Q 2359 3022 2209 3506 
Q 2097 3866 1919 4016 
Q 1791 4119 1609 4119 
Q 1397 4119 1231 3928 
Q 1006 3669 925 3112 
Q 844 2556 844 2016 
z
" transform="scale(0.015625)"/>
       </defs>
       <use xlink:href="#TimesNewRomanPSMT-37"/>
       <use xlink:href="#TimesNewRomanPSMT-38" transform="translate(50 0)"/>
       <use xlink:href="#TimesNewRomanPSMT-35" transform="translate(100 0)"/>
       <use xlink:href="#TimesNewRomanPSMT-2e" transform="translate(150 0)"/>
       <use xlink:href="#TimesNewRomanPSMT-30" transform="translate(175 0)"/>
      </g>
     </g>
    </g>
    <g id="xtick_2">
     <g id="line2d_3">
      <path d="M 129.502401 303.960625 
L 129.502401 10.8 
" clip-path="url(#pb93941b227)" style="fill: none; stroke: #b0b0b0; stroke-width: 0.8; stroke-linecap: square"/>
     </g>
     <g id="line2d_4">
      <g>
       <use xlink:href="#m764d485249" x="129.502401" y="303.960625" style="stroke: #000000; stroke-width: 0.8"/>
      </g>
     </g>
     <g id="text_2">
      <!-- 787.5 -->
      <g transform="translate(118.252401 317.904375) scale(0.1 -0.1)">
       <use xlink:href="#TimesNewRomanPSMT-37"/>
       <use xlink:href="#TimesNewRomanPSMT-38" transform="translate(50 0)"/>
       <use xlink:href="#TimesNewRomanPSMT-37" transform="translate(100 0)"/>
       <use xlink:href="#TimesNewRomanPSMT-2e" transform="translate(150 0)"/>
       <use xlink:href="#TimesNewRomanPSMT-35" transform="translate(175 0)"/>
      </g>
     </g>
    </g>
    <g id="xtick_3">
     <g id="line2d_5">
      <path d="M 188.380455 303.960625 
L 188.380455 10.8 
" clip-path="url(#pb93941b227)" style="fill: none; stroke: #b0b0b0; stroke-width: 0.8; stroke-linecap: square"/>
     </g>
     <g id="line2d_6">
      <g>
       <use xlink:href="#m764d485249" x="188.380455" y="303.960625" style="stroke: #000000; stroke-width: 0.8"/>
      </g>
     </g>
     <g id="text_3">
      <!-- 790.0 -->
      <g transform="translate(177.130455 317.904375) scale(0.1 -0.1)">
       <defs>
        <path id="TimesNewRomanPSMT-39" d="M 338 -88 
L 338 28 
Q 744 34 1094 217 
Q 1444 400 1770 856 
Q 2097 1313 2225 1859 
Q 1734 1544 1338 1544 
Q 891 1544 572 1889 
Q 253 2234 253 2806 
Q 253 3363 572 3797 
Q 956 4325 1575 4325 
Q 2097 4325 2469 3894 
Q 2925 3359 2925 2575 
Q 2925 1869 2578 1258 
Q 2231 647 1613 244 
Q 1109 -88 516 -88 
L 338 -88 
z
M 2275 2091 
Q 2331 2497 2331 2741 
Q 2331 3044 2228 3395 
Q 2125 3747 1936 3934 
Q 1747 4122 1506 4122 
Q 1228 4122 1018 3872 
Q 809 3622 809 3128 
Q 809 2469 1088 2097 
Q 1291 1828 1588 1828 
Q 1731 1828 1928 1897 
Q 2125 1966 2275 2091 
z
" transform="scale(0.015625)"/>
       </defs>
       <use xlink:href="#TimesNewRomanPSMT-37"/>
       <use xlink:href="#TimesNewRomanPSMT-39" transform="translate(50 0)"/>
       <use xlink:href="#TimesNewRomanPSMT-30" transform="translate(100 0)"/>
       <use xlink:href="#TimesNewRomanPSMT-2e" transform="translate(150 0)"/>
       <use xlink:href="#TimesNewRomanPSMT-30" transform="translate(175 0)"/>
      </g>
     </g>
    </g>
    <g id="xtick_4">
     <g id="line2d_7">
      <path d="M 247.258509 303.960625 
L 247.258509 10.8 
" clip-path="url(#pb93941b227)" style="fill: none; stroke: #b0b0b0; stroke-width: 0.8; stroke-linecap: square"/>
     </g>
     <g id="line2d_8">
      <g>
       <use xlink:href="#m764d485249" x="247.258509" y="303.960625" style="stroke: #000000; stroke-width: 0.8"/>
      </g>
     </g>
     <g id="text_4">
      <!-- 792.5 -->
      <g transform="translate(236.008509 317.904375) scale(0.1 -0.1)">
       <defs>
        <path id="TimesNewRomanPSMT-32" d="M 2934 816 
L 2638 0 
L 138 0 
L 138 116 
Q 1241 1122 1691 1759 
Q 2141 2397 2141 2925 
Q 2141 3328 1894 3587 
Q 1647 3847 1303 3847 
Q 991 3847 742 3664 
Q 494 3481 375 3128 
L 259 3128 
Q 338 3706 661 4015 
Q 984 4325 1469 4325 
Q 1984 4325 2329 3994 
Q 2675 3663 2675 3213 
Q 2675 2891 2525 2569 
Q 2294 2063 1775 1497 
Q 997 647 803 472 
L 1909 472 
Q 2247 472 2383 497 
Q 2519 522 2628 598 
Q 2738 675 2819 816 
L 2934 816 
z
" transform="scale(0.015625)"/>
       </defs>
       <use xlink:href="#TimesNewRomanPSMT-37"/>
       <use xlink:href="#TimesNewRomanPSMT-39" transform="translate(50 0)"/>
       <use xlink:href="#TimesNewRomanPSMT-32" transform="translate(100 0)"/>
       <use xlink:href="#TimesNewRomanPSMT-2e" transform="translate(150 0)"/>
       <use xlink:href="#TimesNewRomanPSMT-35" transform="translate(175 0)"/>
      </g>
     </g>
    </g>
    <g id="xtick_5">
     <g id="line2d_9">
      <path d="M 306.136562 303.960625 
L 306.136562 10.8 
" clip-path="url(#pb93941b227)" style="fill: none; stroke: #b0b0b0; stroke-width: 0.8; stroke-linecap: square"/>
     </g>
     <g id="line2d_10">
      <g>
       <use xlink:href="#m764d485249" x="306.136562" y="303.960625" style="stroke: #000000; stroke-width: 0.8"/>
      </g>
     </g>
     <g id="text_5">
      <!-- 795.0 -->
      <g transform="translate(294.886562 317.904375) scale(0.1 -0.1)">
       <use xlink:href="#TimesNewRomanPSMT-37"/>
       <use xlink:href="#TimesNewRomanPSMT-39" transform="translate(50 0)"/>
       <use xlink:href="#TimesNewRomanPSMT-35" transform="translate(100 0)"/>
       <use xlink:href="#TimesNewRomanPSMT-2e" transform="translate(150 0)"/>
       <use xlink:href="#TimesNewRomanPSMT-30" transform="translate(175 0)"/>
      </g>
     </g>
    </g>
    <g id="xtick_6">
     <g id="line2d_11">
      <path d="M 365.014616 303.960625 
L 365.014616 10.8 
" clip-path="url(#pb93941b227)" style="fill: none; stroke: #b0b0b0; stroke-width: 0.8; stroke-linecap: square"/>
     </g>
     <g id="line2d_12">
      <g>
       <use xlink:href="#m764d485249" x="365.014616" y="303.960625" style="stroke: #000000; stroke-width: 0.8"/>
      </g>
     </g>
     <g id="text_6">
      <!-- 797.5 -->
      <g transform="translate(353.764616 317.904375) scale(0.1 -0.1)">
       <use xlink:href="#TimesNewRomanPSMT-37"/>
       <use xlink:href="#TimesNewRomanPSMT-39" transform="translate(50 0)"/>
       <use xlink:href="#TimesNewRomanPSMT-37" transform="translate(100 0)"/>
       <use xlink:href="#TimesNewRomanPSMT-2e" transform="translate(150 0)"/>
       <use xlink:href="#TimesNewRomanPSMT-35" transform="translate(175 0)"/>
      </g>
     </g>
    </g>
    <g id="xtick_7">
     <g id="line2d_13">
      <path d="M 423.89267 303.960625 
L 423.89267 10.8 
" clip-path="url(#pb93941b227)" style="fill: none; stroke: #b0b0b0; stroke-width: 0.8; stroke-linecap: square"/>
     </g>
     <g id="line2d_14">
      <g>
       <use xlink:href="#m764d485249" x="423.89267" y="303.960625" style="stroke: #000000; stroke-width: 0.8"/>
      </g>
     </g>
     <g id="text_7">
      <!-- 800.0 -->
      <g transform="translate(412.64267 317.904375) scale(0.1 -0.1)">
       <use xlink:href="#TimesNewRomanPSMT-38"/>
       <use xlink:href="#TimesNewRomanPSMT-30" transform="translate(50 0)"/>
       <use xlink:href="#TimesNewRomanPSMT-30" transform="translate(100 0)"/>
       <use xlink:href="#TimesNewRomanPSMT-2e" transform="translate(150 0)"/>
       <use xlink:href="#TimesNewRomanPSMT-30" transform="translate(175 0)"/>
      </g>
     </g>
    </g>
    <g id="xtick_8">
     <g id="line2d_15">
      <path d="M 482.770724 303.960625 
L 482.770724 10.8 
" clip-path="url(#pb93941b227)" style="fill: none; stroke: #b0b0b0; stroke-width: 0.8; stroke-linecap: square"/>
     </g>
     <g id="line2d_16">
      <g>
       <use xlink:href="#m764d485249" x="482.770724" y="303.960625" style="stroke: #000000; stroke-width: 0.8"/>
      </g>
     </g>
     <g id="text_8">
      <!-- 802.5 -->
      <g transform="translate(471.520724 317.904375) scale(0.1 -0.1)">
       <use xlink:href="#TimesNewRomanPSMT-38"/>
       <use xlink:href="#TimesNewRomanPSMT-30" transform="translate(50 0)"/>
       <use xlink:href="#TimesNewRomanPSMT-32" transform="translate(100 0)"/>
       <use xlink:href="#TimesNewRomanPSMT-2e" transform="translate(150 0)"/>
       <use xlink:href="#TimesNewRomanPSMT-35" transform="translate(175 0)"/>
      </g>
     </g>
    </g>
    <g id="xtick_9">
     <g id="line2d_17">
      <path d="M 541.648778 303.960625 
L 541.648778 10.8 
" clip-path="url(#pb93941b227)" style="fill: none; stroke: #b0b0b0; stroke-width: 0.8; stroke-linecap: square"/>
     </g>
     <g id="line2d_18">
      <g>
       <use xlink:href="#m764d485249" x="541.648778" y="303.960625" style="stroke: #000000; stroke-width: 0.8"/>
      </g>
     </g>
     <g id="text_9">
      <!-- 805.0 -->
      <g transform="translate(530.398778 317.904375) scale(0.1 -0.1)">
       <use xlink:href="#TimesNewRomanPSMT-38"/>
       <use xlink:href="#TimesNewRomanPSMT-30" transform="translate(50 0)"/>
       <use xlink:href="#TimesNewRomanPSMT-35" transform="translate(100 0)"/>
       <use xlink:href="#TimesNewRomanPSMT-2e" transform="translate(150 0)"/>
       <use xlink:href="#TimesNewRomanPSMT-30" transform="translate(175 0)"/>
      </g>
     </g>
    </g>
    <g id="text_10">
     <!-- 波长 (nm) -->
     <g transform="translate(285.167812 332.21375) scale(0.1 -0.1)">
      <defs>
       <path id="SimSong-Regular-6ce2" d="M 5600 4326 
C 5568 4326 5523 4301 5472 4256 
L 5312 4090 
L 4243 4090 
L 4243 4851 
C 4243 4902 4275 4941 4352 4966 
C 4454 4998 4518 5043 4518 5101 
C 4518 5126 4442 5152 4314 5171 
C 4122 5197 3962 5216 3827 5229 
C 3840 5069 3853 4890 3853 4691 
L 3853 4090 
L 2771 4090 
C 2669 4147 2534 4211 2355 4282 
C 2381 4090 2400 3770 2400 3328 
C 2400 2246 2330 1434 2189 896 
C 2074 454 1862 -13 1542 -512 
L 1626 -576 
C 1907 -262 2131 38 2298 339 
C 2490 723 2630 1139 2707 1594 
C 2733 1818 2758 2067 2771 2342 
L 3136 2342 
C 3264 1779 3437 1350 3635 1050 
C 3731 890 3834 742 3949 614 
C 3776 448 3597 294 3418 166 
C 3110 -32 2694 -256 2144 -518 
L 2202 -602 
C 2752 -435 3226 -243 3635 -13 
C 3827 96 4013 224 4186 371 
C 4218 339 4256 301 4301 269 
C 4614 0 4909 -198 5190 -339 
C 5434 -474 5613 -544 5702 -544 
C 5728 -544 5754 -506 5798 -429 
C 5824 -339 5901 -282 6035 -262 
L 6054 -205 
C 5510 -26 5024 205 4589 499 
C 4538 525 4493 563 4442 602 
L 4608 774 
C 4877 1056 5158 1517 5434 2163 
C 5446 2195 5491 2227 5568 2266 
L 5568 2266 
C 5638 2291 5683 2323 5683 2362 
C 5683 2400 5613 2470 5498 2560 
C 5376 2650 5299 2701 5274 2701 
C 5242 2701 5184 2675 5107 2624 
C 5069 2586 5018 2554 4966 2515 
L 4243 2515 
L 4243 3917 
L 5363 3917 
C 5222 3565 5069 3251 4896 2982 
L 4966 2925 
C 5235 3168 5491 3418 5734 3686 
C 5779 3731 5843 3757 5933 3770 
C 6010 3776 6054 3808 6054 3859 
C 6054 3923 5984 4013 5862 4141 
C 5734 4262 5645 4326 5600 4326 
z
M 883 5082 
L 819 5018 
C 1062 4826 1235 4595 1350 4314 
C 1395 4154 1485 4077 1600 4077 
C 1651 4077 1696 4109 1734 4173 
C 1773 4237 1805 4307 1805 4371 
C 1805 4480 1722 4595 1581 4710 
C 1440 4826 1210 4947 883 5082 
L 883 5082 
z
M 2778 2515 
C 2790 2765 2797 3034 2797 3328 
L 2797 3917 
L 3853 3917 
L 3853 2515 
L 2778 2515 
L 2778 2515 
z
M 1939 3827 
L 966 1517 
C 934 1459 877 1408 794 1382 
C 710 1363 544 1357 288 1357 
L 269 1254 
C 614 1222 813 1184 883 1146 
C 934 1114 960 1062 960 998 
C 960 851 954 659 941 416 
C 902 45 890 -192 890 -307 
C 902 -480 1011 -570 1178 -570 
C 1306 -570 1389 -480 1408 -307 
C 1408 -179 1382 70 1344 467 
C 1331 762 1325 992 1325 1158 
C 1325 1306 1376 1594 1491 2016 
C 1619 2438 1811 3034 2054 3782 
L 1939 3827 
L 1939 3827 
z
M 307 3757 
L 243 3693 
C 474 3488 634 3238 749 2944 
C 794 2778 883 2701 998 2701 
C 1050 2701 1094 2733 1139 2797 
C 1178 2861 1210 2931 1210 2995 
C 1210 3110 1126 3232 986 3354 
C 851 3482 627 3616 307 3757 
L 307 3757 
z
M 3258 2342 
L 5043 2342 
C 4800 1747 4550 1293 4294 979 
L 4160 832 
C 3994 986 3846 1165 3725 1370 
C 3526 1664 3379 1990 3264 2342 
L 3258 2342 
z
" transform="scale(0.015625)"/>
       <path id="SimSong-Regular-957f" d="M 1491 5178 
C 1517 5050 1536 4851 1536 4582 
L 1536 2643 
L 1139 2643 
C 794 2643 531 2662 339 2701 
L 454 2419 
C 595 2451 819 2464 1139 2464 
L 1536 2464 
L 1536 179 
C 1536 51 1510 -38 1446 -109 
C 1395 -147 1363 -179 1363 -218 
C 1363 -262 1446 -358 1600 -512 
C 1651 -563 1709 -595 1760 -595 
C 1798 -589 1837 -550 1856 -480 
C 1914 -365 1997 -282 2099 -230 
L 3398 531 
L 3341 602 
L 1958 19 
L 1958 2464 
L 2950 2464 
C 3046 2035 3200 1664 3398 1344 
C 3565 1088 3789 832 4058 582 
C 4320 352 4653 134 5050 -64 
C 5357 -218 5574 -294 5677 -294 
C 5690 -294 5722 -250 5760 -160 
C 5811 -51 5901 19 6054 64 
L 6080 122 
C 5498 294 5024 474 4666 672 
C 4294 864 3968 1107 3699 1395 
C 3456 1664 3258 2022 3104 2464 
L 5587 2464 
C 5645 2464 5683 2490 5683 2554 
C 5683 2579 5613 2662 5491 2797 
C 5363 2925 5274 2995 5216 2995 
C 5197 2995 5139 2944 5050 2848 
C 4960 2739 4896 2669 4864 2643 
L 1958 2643 
L 1958 4755 
C 1965 4832 1990 4883 2054 4915 
C 2157 4954 2227 4998 2227 5056 
C 2227 5088 2182 5107 2106 5120 
L 1491 5178 
L 1491 5178 
z
M 4742 4582 
L 4877 4570 
C 4902 4570 4928 4589 4934 4627 
C 4934 4666 4877 4730 4781 4819 
L 4454 5082 
C 3846 4314 3066 3661 2118 3123 
L 2176 3046 
C 3258 3539 4115 4051 4742 4576 
L 4742 4582 
z
" transform="scale(0.015625)"/>
       <path id="TimesNewRomanPSMT-20" transform="scale(0.015625)"/>
       <path id="TimesNewRomanPSMT-28" d="M 1988 -1253 
L 1988 -1369 
Q 1516 -1131 1200 -813 
Q 750 -359 506 256 
Q 263 872 263 1534 
Q 263 2503 741 3301 
Q 1219 4100 1988 4444 
L 1988 4313 
Q 1603 4100 1356 3731 
Q 1109 3363 987 2797 
Q 866 2231 866 1616 
Q 866 947 969 400 
Q 1050 -31 1165 -292 
Q 1281 -553 1476 -793 
Q 1672 -1034 1988 -1253 
z
" transform="scale(0.015625)"/>
       <path id="TimesNewRomanPSMT-6e" d="M 1034 2341 
Q 1538 2947 1994 2947 
Q 2228 2947 2397 2830 
Q 2566 2713 2666 2444 
Q 2734 2256 2734 1869 
L 2734 647 
Q 2734 375 2778 278 
Q 2813 200 2889 156 
Q 2966 113 3172 113 
L 3172 0 
L 1756 0 
L 1756 113 
L 1816 113 
Q 2016 113 2095 173 
Q 2175 234 2206 353 
Q 2219 400 2219 647 
L 2219 1819 
Q 2219 2209 2117 2386 
Q 2016 2563 1775 2563 
Q 1403 2563 1034 2156 
L 1034 647 
Q 1034 356 1069 288 
Q 1113 197 1189 155 
Q 1266 113 1500 113 
L 1500 0 
L 84 0 
L 84 113 
L 147 113 
Q 366 113 442 223 
Q 519 334 519 647 
L 519 1709 
Q 519 2225 495 2337 
Q 472 2450 423 2490 
Q 375 2531 294 2531 
Q 206 2531 84 2484 
L 38 2597 
L 900 2947 
L 1034 2947 
L 1034 2341 
z
" transform="scale(0.015625)"/>
       <path id="TimesNewRomanPSMT-6d" d="M 1050 2338 
Q 1363 2650 1419 2697 
Q 1559 2816 1721 2881 
Q 1884 2947 2044 2947 
Q 2313 2947 2506 2790 
Q 2700 2634 2766 2338 
Q 3088 2713 3309 2830 
Q 3531 2947 3766 2947 
Q 3994 2947 4170 2830 
Q 4347 2713 4450 2447 
Q 4519 2266 4519 1878 
L 4519 647 
Q 4519 378 4559 278 
Q 4591 209 4675 161 
Q 4759 113 4950 113 
L 4950 0 
L 3538 0 
L 3538 113 
L 3597 113 
Q 3781 113 3884 184 
Q 3956 234 3988 344 
Q 4000 397 4000 647 
L 4000 1878 
Q 4000 2228 3916 2372 
Q 3794 2572 3525 2572 
Q 3359 2572 3192 2489 
Q 3025 2406 2788 2181 
L 2781 2147 
L 2788 2013 
L 2788 647 
Q 2788 353 2820 281 
Q 2853 209 2943 161 
Q 3034 113 3253 113 
L 3253 0 
L 1806 0 
L 1806 113 
Q 2044 113 2133 169 
Q 2222 225 2256 338 
Q 2272 391 2272 647 
L 2272 1878 
Q 2272 2228 2169 2381 
Q 2031 2581 1784 2581 
Q 1616 2581 1450 2491 
Q 1191 2353 1050 2181 
L 1050 647 
Q 1050 366 1089 281 
Q 1128 197 1204 155 
Q 1281 113 1516 113 
L 1516 0 
L 100 0 
L 100 113 
Q 297 113 375 155 
Q 453 197 493 289 
Q 534 381 534 647 
L 534 1741 
Q 534 2213 506 2350 
Q 484 2453 437 2492 
Q 391 2531 309 2531 
Q 222 2531 100 2484 
L 53 2597 
L 916 2947 
L 1050 2947 
L 1050 2338 
z
" transform="scale(0.015625)"/>
       <path id="TimesNewRomanPSMT-29" d="M 144 4313 
L 144 4444 
Q 619 4209 934 3891 
Q 1381 3434 1625 2820 
Q 1869 2206 1869 1541 
Q 1869 572 1392 -226 
Q 916 -1025 144 -1369 
L 144 -1253 
Q 528 -1038 776 -670 
Q 1025 -303 1145 264 
Q 1266 831 1266 1447 
Q 1266 2113 1163 2663 
Q 1084 3094 967 3353 
Q 850 3613 656 3853 
Q 463 4094 144 4313 
z
" transform="scale(0.015625)"/>
      </defs>
      <use xlink:href="#SimSong-Regular-6ce2"/>
      <use xlink:href="#SimSong-Regular-957f" transform="translate(99.999985 0)"/>
      <use xlink:href="#TimesNewRomanPSMT-20" transform="translate(199.999969 0)"/>
      <use xlink:href="#TimesNewRomanPSMT-28" transform="translate(224.999969 0)"/>
      <use xlink:href="#TimesNewRomanPSMT-6e" transform="translate(258.300751 0)"/>
      <use xlink:href="#TimesNewRomanPSMT-6d" transform="translate(308.300751 0)"/>
      <use xlink:href="#TimesNewRomanPSMT-29" transform="translate(386.083954 0)"/>
     </g>
    </g>
   </g>
   <g id="matplotlib.axis_2">
    <g id="ytick_1">
     <g id="line2d_19">
      <path d="M 47.073125 292.199458 
L 565.2 292.199458 
" clip-path="url(#pb93941b227)" style="fill: none; stroke: #b0b0b0; stroke-width: 0.8; stroke-linecap: square"/>
     </g>
     <g id="line2d_20">
      <defs>
       <path id="mfc17ed3237" d="M 0 0 
L -3.5 0 
" style="stroke: #000000; stroke-width: 0.8"/>
      </defs>
      <g>
       <use xlink:href="#mfc17ed3237" x="47.073125" y="292.199458" style="stroke: #000000; stroke-width: 0.8"/>
      </g>
     </g>
     <g id="text_11">
      <!-- 0 -->
      <g transform="translate(35.073125 295.671333) scale(0.1 -0.1)">
       <use xlink:href="#TimesNewRomanPSMT-30"/>
      </g>
     </g>
    </g>
    <g id="ytick_2">
     <g id="line2d_21">
      <path d="M 47.073125 238.088765 
L 565.2 238.088765 
" clip-path="url(#pb93941b227)" style="fill: none; stroke: #b0b0b0; stroke-width: 0.8; stroke-linecap: square"/>
     </g>
     <g id="line2d_22">
      <g>
       <use xlink:href="#mfc17ed3237" x="47.073125" y="238.088765" style="stroke: #000000; stroke-width: 0.8"/>
      </g>
     </g>
     <g id="text_12">
      <!-- 20 -->
      <g transform="translate(30.073125 241.56064) scale(0.1 -0.1)">
       <use xlink:href="#TimesNewRomanPSMT-32"/>
       <use xlink:href="#TimesNewRomanPSMT-30" transform="translate(50 0)"/>
      </g>
     </g>
    </g>
    <g id="ytick_3">
     <g id="line2d_23">
      <path d="M 47.073125 183.978072 
L 565.2 183.978072 
" clip-path="url(#pb93941b227)" style="fill: none; stroke: #b0b0b0; stroke-width: 0.8; stroke-linecap: square"/>
     </g>
     <g id="line2d_24">
      <g>
       <use xlink:href="#mfc17ed3237" x="47.073125" y="183.978072" style="stroke: #000000; stroke-width: 0.8"/>
      </g>
     </g>
     <g id="text_13">
      <!-- 40 -->
      <g transform="translate(30.073125 187.449947) scale(0.1 -0.1)">
       <defs>
        <path id="TimesNewRomanPSMT-34" d="M 2978 1563 
L 2978 1119 
L 2409 1119 
L 2409 0 
L 1894 0 
L 1894 1119 
L 100 1119 
L 100 1519 
L 2066 4325 
L 2409 4325 
L 2409 1563 
L 2978 1563 
z
M 1894 1563 
L 1894 3666 
L 406 1563 
L 1894 1563 
z
" transform="scale(0.015625)"/>
       </defs>
       <use xlink:href="#TimesNewRomanPSMT-34"/>
       <use xlink:href="#TimesNewRomanPSMT-30" transform="translate(50 0)"/>
      </g>
     </g>
    </g>
    <g id="ytick_4">
     <g id="line2d_25">
      <path d="M 47.073125 129.867379 
L 565.2 129.867379 
" clip-path="url(#pb93941b227)" style="fill: none; stroke: #b0b0b0; stroke-width: 0.8; stroke-linecap: square"/>
     </g>
     <g id="line2d_26">
      <g>
       <use xlink:href="#mfc17ed3237" x="47.073125" y="129.867379" style="stroke: #000000; stroke-width: 0.8"/>
      </g>
     </g>
     <g id="text_14">
      <!-- 60 -->
      <g transform="translate(30.073125 133.339254) scale(0.1 -0.1)">
       <defs>
        <path id="TimesNewRomanPSMT-36" d="M 2869 4325 
L 2869 4209 
Q 2456 4169 2195 4045 
Q 1934 3922 1679 3669 
Q 1425 3416 1258 3105 
Q 1091 2794 978 2366 
Q 1428 2675 1881 2675 
Q 2316 2675 2634 2325 
Q 2953 1975 2953 1425 
Q 2953 894 2631 456 
Q 2244 -75 1606 -75 
Q 1172 -75 869 213 
Q 275 772 275 1663 
Q 275 2231 503 2743 
Q 731 3256 1154 3653 
Q 1578 4050 1965 4187 
Q 2353 4325 2688 4325 
L 2869 4325 
z
M 925 2138 
Q 869 1716 869 1456 
Q 869 1156 980 804 
Q 1091 453 1309 247 
Q 1469 100 1697 100 
Q 1969 100 2183 356 
Q 2397 613 2397 1088 
Q 2397 1622 2184 2012 
Q 1972 2403 1581 2403 
Q 1463 2403 1327 2353 
Q 1191 2303 925 2138 
z
" transform="scale(0.015625)"/>
       </defs>
       <use xlink:href="#TimesNewRomanPSMT-36"/>
       <use xlink:href="#TimesNewRomanPSMT-30" transform="translate(50 0)"/>
      </g>
     </g>
    </g>
    <g id="ytick_5">
     <g id="line2d_27">
      <path d="M 47.073125 75.756686 
L 565.2 75.756686 
" clip-path="url(#pb93941b227)" style="fill: none; stroke: #b0b0b0; stroke-width: 0.8; stroke-linecap: square"/>
     </g>
     <g id="line2d_28">
      <g>
       <use xlink:href="#mfc17ed3237" x="47.073125" y="75.756686" style="stroke: #000000; stroke-width: 0.8"/>
      </g>
     </g>
     <g id="text_15">
      <!-- 80 -->
      <g transform="translate(30.073125 79.228561) scale(0.1 -0.1)">
       <use xlink:href="#TimesNewRomanPSMT-38"/>
       <use xlink:href="#TimesNewRomanPSMT-30" transform="translate(50 0)"/>
      </g>
     </g>
    </g>
    <g id="ytick_6">
     <g id="line2d_29">
      <path d="M 47.073125 21.645993 
L 565.2 21.645993 
" clip-path="url(#pb93941b227)" style="fill: none; stroke: #b0b0b0; stroke-width: 0.8; stroke-linecap: square"/>
     </g>
     <g id="line2d_30">
      <g>
       <use xlink:href="#mfc17ed3237" x="47.073125" y="21.645993" style="stroke: #000000; stroke-width: 0.8"/>
      </g>
     </g>
     <g id="text_16">
      <!-- 100 -->
      <g transform="translate(25.073125 25.117868) scale(0.1 -0.1)">
       <defs>
        <path id="TimesNewRomanPSMT-31" d="M 750 3822 
L 1781 4325 
L 1884 4325 
L 1884 747 
Q 1884 391 1914 303 
Q 1944 216 2037 169 
Q 2131 122 2419 116 
L 2419 0 
L 825 0 
L 825 116 
Q 1125 122 1212 167 
Q 1300 213 1334 289 
Q 1369 366 1369 747 
L 1369 3034 
Q 1369 3497 1338 3628 
Q 1316 3728 1258 3775 
Q 1200 3822 1119 3822 
Q 1003 3822 797 3725 
L 750 3822 
z
" transform="scale(0.015625)"/>
       </defs>
       <use xlink:href="#TimesNewRomanPSMT-31"/>
       <use xlink:href="#TimesNewRomanPSMT-30" transform="translate(50 0)"/>
       <use xlink:href="#TimesNewRomanPSMT-30" transform="translate(100 0)"/>
      </g>
     </g>
    </g>
    <g id="text_17">
     <!-- 透射率 (%) -->
     <g transform="translate(18.934063 181.124844) rotate(-90) scale(0.1 -0.1)">
      <defs>
       <path id="SimSong-Regular-900f" d="M 5056 4781 
L 5350 4723 
C 5402 4723 5434 4742 5434 4781 
C 5434 4819 5363 4883 5242 4966 
L 4870 5178 
C 4416 5037 3987 4941 3590 4890 
C 3206 4826 2765 4768 2240 4717 
L 2253 4602 
C 2714 4602 3174 4614 3635 4640 
L 3635 3994 
L 2765 3994 
C 2419 3994 2157 4006 1965 4045 
L 2080 3763 
C 2221 3795 2445 3814 2765 3814 
L 3290 3814 
C 3123 3584 2912 3366 2662 3174 
C 2400 2970 2125 2803 1811 2656 
L 1837 2573 
C 2208 2669 2566 2822 2912 3040 
C 3181 3200 3430 3398 3635 3610 
L 3635 3206 
C 3635 2976 3622 2797 3610 2682 
C 3610 2611 3661 2579 3738 2579 
C 3795 2579 3866 2592 3955 2618 
C 3994 2643 4026 2669 4026 2701 
C 4013 2893 4006 3059 4006 3206 
L 4006 3802 
L 3994 3802 
C 4109 3610 4262 3424 4467 3238 
C 4672 3059 4890 2906 5126 2784 
C 5344 2662 5491 2605 5555 2605 
C 5581 2605 5619 2643 5651 2720 
L 5645 2720 
C 5696 2822 5792 2893 5933 2931 
L 5958 2995 
C 5626 3053 5293 3149 4960 3283 
C 4678 3398 4410 3571 4154 3814 
L 5741 3814 
C 5792 3814 5830 3840 5830 3904 
C 5830 3930 5766 4000 5658 4122 
C 5542 4237 5466 4301 5414 4301 
C 5389 4301 5338 4256 5261 4173 
C 5178 4077 5120 4019 5094 3994 
L 4006 3994 
L 4006 4672 
C 4346 4698 4698 4730 5056 4781 
z
M 858 5107 
L 794 5043 
C 1050 4806 1229 4512 1350 4166 
C 1395 4006 1485 3930 1600 3930 
C 1651 3930 1696 3962 1734 4026 
C 1773 4090 1805 4154 1805 4224 
C 1805 4358 1722 4499 1574 4640 
C 1434 4787 1197 4941 858 5107 
L 858 5107 
z
M 288 2746 
L 403 2464 
C 582 2496 845 2515 1178 2515 
L 1178 461 
C 998 314 736 141 390 -38 
C 480 -218 570 -378 640 -493 
C 672 -563 717 -595 742 -595 
C 800 -595 838 -518 838 -371 
C 1050 -128 1242 128 1395 403 
C 1414 442 1427 467 1434 467 
C 1683 19 2080 -237 2618 -314 
C 3046 -358 3514 -384 4013 -397 
L 5888 -397 
C 5939 -397 5978 -358 5990 -282 
C 6029 -115 6099 -26 6208 0 
L 6189 70 
C 5491 26 4858 6 4294 6 
C 3309 6 2662 26 2362 77 
C 2022 141 1754 301 1568 563 
L 1568 2374 
C 1568 2400 1594 2438 1658 2490 
C 1715 2541 1754 2579 1754 2618 
C 1754 2656 1690 2720 1581 2816 
C 1472 2906 1389 2957 1338 2957 
C 1299 2957 1242 2918 1165 2842 
L 1018 2694 
C 755 2694 518 2707 288 2746 
L 288 2746 
z
M 2170 2541 
L 2317 2246 
C 2470 2291 2630 2310 2803 2310 
L 3098 2310 
C 3059 2074 3014 1862 2950 1670 
C 2880 1459 2822 1299 2758 1190 
C 2662 1030 2560 896 2445 787 
C 2310 659 2144 531 1939 403 
L 1978 320 
C 2221 403 2432 506 2624 640 
C 2771 749 2899 870 3014 1011 
C 3110 1139 3213 1312 3302 1542 
C 3392 1773 3469 2029 3520 2310 
L 4314 2310 
L 4218 1850 
C 4205 1805 4186 1747 4141 1683 
C 4109 1651 4090 1619 4090 1594 
C 4090 1555 4154 1504 4269 1453 
L 4262 1453 
C 4294 1434 4346 1427 4397 1427 
C 4448 1427 4499 1459 4563 1536 
L 5075 1536 
C 5030 1024 4986 736 4928 672 
C 4890 608 4832 570 4730 570 
C 4480 570 4218 602 3930 678 
L 3891 608 
L 4314 474 
C 4390 442 4435 378 4467 282 
C 4486 192 4563 154 4672 154 
C 4851 154 5011 218 5152 346 
C 5274 448 5376 800 5446 1402 
C 5555 1434 5619 1478 5632 1542 
C 5632 1568 5600 1606 5555 1651 
C 5382 1786 5267 1856 5203 1856 
C 5152 1856 5082 1805 5005 1709 
L 4576 1709 
L 4672 2176 
C 4685 2214 4717 2240 4774 2266 
C 4838 2278 4877 2310 4883 2362 
C 4883 2387 4851 2419 4806 2458 
C 4640 2586 4531 2656 4486 2656 
C 4442 2656 4371 2598 4282 2483 
L 2771 2483 
C 2605 2483 2406 2502 2163 2541 
L 2170 2541 
z
" transform="scale(0.015625)"/>
       <path id="SimSong-Regular-5c04" d="M 1613 5254 
C 1568 4966 1510 4698 1440 4442 
L 1152 4442 
C 1011 4531 883 4589 762 4627 
C 774 4512 787 4339 787 4115 
L 787 1670 
C 621 1677 467 1696 314 1722 
L 429 1440 
C 621 1472 858 1491 1152 1491 
L 1869 1491 
C 1683 1107 1466 768 1210 461 
C 902 128 589 -147 269 -378 
L 339 -454 
C 710 -294 1075 -58 1434 262 
C 1786 582 2099 992 2374 1491 
L 2515 1491 
L 2515 32 
C 2515 -51 2458 -96 2323 -96 
C 2150 -96 1926 -77 1638 -45 
L 1606 -141 
C 1990 -224 2170 -320 2189 -422 
C 2189 -518 2246 -570 2323 -570 
C 2413 -570 2515 -544 2637 -493 
L 2637 -493 
C 2790 -416 2880 -314 2880 -186 
L 2880 4128 
C 2880 4166 2906 4198 2970 4230 
C 3021 4256 3059 4288 3059 4339 
C 3059 4371 2995 4435 2886 4538 
C 2784 4614 2714 4653 2688 4653 
C 2656 4653 2605 4621 2541 4570 
C 2502 4525 2464 4480 2426 4442 
L 1651 4442 
C 1779 4582 1888 4730 1997 4896 
C 2003 4928 2035 4947 2106 4960 
C 2170 4973 2208 4992 2208 5024 
C 2208 5062 2106 5107 1926 5158 
L 1613 5254 
L 1613 5254 
z
M 3110 3699 
L 3232 3418 
C 3373 3450 3597 3469 3910 3469 
L 4864 3469 
L 4864 96 
C 4864 38 4858 6 4838 -6 
C 4800 -32 4755 -45 4691 -45 
C 4512 -45 4230 -13 3821 51 
L 3789 -38 
C 4262 -141 4486 -250 4512 -358 
C 4518 -480 4582 -544 4672 -544 
C 4749 -544 4858 -512 5011 -454 
C 5152 -390 5229 -262 5229 -58 
L 5229 3469 
L 6042 3469 
C 6093 3469 6131 3494 6131 3552 
C 6131 3578 6067 3648 5958 3770 
C 5843 3891 5766 3955 5715 3955 
C 5690 3955 5638 3910 5562 3821 
C 5478 3725 5421 3667 5395 3642 
L 5229 3642 
L 5229 4832 
C 5229 4883 5254 4922 5325 4941 
C 5414 4966 5472 5005 5472 5062 
C 5472 5088 5402 5114 5274 5133 
L 4838 5178 
C 4851 5030 4864 4858 4864 4666 
L 4864 3642 
L 3910 3642 
C 3565 3642 3302 3661 3110 3699 
L 3110 3699 
z
M 1158 3539 
L 1158 4269 
L 2515 4269 
L 2515 3539 
L 1158 3539 
z
M 1158 2694 
L 1158 3366 
L 2515 3366 
L 2515 2694 
L 1158 2694 
z
M 3558 3053 
L 3494 2989 
C 3674 2643 3795 2221 3878 1715 
C 3917 1574 4000 1504 4102 1504 
C 4154 1504 4198 1530 4250 1594 
C 4288 1645 4320 1709 4320 1773 
C 4320 1971 4250 2176 4134 2381 
C 4019 2592 3827 2816 3558 3053 
L 3558 3053 
z
M 1158 1664 
L 1158 2515 
L 2515 2515 
L 2515 1664 
L 1158 1664 
z
" transform="scale(0.015625)"/>
       <path id="SimSong-Regular-7387" d="M 461 4499 
L 582 4218 
C 723 4250 947 4269 1261 4269 
L 2938 4269 
C 2784 3891 2643 3590 2502 3360 
C 2445 3270 2381 3213 2317 3174 
C 2266 3149 2240 3123 2240 3098 
C 2240 3053 2291 2963 2381 2835 
C 2406 2797 2445 2778 2483 2778 
C 2509 2778 2534 2790 2566 2822 
C 2662 2874 2746 2906 2816 2931 
L 3264 3123 
C 3066 2848 2867 2611 2669 2406 
C 2541 2266 2406 2176 2234 2118 
C 2195 2099 2163 2067 2163 2035 
C 2163 1984 2214 1875 2304 1722 
C 2330 1670 2368 1651 2406 1651 
C 2432 1651 2458 1670 2496 1709 
C 2586 1766 2669 1811 2746 1837 
L 3834 2163 
C 3872 2054 3904 1939 3930 1811 
C 3968 1670 4051 1606 4147 1606 
C 4186 1606 4230 1632 4269 1683 
C 4307 1741 4333 1798 4333 1862 
C 4333 1997 4269 2138 4160 2285 
C 4058 2432 3891 2586 3648 2752 
L 3590 2701 
C 3667 2586 3725 2451 3782 2304 
L 2586 2138 
C 2989 2470 3456 2886 3994 3386 
C 4026 3418 4070 3437 4134 3450 
C 4224 3462 4282 3482 4282 3520 
C 4275 3546 4237 3578 4179 3616 
L 3757 3853 
C 3642 3674 3533 3501 3418 3334 
L 2662 3181 
C 2810 3354 2989 3571 3194 3834 
C 3226 3866 3270 3885 3334 3898 
C 3424 3910 3482 3936 3482 3974 
C 3475 4000 3437 4032 3379 4064 
L 3021 4269 
L 5805 4269 
C 5869 4269 5907 4294 5907 4352 
C 5907 4378 5837 4467 5709 4608 
C 5574 4749 5478 4819 5421 4819 
C 5395 4819 5331 4762 5242 4653 
C 5146 4544 5082 4474 5050 4442 
L 3206 4442 
C 3219 4448 3232 4461 3245 4486 
C 3283 4538 3309 4595 3309 4659 
C 3309 4742 3245 4826 3130 4915 
C 3027 5005 2854 5101 2598 5203 
L 2541 5146 
C 2707 5005 2829 4826 2906 4608 
C 2931 4531 2970 4474 3014 4442 
L 1261 4442 
C 915 4442 653 4461 461 4499 
L 461 4499 
z
M 5485 3622 
L 5613 3597 
C 5651 3597 5677 3616 5683 3654 
C 5683 3686 5619 3738 5510 3802 
L 5133 4006 
C 4902 3635 4614 3328 4269 3072 
L 4326 2995 
C 4819 3200 5203 3405 5485 3616 
L 5485 3622 
z
M 877 3904 
L 819 3846 
C 1075 3667 1293 3398 1485 3034 
C 1536 2931 1606 2880 1683 2880 
C 1734 2880 1773 2906 1811 2970 
C 1850 3014 1882 3072 1882 3142 
C 1882 3258 1824 3366 1728 3462 
C 1645 3526 1574 3578 1517 3616 
C 1325 3731 1114 3827 877 3904 
L 877 3904 
z
M 4301 2803 
L 4243 2714 
C 4589 2509 4902 2195 5171 1792 
C 5242 1645 5325 1581 5402 1581 
C 5459 1581 5517 1613 5568 1683 
C 5606 1741 5632 1811 5632 1894 
C 5619 2016 5530 2138 5376 2259 
C 5082 2477 4730 2656 4301 2803 
L 4301 2803 
z
M 2125 2726 
C 1651 2406 1139 2138 570 1920 
C 634 1824 698 1734 749 1651 
C 819 1536 883 1478 922 1478 
C 941 1478 960 1504 960 1568 
L 960 1651 
C 960 1677 1018 1728 1152 1805 
C 1478 1997 1818 2285 2176 2669 
L 2131 2726 
L 2125 2726 
z
M 314 1075 
L 429 794 
C 576 826 800 838 1114 838 
L 2976 838 
L 2976 -262 
C 2976 -314 2963 -390 2950 -499 
C 2957 -544 3008 -570 3078 -570 
C 3142 -570 3219 -557 3322 -538 
C 3360 -512 3392 -486 3392 -461 
C 3373 -320 3366 -224 3366 -186 
L 3366 838 
L 5978 838 
C 6042 838 6080 864 6080 928 
C 6080 954 6003 1043 5875 1190 
C 5741 1331 5638 1408 5574 1408 
C 5549 1408 5478 1350 5389 1242 
L 5190 1018 
L 3366 1018 
L 3366 1331 
C 3366 1382 3392 1421 3456 1446 
C 3546 1472 3603 1510 3603 1574 
C 3603 1606 3520 1626 3373 1638 
L 2950 1702 
C 2963 1632 2976 1549 2976 1446 
L 2976 1018 
L 1114 1018 
C 768 1018 506 1037 314 1075 
L 314 1075 
z
" transform="scale(0.015625)"/>
       <path id="TimesNewRomanPSMT-25" d="M 4350 4334 
L 1263 -175 
L 984 -175 
L 4072 4334 
L 4350 4334 
z
M 1138 4334 
Q 1559 4334 1792 3984 
Q 2025 3634 2025 3181 
Q 2025 2638 1762 2341 
Q 1500 2044 1131 2044 
Q 884 2044 678 2180 
Q 472 2316 348 2584 
Q 225 2853 225 3181 
Q 225 3509 350 3786 
Q 475 4063 692 4198 
Q 909 4334 1138 4334 
z
M 1128 4159 
Q 969 4159 845 3971 
Q 722 3784 722 3184 
Q 722 2750 791 2522 
Q 844 2350 956 2256 
Q 1022 2200 1119 2200 
Q 1269 2200 1375 2363 
Q 1531 2603 1531 3166 
Q 1531 3759 1378 4000 
Q 1278 4159 1128 4159 
z
M 4206 2103 
Q 4428 2103 4648 1962 
Q 4869 1822 4989 1553 
Q 5109 1284 5109 963 
Q 5109 409 4843 117 
Q 4578 -175 4216 -175 
Q 3988 -175 3773 -34 
Q 3559 106 3436 367 
Q 3313 628 3313 963 
Q 3313 1291 3436 1562 
Q 3559 1834 3773 1968 
Q 3988 2103 4206 2103 
z
M 4209 1938 
Q 4059 1938 3950 1769 
Q 3809 1550 3809 941 
Q 3809 381 3953 159 
Q 4059 0 4209 0 
Q 4353 0 4466 172 
Q 4616 400 4616 956 
Q 4616 1544 4466 1778 
Q 4363 1938 4209 1938 
z
" transform="scale(0.015625)"/>
      </defs>
      <use xlink:href="#SimSong-Regular-900f"/>
      <use xlink:href="#SimSong-Regular-5c04" transform="translate(99.999985 0)"/>
      <use xlink:href="#SimSong-Regular-7387" transform="translate(199.999969 0)"/>
      <use xlink:href="#TimesNewRomanPSMT-20" transform="translate(299.999954 0)"/>
      <use xlink:href="#TimesNewRomanPSMT-28" transform="translate(324.999954 0)"/>
      <use xlink:href="#TimesNewRomanPSMT-25" transform="translate(358.300735 0)"/>
      <use xlink:href="#TimesNewRomanPSMT-29" transform="translate(441.601517 0)"/>
     </g>
    </g>
   </g>
   <g id="line2d_31">
    <path d="M 70.624347 282.541592 
L 94.175568 275.889223 
L 117.72679 264.090035 
L 141.278011 244.234116 
L 164.829233 211.419501 
L 188.380455 166.012242 
L 211.931676 115.207166 
L 235.482898 71.588807 
L 259.034119 43.976131 
L 282.585341 32.9094 
L 306.136562 30.813698 
L 329.687784 31.211145 
L 353.239006 31.242801 
L 376.790227 30.165181 
L 400.341449 28.948778 
L 423.89267 28.024825 
L 447.443892 27.434218 
L 470.995114 27.588433 
L 494.546335 27.679611 
L 518.097557 28.102473 
L 541.648778 28.270218 
" clip-path="url(#pb93941b227)" style="fill: none; stroke: #1f77b4; stroke-width: 1.5; stroke-linecap: square"/>
   </g>
   <g id="line2d_32">
    <path d="M 70.624347 290.358002 
L 94.175568 290.635142 
L 117.72679 290.247877 
L 141.278011 289.841649 
L 164.829233 288.891583 
L 188.380455 286.874873 
L 211.931676 282.912354 
L 235.482898 274.971849 
L 259.034119 261.172736 
L 282.585341 241.627497 
L 306.136562 214.503502 
L 329.687784 182.60327 
L 353.239006 148.445657 
L 376.790227 114.657251 
L 400.341449 84.500092 
L 423.89267 61.340454 
L 447.443892 46.020926 
L 470.995114 36.957554 
L 494.546335 32.306632 
L 518.097557 30.597302 
L 541.648778 30.030917 
" clip-path="url(#pb93941b227)" style="fill: none; stroke: #ff7f0e; stroke-width: 1.5; stroke-linecap: square"/>
   </g>
   <g id="line2d_33">
    <path d="M 70.624347 287.22578 
L 75.334591 286.694079 
L 80.044835 286.087301 
L 84.75508 285.393194 
L 89.465324 284.597308 
L 94.175568 283.682596 
L 98.885812 282.628954 
L 103.596057 281.412699 
L 108.306301 280.005979 
L 113.016545 278.376147 
L 117.72679 276.485123 
L 122.437034 274.288794 
L 127.147278 271.736556 
L 131.857523 268.77114 
L 136.567767 265.328938 
L 141.278011 261.341114 
L 145.988256 256.735875 
L 150.6985 251.442298 
L 155.408744 245.396092 
L 160.118989 238.547415 
L 164.829233 230.87036 
L 169.539477 222.372934 
L 174.249722 213.105275 
L 178.959966 203.162925 
L 183.67021 192.681788 
L 188.380455 181.822683 
L 193.090699 170.746426 
L 197.800943 159.584553 
L 202.511187 148.414175 
L 207.221432 137.246739 
L 211.931676 126.037954 
L 216.64192 114.720764 
L 221.352165 103.256277 
L 226.062409 91.689925 
L 230.772653 80.19361 
L 235.482898 69.072634 
L 240.193142 58.724136 
L 244.903386 49.553395 
L 249.613631 41.877195 
L 254.323875 35.852771 
L 259.034119 31.457901 
L 263.744364 28.521034 
L 268.454608 26.779557 
L 273.164852 25.940304 
L 277.875097 25.725468 
L 282.585341 25.898936 
L 287.295585 26.276017 
L 292.00583 26.722286 
L 296.716074 27.146869 
L 301.426318 27.49383 
L 306.136562 27.73373 
L 310.846807 27.856297 
L 315.557051 27.86447 
L 320.267295 27.769753 
L 324.97754 27.588691 
L 329.687784 27.34024 
L 334.398028 27.043855 
L 339.108273 26.718132 
L 343.818517 26.379879 
L 348.528761 26.043534 
L 353.239006 25.720858 
L 357.94925 25.420854 
L 362.659494 25.149848 
L 367.369739 24.911713 
L 372.079983 24.708182 
L 376.790227 24.539221 
L 381.500472 24.403429 
L 386.210716 24.29844 
L 390.92096 24.221303 
L 395.631205 24.168824 
L 400.341449 24.137847 
L 405.051693 24.125483 
L 409.761937 24.129272 
L 414.472182 24.147281 
L 419.182426 24.178152 
L 423.89267 24.221084 
L 428.602915 24.275786 
L 433.313159 24.342384 
L 438.023403 24.421308 
L 442.733648 24.513161 
L 447.443892 24.618584 
L 452.154136 24.738118 
L 456.864381 24.872081 
L 461.574625 25.02046 
L 466.284869 25.182818 
L 470.995114 25.358235 
L 475.705358 25.545272 
L 480.415602 25.741964 
L 485.125847 25.945837 
L 489.836091 26.153955 
L 494.546335 26.362989 
L 499.25658 26.569299 
L 503.966824 26.769039 
L 508.677068 26.958268 
L 513.387312 27.133069 
L 518.097557 27.289665 
L 522.807801 27.424536 
L 527.518045 27.534531 
L 532.22829 27.616968 
L 536.938534 27.669719 
L 541.648778 27.691282 
" clip-path="url(#pb93941b227)" style="fill: none; stroke: #2ca02c; stroke-width: 1.5; stroke-linecap: square"/>
   </g>
   <g id="patch_6">
    <path d="M 47.073125 303.960625 
L 47.073125 10.8 
" style="fill: none; stroke: #000000; stroke-width: 0.8; stroke-linejoin: miter; stroke-linecap: square"/>
   </g>
   <g id="patch_7">
    <path d="M 565.2 303.960625 
L 565.2 10.8 
" style="fill: none; stroke: #000000; stroke-width: 0.8; stroke-linejoin: miter; stroke-linecap: square"/>
   </g>
   <g id="patch_8">
    <path d="M 47.073125 303.960625 
L 565.2 303.960625 
" style="fill: none; stroke: #000000; stroke-width: 0.8; stroke-linejoin: miter; stroke-linecap: square"/>
   </g>
   <g id="patch_9">
    <path d="M 47.073125 10.8 
L 565.2 10.8 
" style="fill: none; stroke: #000000; stroke-width: 0.8; stroke-linejoin: miter; stroke-linecap: square"/>
   </g>
   <g id="legend_1">
    <g id="patch_10">
     <path d="M 490.653125 298.960625 
L 558.2 298.960625 
Q 560.2 298.960625 560.2 296.960625 
L 560.2 255.543437 
Q 560.2 253.543437 558.2 253.543437 
L 490.653125 253.543437 
Q 488.653125 253.543437 488.653125 255.543437 
L 488.653125 296.960625 
Q 488.653125 298.960625 490.653125 298.960625 
z
" style="fill: #ffffff; opacity: 0.8; stroke: #cccccc; stroke-linejoin: miter"/>
    </g>
    <g id="line2d_34">
     <path d="M 492.653125 261.043437 
L 502.653125 261.043437 
L 512.653125 261.043437 
" style="fill: none; stroke: #1f77b4; stroke-width: 1.5; stroke-linecap: square"/>
    </g>
    <g id="text_18">
     <!-- Chroma -->
     <g transform="translate(520.653125 264.543437) scale(0.1 -0.1)">
      <defs>
       <path id="TimesNewRomanPSMT-43" d="M 3853 4334 
L 3950 2894 
L 3853 2894 
Q 3659 3541 3300 3825 
Q 2941 4109 2438 4109 
Q 2016 4109 1675 3895 
Q 1334 3681 1139 3212 
Q 944 2744 944 2047 
Q 944 1472 1128 1050 
Q 1313 628 1683 403 
Q 2053 178 2528 178 
Q 2941 178 3256 354 
Q 3572 531 3950 1056 
L 4047 994 
Q 3728 428 3303 165 
Q 2878 -97 2294 -97 
Q 1241 -97 663 684 
Q 231 1266 231 2053 
Q 231 2688 515 3219 
Q 800 3750 1298 4042 
Q 1797 4334 2388 4334 
Q 2847 4334 3294 4109 
Q 3425 4041 3481 4041 
Q 3566 4041 3628 4100 
Q 3709 4184 3744 4334 
L 3853 4334 
z
" transform="scale(0.015625)"/>
       <path id="TimesNewRomanPSMT-68" d="M 1041 4444 
L 1041 2350 
Q 1388 2731 1591 2839 
Q 1794 2947 1997 2947 
Q 2241 2947 2416 2812 
Q 2591 2678 2675 2391 
Q 2734 2191 2734 1659 
L 2734 647 
Q 2734 375 2778 275 
Q 2809 200 2884 156 
Q 2959 113 3159 113 
L 3159 0 
L 1753 0 
L 1753 113 
L 1819 113 
Q 2019 113 2097 173 
Q 2175 234 2206 353 
Q 2216 403 2216 647 
L 2216 1659 
Q 2216 2128 2167 2275 
Q 2119 2422 2012 2495 
Q 1906 2569 1756 2569 
Q 1603 2569 1437 2487 
Q 1272 2406 1041 2159 
L 1041 647 
Q 1041 353 1073 281 
Q 1106 209 1195 161 
Q 1284 113 1503 113 
L 1503 0 
L 84 0 
L 84 113 
Q 275 113 384 172 
Q 447 203 484 290 
Q 522 378 522 647 
L 522 3238 
Q 522 3728 498 3840 
Q 475 3953 426 3993 
Q 378 4034 297 4034 
Q 231 4034 84 3984 
L 41 4094 
L 897 4444 
L 1041 4444 
z
" transform="scale(0.015625)"/>
       <path id="TimesNewRomanPSMT-72" d="M 1038 2947 
L 1038 2303 
Q 1397 2947 1775 2947 
Q 1947 2947 2059 2842 
Q 2172 2738 2172 2600 
Q 2172 2478 2090 2393 
Q 2009 2309 1897 2309 
Q 1788 2309 1652 2417 
Q 1516 2525 1450 2525 
Q 1394 2525 1328 2463 
Q 1188 2334 1038 2041 
L 1038 669 
Q 1038 431 1097 309 
Q 1138 225 1241 169 
Q 1344 113 1538 113 
L 1538 0 
L 72 0 
L 72 113 
Q 291 113 397 181 
Q 475 231 506 341 
Q 522 394 522 644 
L 522 1753 
Q 522 2253 501 2348 
Q 481 2444 426 2487 
Q 372 2531 291 2531 
Q 194 2531 72 2484 
L 41 2597 
L 906 2947 
L 1038 2947 
z
" transform="scale(0.015625)"/>
       <path id="TimesNewRomanPSMT-6f" d="M 1600 2947 
Q 2250 2947 2644 2453 
Q 2978 2031 2978 1484 
Q 2978 1100 2793 706 
Q 2609 313 2286 112 
Q 1963 -88 1566 -88 
Q 919 -88 538 428 
Q 216 863 216 1403 
Q 216 1797 411 2186 
Q 606 2575 925 2761 
Q 1244 2947 1600 2947 
z
M 1503 2744 
Q 1338 2744 1170 2645 
Q 1003 2547 900 2300 
Q 797 2053 797 1666 
Q 797 1041 1045 587 
Q 1294 134 1700 134 
Q 2003 134 2200 384 
Q 2397 634 2397 1244 
Q 2397 2006 2069 2444 
Q 1847 2744 1503 2744 
z
" transform="scale(0.015625)"/>
       <path id="TimesNewRomanPSMT-61" d="M 1822 413 
Q 1381 72 1269 19 
Q 1100 -59 909 -59 
Q 613 -59 420 144 
Q 228 347 228 678 
Q 228 888 322 1041 
Q 450 1253 767 1440 
Q 1084 1628 1822 1897 
L 1822 2009 
Q 1822 2438 1686 2597 
Q 1550 2756 1291 2756 
Q 1094 2756 978 2650 
Q 859 2544 859 2406 
L 866 2225 
Q 866 2081 792 2003 
Q 719 1925 600 1925 
Q 484 1925 411 2006 
Q 338 2088 338 2228 
Q 338 2497 613 2722 
Q 888 2947 1384 2947 
Q 1766 2947 2009 2819 
Q 2194 2722 2281 2516 
Q 2338 2381 2338 1966 
L 2338 994 
Q 2338 584 2353 492 
Q 2369 400 2405 369 
Q 2441 338 2488 338 
Q 2538 338 2575 359 
Q 2641 400 2828 588 
L 2828 413 
Q 2478 -56 2159 -56 
Q 2006 -56 1915 50 
Q 1825 156 1822 413 
z
M 1822 616 
L 1822 1706 
Q 1350 1519 1213 1441 
Q 966 1303 859 1153 
Q 753 1003 753 825 
Q 753 600 887 451 
Q 1022 303 1197 303 
Q 1434 303 1822 616 
z
" transform="scale(0.015625)"/>
      </defs>
      <use xlink:href="#TimesNewRomanPSMT-43"/>
      <use xlink:href="#TimesNewRomanPSMT-68" transform="translate(66.699219 0)"/>
      <use xlink:href="#TimesNewRomanPSMT-72" transform="translate(116.699219 0)"/>
      <use xlink:href="#TimesNewRomanPSMT-6f" transform="translate(150 0)"/>
      <use xlink:href="#TimesNewRomanPSMT-6d" transform="translate(200 0)"/>
      <use xlink:href="#TimesNewRomanPSMT-61" transform="translate(277.783203 0)"/>
     </g>
    </g>
    <g id="line2d_35">
     <path d="M 492.653125 275.1825 
L 502.653125 275.1825 
L 512.653125 275.1825 
" style="fill: none; stroke: #ff7f0e; stroke-width: 1.5; stroke-linecap: square"/>
    </g>
    <g id="text_19">
     <!-- CNI -->
     <g transform="translate(520.653125 278.6825) scale(0.1 -0.1)">
      <defs>
       <path id="TimesNewRomanPSMT-4e" d="M -84 4238 
L 1066 4238 
L 3656 1059 
L 3656 3503 
Q 3656 3894 3569 3991 
Q 3453 4122 3203 4122 
L 3056 4122 
L 3056 4238 
L 4531 4238 
L 4531 4122 
L 4381 4122 
Q 4113 4122 4000 3959 
Q 3931 3859 3931 3503 
L 3931 -69 
L 3819 -69 
L 1025 3344 
L 1025 734 
Q 1025 344 1109 247 
Q 1228 116 1475 116 
L 1625 116 
L 1625 0 
L 150 0 
L 150 116 
L 297 116 
Q 569 116 681 278 
Q 750 378 750 734 
L 750 3681 
Q 566 3897 470 3965 
Q 375 4034 191 4094 
Q 100 4122 -84 4122 
L -84 4238 
z
" transform="scale(0.015625)"/>
       <path id="TimesNewRomanPSMT-49" d="M 1975 116 
L 1975 0 
L 159 0 
L 159 116 
L 309 116 
Q 572 116 691 269 
Q 766 369 766 750 
L 766 3488 
Q 766 3809 725 3913 
Q 694 3991 597 4047 
Q 459 4122 309 4122 
L 159 4122 
L 159 4238 
L 1975 4238 
L 1975 4122 
L 1822 4122 
Q 1563 4122 1444 3969 
Q 1366 3869 1366 3488 
L 1366 750 
Q 1366 428 1406 325 
Q 1438 247 1538 191 
Q 1672 116 1822 116 
L 1975 116 
z
" transform="scale(0.015625)"/>
      </defs>
      <use xlink:href="#TimesNewRomanPSMT-43"/>
      <use xlink:href="#TimesNewRomanPSMT-4e" transform="translate(66.699219 0)"/>
      <use xlink:href="#TimesNewRomanPSMT-49" transform="translate(138.916016 0)"/>
     </g>
    </g>
    <g id="line2d_36">
     <path d="M 492.653125 289.321562 
L 502.653125 289.321562 
L 512.653125 289.321562 
" style="fill: none; stroke: #2ca02c; stroke-width: 1.5; stroke-linecap: square"/>
    </g>
    <g id="text_20">
     <!-- Semrock -->
     <g transform="translate(520.653125 292.821562) scale(0.1 -0.1)">
      <defs>
       <path id="TimesNewRomanPSMT-53" d="M 2934 4334 
L 2934 2869 
L 2819 2869 
Q 2763 3291 2617 3541 
Q 2472 3791 2203 3937 
Q 1934 4084 1647 4084 
Q 1322 4084 1109 3886 
Q 897 3688 897 3434 
Q 897 3241 1031 3081 
Q 1225 2847 1953 2456 
Q 2547 2138 2764 1967 
Q 2981 1797 3098 1565 
Q 3216 1334 3216 1081 
Q 3216 600 2842 251 
Q 2469 -97 1881 -97 
Q 1697 -97 1534 -69 
Q 1438 -53 1133 45 
Q 828 144 747 144 
Q 669 144 623 97 
Q 578 50 556 -97 
L 441 -97 
L 441 1356 
L 556 1356 
Q 638 900 775 673 
Q 913 447 1195 297 
Q 1478 147 1816 147 
Q 2206 147 2432 353 
Q 2659 559 2659 841 
Q 2659 997 2573 1156 
Q 2488 1316 2306 1453 
Q 2184 1547 1640 1851 
Q 1097 2156 867 2337 
Q 638 2519 519 2737 
Q 400 2956 400 3219 
Q 400 3675 750 4004 
Q 1100 4334 1641 4334 
Q 1978 4334 2356 4169 
Q 2531 4091 2603 4091 
Q 2684 4091 2736 4139 
Q 2788 4188 2819 4334 
L 2934 4334 
z
" transform="scale(0.015625)"/>
       <path id="TimesNewRomanPSMT-65" d="M 681 1784 
Q 678 1147 991 784 
Q 1303 422 1725 422 
Q 2006 422 2214 576 
Q 2422 731 2563 1106 
L 2659 1044 
Q 2594 616 2278 264 
Q 1963 -88 1488 -88 
Q 972 -88 605 314 
Q 238 716 238 1394 
Q 238 2128 614 2539 
Q 991 2950 1559 2950 
Q 2041 2950 2350 2633 
Q 2659 2316 2659 1784 
L 681 1784 
z
M 681 1966 
L 2006 1966 
Q 1991 2241 1941 2353 
Q 1863 2528 1708 2628 
Q 1553 2728 1384 2728 
Q 1125 2728 920 2526 
Q 716 2325 681 1966 
z
" transform="scale(0.015625)"/>
       <path id="TimesNewRomanPSMT-63" d="M 2631 1088 
Q 2516 522 2178 217 
Q 1841 -88 1431 -88 
Q 944 -88 581 321 
Q 219 731 219 1428 
Q 219 2103 620 2525 
Q 1022 2947 1584 2947 
Q 2006 2947 2278 2723 
Q 2550 2500 2550 2259 
Q 2550 2141 2473 2067 
Q 2397 1994 2259 1994 
Q 2075 1994 1981 2113 
Q 1928 2178 1911 2362 
Q 1894 2547 1784 2644 
Q 1675 2738 1481 2738 
Q 1169 2738 978 2506 
Q 725 2200 725 1697 
Q 725 1184 976 792 
Q 1228 400 1656 400 
Q 1963 400 2206 609 
Q 2378 753 2541 1131 
L 2631 1088 
z
" transform="scale(0.015625)"/>
       <path id="TimesNewRomanPSMT-6b" d="M 1047 4444 
L 1047 1594 
L 1775 2259 
Q 2006 2472 2044 2528 
Q 2069 2566 2069 2603 
Q 2069 2666 2017 2711 
Q 1966 2756 1847 2763 
L 1847 2863 
L 3091 2863 
L 3091 2763 
Q 2834 2756 2664 2684 
Q 2494 2613 2291 2428 
L 1556 1750 
L 2291 822 
Q 2597 438 2703 334 
Q 2853 188 2966 144 
Q 3044 113 3238 113 
L 3238 0 
L 1847 0 
L 1847 113 
Q 1966 116 2008 148 
Q 2050 181 2050 241 
Q 2050 313 1925 472 
L 1047 1594 
L 1047 644 
Q 1047 366 1086 278 
Q 1125 191 1197 153 
Q 1269 116 1509 113 
L 1509 0 
L 53 0 
L 53 113 
Q 272 113 381 166 
Q 447 200 481 272 
Q 528 375 528 628 
L 528 3234 
Q 528 3731 506 3842 
Q 484 3953 434 3995 
Q 384 4038 303 4038 
Q 238 4038 106 3984 
L 53 4094 
L 903 4444 
L 1047 4444 
z
" transform="scale(0.015625)"/>
      </defs>
      <use xlink:href="#TimesNewRomanPSMT-53"/>
      <use xlink:href="#TimesNewRomanPSMT-65" transform="translate(55.615234 0)"/>
      <use xlink:href="#TimesNewRomanPSMT-6d" transform="translate(100 0)"/>
      <use xlink:href="#TimesNewRomanPSMT-72" transform="translate(177.783203 0)"/>
      <use xlink:href="#TimesNewRomanPSMT-6f" transform="translate(211.083984 0)"/>
      <use xlink:href="#TimesNewRomanPSMT-63" transform="translate(261.083984 0)"/>
      <use xlink:href="#TimesNewRomanPSMT-6b" transform="translate(305.46875 0)"/>
     </g>
    </g>
   </g>
  </g>
 </g>
 <defs>
  <clipPath id="pb93941b227">
   <rect x="47.073125" y="10.8" width="518.126875" height="293.160625"/>
  </clipPath>
 </defs>
</svg>
