<?xml version="1.0" encoding="utf-8" standalone="no"?>
<!DOCTYPE svg PUBLIC "-//W3C//DTD SVG 1.1//EN"
  "http://www.w3.org/Graphics/SVG/1.1/DTD/svg11.dtd">
<svg xmlns:xlink="http://www.w3.org/1999/xlink" width="497.06875pt" height="310.904188pt" viewBox="0 0 497.06875 310.904188" xmlns="http://www.w3.org/2000/svg" version="1.1">
 <metadata>
  <rdf:RDF xmlns:dc="http://purl.org/dc/elements/1.1/" xmlns:cc="http://creativecommons.org/ns#" xmlns:rdf="http://www.w3.org/1999/02/22-rdf-syntax-ns#">
   <cc:Work>
    <dc:type rdf:resource="http://purl.org/dc/dcmitype/StillImage"/>
    <dc:date>2025-12-28T19:58:45.904110</dc:date>
    <dc:format>image/svg+xml</dc:format>
    <dc:creator>
     <cc:Agent>
      <dc:title>Matplotlib v3.10.8, https://matplotlib.org/</dc:title>
     </cc:Agent>
    </dc:creator>
   </cc:Work>
  </rdf:RDF>
 </metadata>
 <defs>
  <style type="text/css">*{stroke-linejoin: round; stroke-linecap: butt}</style>
 </defs>
 <g id="figure_1">
  <g id="patch_1">
   <path d="M 0 310.904188 
L 497.06875 310.904188 
L 497.06875 0 
L 0 0 
z
" style="fill: #ffffff"/>
  </g>
  <g id="axes_1">
   <g id="patch_2">
    <path d="M 43.46875 273.312 
L 489.86875 273.312 
L 489.86875 7.2 
L 43.46875 7.2 
z
" style="fill: #ffffff"/>
   </g>
   <g id="matplotlib.axis_1">
    <g id="xtick_1">
     <g id="line2d_1">
      <path d="M 69.475408 273.312 
L 69.475408 7.2 
" clip-path="url(#p19c988d21e)" style="fill: none; stroke: #b0b0b0; stroke-width: 0.8; stroke-linecap: square"/>
     </g>
     <g id="line2d_2">
      <defs>
       <path id="m321ac6160a" d="M 0 0 
L 0 3.5 
" style="stroke: #000000; stroke-width: 0.8"/>
      </defs>
      <g>
       <use xlink:href="#m321ac6160a" x="69.475408" y="273.312" style="stroke: #000000; stroke-width: 0.8"/>
      </g>
     </g>
     <g id="text_1">
      <!-- 800 -->
      <g transform="translate(61.975408 287.25575) scale(0.1 -0.1)">
       <defs>
        <path id="TimesNewRomanPSMT-38" d="M 1228 2134 
Q 725 2547 579 2797 
Q 434 3047 434 3316 
Q 434 3728 753 4026 
Q 1072 4325 1600 4325 
Q 2113 4325 2425 4047 
Q 2738 3769 2738 3413 
Q 2738 3175 2569 2928 
Q 2400 2681 1866 2347 
Q 2416 1922 2594 1678 
Q 2831 1359 2831 1006 
Q 2831 559 2490 242 
Q 2150 -75 1597 -75 
Q 994 -75 656 303 
Q 388 606 388 966 
Q 388 1247 577 1523 
Q 766 1800 1228 2134 
z
M 1719 2469 
Q 2094 2806 2194 3001 
Q 2294 3197 2294 3444 
Q 2294 3772 2109 3958 
Q 1925 4144 1606 4144 
Q 1288 4144 1088 3959 
Q 888 3775 888 3528 
Q 888 3366 970 3203 
Q 1053 3041 1206 2894 
L 1719 2469 
z
M 1375 2016 
Q 1116 1797 991 1539 
Q 866 1281 866 981 
Q 866 578 1086 336 
Q 1306 94 1647 94 
Q 1984 94 2187 284 
Q 2391 475 2391 747 
Q 2391 972 2272 1150 
Q 2050 1481 1375 2016 
z
" transform="scale(0.015625)"/>
        <path id="TimesNewRomanPSMT-30" d="M 231 2094 
Q 231 2819 450 3342 
Q 669 3866 1031 4122 
Q 1313 4325 1613 4325 
Q 2100 4325 2488 3828 
Q 2972 3213 2972 2159 
Q 2972 1422 2759 906 
Q 2547 391 2217 158 
Q 1888 -75 1581 -75 
Q 975 -75 572 641 
Q 231 1244 231 2094 
z
M 844 2016 
Q 844 1141 1059 588 
Q 1238 122 1591 122 
Q 1759 122 1940 273 
Q 2122 425 2216 781 
Q 2359 1319 2359 2297 
Q 2359 3022 2209 3506 
Q 2097 3866 1919 4016 
Q 1791 4119 1609 4119 
Q 1397 4119 1231 3928 
Q 1006 3669 925 3112 
Q 844 2556 844 2016 
z
" transform="scale(0.015625)"/>
       </defs>
       <use xlink:href="#TimesNewRomanPSMT-38"/>
       <use xlink:href="#TimesNewRomanPSMT-30" transform="translate(50 0)"/>
       <use xlink:href="#TimesNewRomanPSMT-30" transform="translate(100 0)"/>
      </g>
     </g>
    </g>
    <g id="xtick_2">
     <g id="line2d_3">
      <path d="M 126.632899 273.312 
L 126.632899 7.2 
" clip-path="url(#p19c988d21e)" style="fill: none; stroke: #b0b0b0; stroke-width: 0.8; stroke-linecap: square"/>
     </g>
     <g id="line2d_4">
      <g>
       <use xlink:href="#m321ac6160a" x="126.632899" y="273.312" style="stroke: #000000; stroke-width: 0.8"/>
      </g>
     </g>
     <g id="text_2">
      <!-- 850 -->
      <g transform="translate(119.132899 287.25575) scale(0.1 -0.1)">
       <defs>
        <path id="TimesNewRomanPSMT-35" d="M 2778 4238 
L 2534 3706 
L 1259 3706 
L 981 3138 
Q 1809 3016 2294 2522 
Q 2709 2097 2709 1522 
Q 2709 1188 2573 903 
Q 2438 619 2231 419 
Q 2025 219 1772 97 
Q 1413 -75 1034 -75 
Q 653 -75 479 54 
Q 306 184 306 341 
Q 306 428 378 495 
Q 450 563 559 563 
Q 641 563 702 538 
Q 763 513 909 409 
Q 1144 247 1384 247 
Q 1750 247 2026 523 
Q 2303 800 2303 1197 
Q 2303 1581 2056 1914 
Q 1809 2247 1375 2428 
Q 1034 2569 447 2591 
L 1259 4238 
L 2778 4238 
z
" transform="scale(0.015625)"/>
       </defs>
       <use xlink:href="#TimesNewRomanPSMT-38"/>
       <use xlink:href="#TimesNewRomanPSMT-35" transform="translate(50 0)"/>
       <use xlink:href="#TimesNewRomanPSMT-30" transform="translate(100 0)"/>
      </g>
     </g>
    </g>
    <g id="xtick_3">
     <g id="line2d_5">
      <path d="M 183.790389 273.312 
L 183.790389 7.2 
" clip-path="url(#p19c988d21e)" style="fill: none; stroke: #b0b0b0; stroke-width: 0.8; stroke-linecap: square"/>
     </g>
     <g id="line2d_6">
      <g>
       <use xlink:href="#m321ac6160a" x="183.790389" y="273.312" style="stroke: #000000; stroke-width: 0.8"/>
      </g>
     </g>
     <g id="text_3">
      <!-- 900 -->
      <g transform="translate(176.290389 287.25575) scale(0.1 -0.1)">
       <defs>
        <path id="TimesNewRomanPSMT-39" d="M 338 -88 
L 338 28 
Q 744 34 1094 217 
Q 1444 400 1770 856 
Q 2097 1313 2225 1859 
Q 1734 1544 1338 1544 
Q 891 1544 572 1889 
Q 253 2234 253 2806 
Q 253 3363 572 3797 
Q 956 4325 1575 4325 
Q 2097 4325 2469 3894 
Q 2925 3359 2925 2575 
Q 2925 1869 2578 1258 
Q 2231 647 1613 244 
Q 1109 -88 516 -88 
L 338 -88 
z
M 2275 2091 
Q 2331 2497 2331 2741 
Q 2331 3044 2228 3395 
Q 2125 3747 1936 3934 
Q 1747 4122 1506 4122 
Q 1228 4122 1018 3872 
Q 809 3622 809 3128 
Q 809 2469 1088 2097 
Q 1291 1828 1588 1828 
Q 1731 1828 1928 1897 
Q 2125 1966 2275 2091 
z
" transform="scale(0.015625)"/>
       </defs>
       <use xlink:href="#TimesNewRomanPSMT-39"/>
       <use xlink:href="#TimesNewRomanPSMT-30" transform="translate(50 0)"/>
       <use xlink:href="#TimesNewRomanPSMT-30" transform="translate(100 0)"/>
      </g>
     </g>
    </g>
    <g id="xtick_4">
     <g id="line2d_7">
      <path d="M 240.947879 273.312 
L 240.947879 7.2 
" clip-path="url(#p19c988d21e)" style="fill: none; stroke: #b0b0b0; stroke-width: 0.8; stroke-linecap: square"/>
     </g>
     <g id="line2d_8">
      <g>
       <use xlink:href="#m321ac6160a" x="240.947879" y="273.312" style="stroke: #000000; stroke-width: 0.8"/>
      </g>
     </g>
     <g id="text_4">
      <!-- 950 -->
      <g transform="translate(233.447879 287.25575) scale(0.1 -0.1)">
       <use xlink:href="#TimesNewRomanPSMT-39"/>
       <use xlink:href="#TimesNewRomanPSMT-35" transform="translate(50 0)"/>
       <use xlink:href="#TimesNewRomanPSMT-30" transform="translate(100 0)"/>
      </g>
     </g>
    </g>
    <g id="xtick_5">
     <g id="line2d_9">
      <path d="M 298.10537 273.312 
L 298.10537 7.2 
" clip-path="url(#p19c988d21e)" style="fill: none; stroke: #b0b0b0; stroke-width: 0.8; stroke-linecap: square"/>
     </g>
     <g id="line2d_10">
      <g>
       <use xlink:href="#m321ac6160a" x="298.10537" y="273.312" style="stroke: #000000; stroke-width: 0.8"/>
      </g>
     </g>
     <g id="text_5">
      <!-- 1000 -->
      <g transform="translate(288.10537 287.25575) scale(0.1 -0.1)">
       <defs>
        <path id="TimesNewRomanPSMT-31" d="M 750 3822 
L 1781 4325 
L 1884 4325 
L 1884 747 
Q 1884 391 1914 303 
Q 1944 216 2037 169 
Q 2131 122 2419 116 
L 2419 0 
L 825 0 
L 825 116 
Q 1125 122 1212 167 
Q 1300 213 1334 289 
Q 1369 366 1369 747 
L 1369 3034 
Q 1369 3497 1338 3628 
Q 1316 3728 1258 3775 
Q 1200 3822 1119 3822 
Q 1003 3822 797 3725 
L 750 3822 
z
" transform="scale(0.015625)"/>
       </defs>
       <use xlink:href="#TimesNewRomanPSMT-31"/>
       <use xlink:href="#TimesNewRomanPSMT-30" transform="translate(50 0)"/>
       <use xlink:href="#TimesNewRomanPSMT-30" transform="translate(100 0)"/>
       <use xlink:href="#TimesNewRomanPSMT-30" transform="translate(150 0)"/>
      </g>
     </g>
    </g>
    <g id="xtick_6">
     <g id="line2d_11">
      <path d="M 355.26286 273.312 
L 355.26286 7.2 
" clip-path="url(#p19c988d21e)" style="fill: none; stroke: #b0b0b0; stroke-width: 0.8; stroke-linecap: square"/>
     </g>
     <g id="line2d_12">
      <g>
       <use xlink:href="#m321ac6160a" x="355.26286" y="273.312" style="stroke: #000000; stroke-width: 0.8"/>
      </g>
     </g>
     <g id="text_6">
      <!-- 1050 -->
      <g transform="translate(345.26286 287.25575) scale(0.1 -0.1)">
       <use xlink:href="#TimesNewRomanPSMT-31"/>
       <use xlink:href="#TimesNewRomanPSMT-30" transform="translate(50 0)"/>
       <use xlink:href="#TimesNewRomanPSMT-35" transform="translate(100 0)"/>
       <use xlink:href="#TimesNewRomanPSMT-30" transform="translate(150 0)"/>
      </g>
     </g>
    </g>
    <g id="xtick_7">
     <g id="line2d_13">
      <path d="M 412.420351 273.312 
L 412.420351 7.2 
" clip-path="url(#p19c988d21e)" style="fill: none; stroke: #b0b0b0; stroke-width: 0.8; stroke-linecap: square"/>
     </g>
     <g id="line2d_14">
      <g>
       <use xlink:href="#m321ac6160a" x="412.420351" y="273.312" style="stroke: #000000; stroke-width: 0.8"/>
      </g>
     </g>
     <g id="text_7">
      <!-- 1100 -->
      <g transform="translate(402.607851 287.25575) scale(0.1 -0.1)">
       <use xlink:href="#TimesNewRomanPSMT-31"/>
       <use xlink:href="#TimesNewRomanPSMT-31" transform="translate(46.25 0)"/>
       <use xlink:href="#TimesNewRomanPSMT-30" transform="translate(96.25 0)"/>
       <use xlink:href="#TimesNewRomanPSMT-30" transform="translate(146.25 0)"/>
      </g>
     </g>
    </g>
    <g id="xtick_8">
     <g id="line2d_15">
      <path d="M 469.577841 273.312 
L 469.577841 7.2 
" clip-path="url(#p19c988d21e)" style="fill: none; stroke: #b0b0b0; stroke-width: 0.8; stroke-linecap: square"/>
     </g>
     <g id="line2d_16">
      <g>
       <use xlink:href="#m321ac6160a" x="469.577841" y="273.312" style="stroke: #000000; stroke-width: 0.8"/>
      </g>
     </g>
     <g id="text_8">
      <!-- 1150 -->
      <g transform="translate(459.765341 287.25575) scale(0.1 -0.1)">
       <use xlink:href="#TimesNewRomanPSMT-31"/>
       <use xlink:href="#TimesNewRomanPSMT-31" transform="translate(46.25 0)"/>
       <use xlink:href="#TimesNewRomanPSMT-35" transform="translate(96.25 0)"/>
       <use xlink:href="#TimesNewRomanPSMT-30" transform="translate(146.25 0)"/>
      </g>
     </g>
    </g>
    <g id="text_9">
     <!-- 波长 (nm) -->
     <g transform="translate(245.7 301.565125) scale(0.1 -0.1)">
      <defs>
       <path id="SimSong-Regular-6ce2" d="M 5600 4326 
C 5568 4326 5523 4301 5472 4256 
L 5312 4090 
L 4243 4090 
L 4243 4851 
C 4243 4902 4275 4941 4352 4966 
C 4454 4998 4518 5043 4518 5101 
C 4518 5126 4442 5152 4314 5171 
C 4122 5197 3962 5216 3827 5229 
C 3840 5069 3853 4890 3853 4691 
L 3853 4090 
L 2771 4090 
C 2669 4147 2534 4211 2355 4282 
C 2381 4090 2400 3770 2400 3328 
C 2400 2246 2330 1434 2189 896 
C 2074 454 1862 -13 1542 -512 
L 1626 -576 
C 1907 -262 2131 38 2298 339 
C 2490 723 2630 1139 2707 1594 
C 2733 1818 2758 2067 2771 2342 
L 3136 2342 
C 3264 1779 3437 1350 3635 1050 
C 3731 890 3834 742 3949 614 
C 3776 448 3597 294 3418 166 
C 3110 -32 2694 -256 2144 -518 
L 2202 -602 
C 2752 -435 3226 -243 3635 -13 
C 3827 96 4013 224 4186 371 
C 4218 339 4256 301 4301 269 
C 4614 0 4909 -198 5190 -339 
C 5434 -474 5613 -544 5702 -544 
C 5728 -544 5754 -506 5798 -429 
C 5824 -339 5901 -282 6035 -262 
L 6054 -205 
C 5510 -26 5024 205 4589 499 
C 4538 525 4493 563 4442 602 
L 4608 774 
C 4877 1056 5158 1517 5434 2163 
C 5446 2195 5491 2227 5568 2266 
L 5568 2266 
C 5638 2291 5683 2323 5683 2362 
C 5683 2400 5613 2470 5498 2560 
C 5376 2650 5299 2701 5274 2701 
C 5242 2701 5184 2675 5107 2624 
C 5069 2586 5018 2554 4966 2515 
L 4243 2515 
L 4243 3917 
L 5363 3917 
C 5222 3565 5069 3251 4896 2982 
L 4966 2925 
C 5235 3168 5491 3418 5734 3686 
C 5779 3731 5843 3757 5933 3770 
C 6010 3776 6054 3808 6054 3859 
C 6054 3923 5984 4013 5862 4141 
C 5734 4262 5645 4326 5600 4326 
z
M 883 5082 
L 819 5018 
C 1062 4826 1235 4595 1350 4314 
C 1395 4154 1485 4077 1600 4077 
C 1651 4077 1696 4109 1734 4173 
C 1773 4237 1805 4307 1805 4371 
C 1805 4480 1722 4595 1581 4710 
C 1440 4826 1210 4947 883 5082 
L 883 5082 
z
M 2778 2515 
C 2790 2765 2797 3034 2797 3328 
L 2797 3917 
L 3853 3917 
L 3853 2515 
L 2778 2515 
L 2778 2515 
z
M 1939 3827 
L 966 1517 
C 934 1459 877 1408 794 1382 
C 710 1363 544 1357 288 1357 
L 269 1254 
C 614 1222 813 1184 883 1146 
C 934 1114 960 1062 960 998 
C 960 851 954 659 941 416 
C 902 45 890 -192 890 -307 
C 902 -480 1011 -570 1178 -570 
C 1306 -570 1389 -480 1408 -307 
C 1408 -179 1382 70 1344 467 
C 1331 762 1325 992 1325 1158 
C 1325 1306 1376 1594 1491 2016 
C 1619 2438 1811 3034 2054 3782 
L 1939 3827 
L 1939 3827 
z
M 307 3757 
L 243 3693 
C 474 3488 634 3238 749 2944 
C 794 2778 883 2701 998 2701 
C 1050 2701 1094 2733 1139 2797 
C 1178 2861 1210 2931 1210 2995 
C 1210 3110 1126 3232 986 3354 
C 851 3482 627 3616 307 3757 
L 307 3757 
z
M 3258 2342 
L 5043 2342 
C 4800 1747 4550 1293 4294 979 
L 4160 832 
C 3994 986 3846 1165 3725 1370 
C 3526 1664 3379 1990 3264 2342 
L 3258 2342 
z
" transform="scale(0.015625)"/>
       <path id="SimSong-Regular-957f" d="M 1491 5178 
C 1517 5050 1536 4851 1536 4582 
L 1536 2643 
L 1139 2643 
C 794 2643 531 2662 339 2701 
L 454 2419 
C 595 2451 819 2464 1139 2464 
L 1536 2464 
L 1536 179 
C 1536 51 1510 -38 1446 -109 
C 1395 -147 1363 -179 1363 -218 
C 1363 -262 1446 -358 1600 -512 
C 1651 -563 1709 -595 1760 -595 
C 1798 -589 1837 -550 1856 -480 
C 1914 -365 1997 -282 2099 -230 
L 3398 531 
L 3341 602 
L 1958 19 
L 1958 2464 
L 2950 2464 
C 3046 2035 3200 1664 3398 1344 
C 3565 1088 3789 832 4058 582 
C 4320 352 4653 134 5050 -64 
C 5357 -218 5574 -294 5677 -294 
C 5690 -294 5722 -250 5760 -160 
C 5811 -51 5901 19 6054 64 
L 6080 122 
C 5498 294 5024 474 4666 672 
C 4294 864 3968 1107 3699 1395 
C 3456 1664 3258 2022 3104 2464 
L 5587 2464 
C 5645 2464 5683 2490 5683 2554 
C 5683 2579 5613 2662 5491 2797 
C 5363 2925 5274 2995 5216 2995 
C 5197 2995 5139 2944 5050 2848 
C 4960 2739 4896 2669 4864 2643 
L 1958 2643 
L 1958 4755 
C 1965 4832 1990 4883 2054 4915 
C 2157 4954 2227 4998 2227 5056 
C 2227 5088 2182 5107 2106 5120 
L 1491 5178 
L 1491 5178 
z
M 4742 4582 
L 4877 4570 
C 4902 4570 4928 4589 4934 4627 
C 4934 4666 4877 4730 4781 4819 
L 4454 5082 
C 3846 4314 3066 3661 2118 3123 
L 2176 3046 
C 3258 3539 4115 4051 4742 4576 
L 4742 4582 
z
" transform="scale(0.015625)"/>
       <path id="TimesNewRomanPSMT-20" transform="scale(0.015625)"/>
       <path id="TimesNewRomanPSMT-28" d="M 1988 -1253 
L 1988 -1369 
Q 1516 -1131 1200 -813 
Q 750 -359 506 256 
Q 263 872 263 1534 
Q 263 2503 741 3301 
Q 1219 4100 1988 4444 
L 1988 4313 
Q 1603 4100 1356 3731 
Q 1109 3363 987 2797 
Q 866 2231 866 1616 
Q 866 947 969 400 
Q 1050 -31 1165 -292 
Q 1281 -553 1476 -793 
Q 1672 -1034 1988 -1253 
z
" transform="scale(0.015625)"/>
       <path id="TimesNewRomanPSMT-6e" d="M 1034 2341 
Q 1538 2947 1994 2947 
Q 2228 2947 2397 2830 
Q 2566 2713 2666 2444 
Q 2734 2256 2734 1869 
L 2734 647 
Q 2734 375 2778 278 
Q 2813 200 2889 156 
Q 2966 113 3172 113 
L 3172 0 
L 1756 0 
L 1756 113 
L 1816 113 
Q 2016 113 2095 173 
Q 2175 234 2206 353 
Q 2219 400 2219 647 
L 2219 1819 
Q 2219 2209 2117 2386 
Q 2016 2563 1775 2563 
Q 1403 2563 1034 2156 
L 1034 647 
Q 1034 356 1069 288 
Q 1113 197 1189 155 
Q 1266 113 1500 113 
L 1500 0 
L 84 0 
L 84 113 
L 147 113 
Q 366 113 442 223 
Q 519 334 519 647 
L 519 1709 
Q 519 2225 495 2337 
Q 472 2450 423 2490 
Q 375 2531 294 2531 
Q 206 2531 84 2484 
L 38 2597 
L 900 2947 
L 1034 2947 
L 1034 2341 
z
" transform="scale(0.015625)"/>
       <path id="TimesNewRomanPSMT-6d" d="M 1050 2338 
Q 1363 2650 1419 2697 
Q 1559 2816 1721 2881 
Q 1884 2947 2044 2947 
Q 2313 2947 2506 2790 
Q 2700 2634 2766 2338 
Q 3088 2713 3309 2830 
Q 3531 2947 3766 2947 
Q 3994 2947 4170 2830 
Q 4347 2713 4450 2447 
Q 4519 2266 4519 1878 
L 4519 647 
Q 4519 378 4559 278 
Q 4591 209 4675 161 
Q 4759 113 4950 113 
L 4950 0 
L 3538 0 
L 3538 113 
L 3597 113 
Q 3781 113 3884 184 
Q 3956 234 3988 344 
Q 4000 397 4000 647 
L 4000 1878 
Q 4000 2228 3916 2372 
Q 3794 2572 3525 2572 
Q 3359 2572 3192 2489 
Q 3025 2406 2788 2181 
L 2781 2147 
L 2788 2013 
L 2788 647 
Q 2788 353 2820 281 
Q 2853 209 2943 161 
Q 3034 113 3253 113 
L 3253 0 
L 1806 0 
L 1806 113 
Q 2044 113 2133 169 
Q 2222 225 2256 338 
Q 2272 391 2272 647 
L 2272 1878 
Q 2272 2228 2169 2381 
Q 2031 2581 1784 2581 
Q 1616 2581 1450 2491 
Q 1191 2353 1050 2181 
L 1050 647 
Q 1050 366 1089 281 
Q 1128 197 1204 155 
Q 1281 113 1516 113 
L 1516 0 
L 100 0 
L 100 113 
Q 297 113 375 155 
Q 453 197 493 289 
Q 534 381 534 647 
L 534 1741 
Q 534 2213 506 2350 
Q 484 2453 437 2492 
Q 391 2531 309 2531 
Q 222 2531 100 2484 
L 53 2597 
L 916 2947 
L 1050 2947 
L 1050 2338 
z
" transform="scale(0.015625)"/>
       <path id="TimesNewRomanPSMT-29" d="M 144 4313 
L 144 4444 
Q 619 4209 934 3891 
Q 1381 3434 1625 2820 
Q 1869 2206 1869 1541 
Q 1869 572 1392 -226 
Q 916 -1025 144 -1369 
L 144 -1253 
Q 528 -1038 776 -670 
Q 1025 -303 1145 264 
Q 1266 831 1266 1447 
Q 1266 2113 1163 2663 
Q 1084 3094 967 3353 
Q 850 3613 656 3853 
Q 463 4094 144 4313 
z
" transform="scale(0.015625)"/>
      </defs>
      <use xlink:href="#SimSong-Regular-6ce2"/>
      <use xlink:href="#SimSong-Regular-957f" transform="translate(99.999985 0)"/>
      <use xlink:href="#TimesNewRomanPSMT-20" transform="translate(199.999969 0)"/>
      <use xlink:href="#TimesNewRomanPSMT-28" transform="translate(224.999969 0)"/>
      <use xlink:href="#TimesNewRomanPSMT-6e" transform="translate(258.300751 0)"/>
      <use xlink:href="#TimesNewRomanPSMT-6d" transform="translate(308.300751 0)"/>
      <use xlink:href="#TimesNewRomanPSMT-29" transform="translate(386.083954 0)"/>
     </g>
    </g>
   </g>
   <g id="matplotlib.axis_2">
    <g id="ytick_1">
     <g id="line2d_17">
      <path d="M 43.46875 229.922552 
L 489.86875 229.922552 
" clip-path="url(#p19c988d21e)" style="fill: none; stroke: #b0b0b0; stroke-width: 0.8; stroke-linecap: square"/>
     </g>
     <g id="line2d_18">
      <defs>
       <path id="mde7996c3fb" d="M 0 0 
L -3.5 0 
" style="stroke: #000000; stroke-width: 0.8"/>
      </defs>
      <g>
       <use xlink:href="#mde7996c3fb" x="43.46875" y="229.922552" style="stroke: #000000; stroke-width: 0.8"/>
      </g>
     </g>
     <g id="text_10">
      <!-- 92 -->
      <g transform="translate(26.46875 233.394427) scale(0.1 -0.1)">
       <defs>
        <path id="TimesNewRomanPSMT-32" d="M 2934 816 
L 2638 0 
L 138 0 
L 138 116 
Q 1241 1122 1691 1759 
Q 2141 2397 2141 2925 
Q 2141 3328 1894 3587 
Q 1647 3847 1303 3847 
Q 991 3847 742 3664 
Q 494 3481 375 3128 
L 259 3128 
Q 338 3706 661 4015 
Q 984 4325 1469 4325 
Q 1984 4325 2329 3994 
Q 2675 3663 2675 3213 
Q 2675 2891 2525 2569 
Q 2294 2063 1775 1497 
Q 997 647 803 472 
L 1909 472 
Q 2247 472 2383 497 
Q 2519 522 2628 598 
Q 2738 675 2819 816 
L 2934 816 
z
" transform="scale(0.015625)"/>
       </defs>
       <use xlink:href="#TimesNewRomanPSMT-39"/>
       <use xlink:href="#TimesNewRomanPSMT-32" transform="translate(50 0)"/>
      </g>
     </g>
    </g>
    <g id="ytick_2">
     <g id="line2d_19">
      <path d="M 43.46875 176.291078 
L 489.86875 176.291078 
" clip-path="url(#p19c988d21e)" style="fill: none; stroke: #b0b0b0; stroke-width: 0.8; stroke-linecap: square"/>
     </g>
     <g id="line2d_20">
      <g>
       <use xlink:href="#mde7996c3fb" x="43.46875" y="176.291078" style="stroke: #000000; stroke-width: 0.8"/>
      </g>
     </g>
     <g id="text_11">
      <!-- 94 -->
      <g transform="translate(26.46875 179.762953) scale(0.1 -0.1)">
       <defs>
        <path id="TimesNewRomanPSMT-34" d="M 2978 1563 
L 2978 1119 
L 2409 1119 
L 2409 0 
L 1894 0 
L 1894 1119 
L 100 1119 
L 100 1519 
L 2066 4325 
L 2409 4325 
L 2409 1563 
L 2978 1563 
z
M 1894 1563 
L 1894 3666 
L 406 1563 
L 1894 1563 
z
" transform="scale(0.015625)"/>
       </defs>
       <use xlink:href="#TimesNewRomanPSMT-39"/>
       <use xlink:href="#TimesNewRomanPSMT-34" transform="translate(50 0)"/>
      </g>
     </g>
    </g>
    <g id="ytick_3">
     <g id="line2d_21">
      <path d="M 43.46875 122.659605 
L 489.86875 122.659605 
" clip-path="url(#p19c988d21e)" style="fill: none; stroke: #b0b0b0; stroke-width: 0.8; stroke-linecap: square"/>
     </g>
     <g id="line2d_22">
      <g>
       <use xlink:href="#mde7996c3fb" x="43.46875" y="122.659605" style="stroke: #000000; stroke-width: 0.8"/>
      </g>
     </g>
     <g id="text_12">
      <!-- 96 -->
      <g transform="translate(26.46875 126.13148) scale(0.1 -0.1)">
       <defs>
        <path id="TimesNewRomanPSMT-36" d="M 2869 4325 
L 2869 4209 
Q 2456 4169 2195 4045 
Q 1934 3922 1679 3669 
Q 1425 3416 1258 3105 
Q 1091 2794 978 2366 
Q 1428 2675 1881 2675 
Q 2316 2675 2634 2325 
Q 2953 1975 2953 1425 
Q 2953 894 2631 456 
Q 2244 -75 1606 -75 
Q 1172 -75 869 213 
Q 275 772 275 1663 
Q 275 2231 503 2743 
Q 731 3256 1154 3653 
Q 1578 4050 1965 4187 
Q 2353 4325 2688 4325 
L 2869 4325 
z
M 925 2138 
Q 869 1716 869 1456 
Q 869 1156 980 804 
Q 1091 453 1309 247 
Q 1469 100 1697 100 
Q 1969 100 2183 356 
Q 2397 613 2397 1088 
Q 2397 1622 2184 2012 
Q 1972 2403 1581 2403 
Q 1463 2403 1327 2353 
Q 1191 2303 925 2138 
z
" transform="scale(0.015625)"/>
       </defs>
       <use xlink:href="#TimesNewRomanPSMT-39"/>
       <use xlink:href="#TimesNewRomanPSMT-36" transform="translate(50 0)"/>
      </g>
     </g>
    </g>
    <g id="ytick_4">
     <g id="line2d_23">
      <path d="M 43.46875 69.028132 
L 489.86875 69.028132 
" clip-path="url(#p19c988d21e)" style="fill: none; stroke: #b0b0b0; stroke-width: 0.8; stroke-linecap: square"/>
     </g>
     <g id="line2d_24">
      <g>
       <use xlink:href="#mde7996c3fb" x="43.46875" y="69.028132" style="stroke: #000000; stroke-width: 0.8"/>
      </g>
     </g>
     <g id="text_13">
      <!-- 98 -->
      <g transform="translate(26.46875 72.500007) scale(0.1 -0.1)">
       <use xlink:href="#TimesNewRomanPSMT-39"/>
       <use xlink:href="#TimesNewRomanPSMT-38" transform="translate(50 0)"/>
      </g>
     </g>
    </g>
    <g id="ytick_5">
     <g id="line2d_25">
      <path d="M 43.46875 15.396658 
L 489.86875 15.396658 
" clip-path="url(#p19c988d21e)" style="fill: none; stroke: #b0b0b0; stroke-width: 0.8; stroke-linecap: square"/>
     </g>
     <g id="line2d_26">
      <g>
       <use xlink:href="#mde7996c3fb" x="43.46875" y="15.396658" style="stroke: #000000; stroke-width: 0.8"/>
      </g>
     </g>
     <g id="text_14">
      <!-- 100 -->
      <g transform="translate(21.46875 18.868533) scale(0.1 -0.1)">
       <use xlink:href="#TimesNewRomanPSMT-31"/>
       <use xlink:href="#TimesNewRomanPSMT-30" transform="translate(50 0)"/>
       <use xlink:href="#TimesNewRomanPSMT-30" transform="translate(100 0)"/>
      </g>
     </g>
    </g>
    <g id="text_15">
     <!-- 透过率 (%) -->
     <g transform="translate(15.329687 164.000531) rotate(-90) scale(0.1 -0.1)">
      <defs>
       <path id="SimSong-Regular-900f" d="M 5056 4781 
L 5350 4723 
C 5402 4723 5434 4742 5434 4781 
C 5434 4819 5363 4883 5242 4966 
L 4870 5178 
C 4416 5037 3987 4941 3590 4890 
C 3206 4826 2765 4768 2240 4717 
L 2253 4602 
C 2714 4602 3174 4614 3635 4640 
L 3635 3994 
L 2765 3994 
C 2419 3994 2157 4006 1965 4045 
L 2080 3763 
C 2221 3795 2445 3814 2765 3814 
L 3290 3814 
C 3123 3584 2912 3366 2662 3174 
C 2400 2970 2125 2803 1811 2656 
L 1837 2573 
C 2208 2669 2566 2822 2912 3040 
C 3181 3200 3430 3398 3635 3610 
L 3635 3206 
C 3635 2976 3622 2797 3610 2682 
C 3610 2611 3661 2579 3738 2579 
C 3795 2579 3866 2592 3955 2618 
C 3994 2643 4026 2669 4026 2701 
C 4013 2893 4006 3059 4006 3206 
L 4006 3802 
L 3994 3802 
C 4109 3610 4262 3424 4467 3238 
C 4672 3059 4890 2906 5126 2784 
C 5344 2662 5491 2605 5555 2605 
C 5581 2605 5619 2643 5651 2720 
L 5645 2720 
C 5696 2822 5792 2893 5933 2931 
L 5958 2995 
C 5626 3053 5293 3149 4960 3283 
C 4678 3398 4410 3571 4154 3814 
L 5741 3814 
C 5792 3814 5830 3840 5830 3904 
C 5830 3930 5766 4000 5658 4122 
C 5542 4237 5466 4301 5414 4301 
C 5389 4301 5338 4256 5261 4173 
C 5178 4077 5120 4019 5094 3994 
L 4006 3994 
L 4006 4672 
C 4346 4698 4698 4730 5056 4781 
z
M 858 5107 
L 794 5043 
C 1050 4806 1229 4512 1350 4166 
C 1395 4006 1485 3930 1600 3930 
C 1651 3930 1696 3962 1734 4026 
C 1773 4090 1805 4154 1805 4224 
C 1805 4358 1722 4499 1574 4640 
C 1434 4787 1197 4941 858 5107 
L 858 5107 
z
M 288 2746 
L 403 2464 
C 582 2496 845 2515 1178 2515 
L 1178 461 
C 998 314 736 141 390 -38 
C 480 -218 570 -378 640 -493 
C 672 -563 717 -595 742 -595 
C 800 -595 838 -518 838 -371 
C 1050 -128 1242 128 1395 403 
C 1414 442 1427 467 1434 467 
C 1683 19 2080 -237 2618 -314 
C 3046 -358 3514 -384 4013 -397 
L 5888 -397 
C 5939 -397 5978 -358 5990 -282 
C 6029 -115 6099 -26 6208 0 
L 6189 70 
C 5491 26 4858 6 4294 6 
C 3309 6 2662 26 2362 77 
C 2022 141 1754 301 1568 563 
L 1568 2374 
C 1568 2400 1594 2438 1658 2490 
C 1715 2541 1754 2579 1754 2618 
C 1754 2656 1690 2720 1581 2816 
C 1472 2906 1389 2957 1338 2957 
C 1299 2957 1242 2918 1165 2842 
L 1018 2694 
C 755 2694 518 2707 288 2746 
L 288 2746 
z
M 2170 2541 
L 2317 2246 
C 2470 2291 2630 2310 2803 2310 
L 3098 2310 
C 3059 2074 3014 1862 2950 1670 
C 2880 1459 2822 1299 2758 1190 
C 2662 1030 2560 896 2445 787 
C 2310 659 2144 531 1939 403 
L 1978 320 
C 2221 403 2432 506 2624 640 
C 2771 749 2899 870 3014 1011 
C 3110 1139 3213 1312 3302 1542 
C 3392 1773 3469 2029 3520 2310 
L 4314 2310 
L 4218 1850 
C 4205 1805 4186 1747 4141 1683 
C 4109 1651 4090 1619 4090 1594 
C 4090 1555 4154 1504 4269 1453 
L 4262 1453 
C 4294 1434 4346 1427 4397 1427 
C 4448 1427 4499 1459 4563 1536 
L 5075 1536 
C 5030 1024 4986 736 4928 672 
C 4890 608 4832 570 4730 570 
C 4480 570 4218 602 3930 678 
L 3891 608 
L 4314 474 
C 4390 442 4435 378 4467 282 
C 4486 192 4563 154 4672 154 
C 4851 154 5011 218 5152 346 
C 5274 448 5376 800 5446 1402 
C 5555 1434 5619 1478 5632 1542 
C 5632 1568 5600 1606 5555 1651 
C 5382 1786 5267 1856 5203 1856 
C 5152 1856 5082 1805 5005 1709 
L 4576 1709 
L 4672 2176 
C 4685 2214 4717 2240 4774 2266 
C 4838 2278 4877 2310 4883 2362 
C 4883 2387 4851 2419 4806 2458 
C 4640 2586 4531 2656 4486 2656 
C 4442 2656 4371 2598 4282 2483 
L 2771 2483 
C 2605 2483 2406 2502 2163 2541 
L 2170 2541 
z
" transform="scale(0.015625)"/>
       <path id="SimSong-Regular-8fc7" d="M 1939 3795 
L 2054 3514 
C 2195 3546 2419 3565 2739 3565 
L 4397 3565 
L 4397 896 
C 4397 838 4390 806 4378 794 
C 4339 768 4288 755 4218 755 
C 4026 755 3725 800 3296 902 
L 3264 813 
C 3776 698 4026 576 4051 461 
C 4058 320 4122 256 4224 256 
C 4301 256 4416 282 4570 346 
C 4710 403 4794 538 4794 742 
L 4794 3565 
L 5914 3565 
C 5971 3565 6010 3590 6010 3654 
C 6010 3680 5939 3763 5818 3898 
C 5690 4026 5600 4096 5542 4096 
C 5517 4096 5459 4045 5376 3949 
C 5280 3834 5216 3770 5190 3744 
L 4794 3744 
L 4794 4755 
C 4794 4813 4819 4851 4896 4877 
C 4992 4902 5050 4941 5050 5005 
C 5050 5030 4973 5056 4845 5082 
C 4659 5094 4506 5114 4378 5126 
C 4390 4966 4397 4781 4397 4576 
L 4397 3744 
L 2739 3744 
C 2394 3744 2131 3757 1939 3795 
L 1939 3795 
z
M 832 4877 
L 768 4819 
C 986 4595 1146 4320 1248 3994 
C 1293 3834 1382 3757 1498 3757 
C 1549 3757 1594 3782 1638 3846 
C 1677 3910 1709 3981 1709 4045 
C 1709 4173 1632 4307 1491 4442 
C 1363 4582 1146 4723 832 4877 
L 832 4877 
z
M 2483 3053 
L 2419 2989 
C 2688 2733 2886 2419 3027 2042 
C 3066 1882 3162 1805 3277 1805 
C 3322 1805 3366 1837 3411 1901 
C 3450 1965 3482 2029 3482 2099 
C 3482 2240 3392 2394 3238 2554 
C 3091 2714 2842 2880 2483 3053 
L 2483 3053 
z
M 365 2771 
L 480 2490 
C 659 2522 902 2541 1222 2541 
L 1222 410 
C 1050 301 806 173 467 32 
C 557 -141 646 -301 723 -435 
C 755 -486 794 -518 819 -518 
C 877 -518 915 -442 915 -294 
C 1114 -90 1293 128 1453 365 
C 1466 397 1472 416 1478 416 
C 1722 -38 2112 -307 2630 -390 
C 3040 -435 3488 -461 3974 -474 
L 5792 -474 
C 5843 -474 5888 -429 5901 -352 
C 5952 -173 6022 -77 6131 -51 
L 6112 32 
C 5427 -19 4819 -45 4269 -45 
C 3309 -45 2688 -19 2394 32 
C 2061 90 1805 256 1619 518 
L 1619 2451 
C 1619 2477 1645 2515 1709 2566 
C 1766 2611 1805 2650 1805 2688 
C 1805 2720 1747 2784 1645 2874 
C 1536 2957 1459 3002 1414 3002 
C 1376 3002 1318 2963 1248 2886 
C 1203 2835 1158 2778 1114 2714 
C 845 2714 595 2733 365 2771 
L 365 2771 
z
" transform="scale(0.015625)"/>
       <path id="SimSong-Regular-7387" d="M 461 4499 
L 582 4218 
C 723 4250 947 4269 1261 4269 
L 2938 4269 
C 2784 3891 2643 3590 2502 3360 
C 2445 3270 2381 3213 2317 3174 
C 2266 3149 2240 3123 2240 3098 
C 2240 3053 2291 2963 2381 2835 
C 2406 2797 2445 2778 2483 2778 
C 2509 2778 2534 2790 2566 2822 
C 2662 2874 2746 2906 2816 2931 
L 3264 3123 
C 3066 2848 2867 2611 2669 2406 
C 2541 2266 2406 2176 2234 2118 
C 2195 2099 2163 2067 2163 2035 
C 2163 1984 2214 1875 2304 1722 
C 2330 1670 2368 1651 2406 1651 
C 2432 1651 2458 1670 2496 1709 
C 2586 1766 2669 1811 2746 1837 
L 3834 2163 
C 3872 2054 3904 1939 3930 1811 
C 3968 1670 4051 1606 4147 1606 
C 4186 1606 4230 1632 4269 1683 
C 4307 1741 4333 1798 4333 1862 
C 4333 1997 4269 2138 4160 2285 
C 4058 2432 3891 2586 3648 2752 
L 3590 2701 
C 3667 2586 3725 2451 3782 2304 
L 2586 2138 
C 2989 2470 3456 2886 3994 3386 
C 4026 3418 4070 3437 4134 3450 
C 4224 3462 4282 3482 4282 3520 
C 4275 3546 4237 3578 4179 3616 
L 3757 3853 
C 3642 3674 3533 3501 3418 3334 
L 2662 3181 
C 2810 3354 2989 3571 3194 3834 
C 3226 3866 3270 3885 3334 3898 
C 3424 3910 3482 3936 3482 3974 
C 3475 4000 3437 4032 3379 4064 
L 3021 4269 
L 5805 4269 
C 5869 4269 5907 4294 5907 4352 
C 5907 4378 5837 4467 5709 4608 
C 5574 4749 5478 4819 5421 4819 
C 5395 4819 5331 4762 5242 4653 
C 5146 4544 5082 4474 5050 4442 
L 3206 4442 
C 3219 4448 3232 4461 3245 4486 
C 3283 4538 3309 4595 3309 4659 
C 3309 4742 3245 4826 3130 4915 
C 3027 5005 2854 5101 2598 5203 
L 2541 5146 
C 2707 5005 2829 4826 2906 4608 
C 2931 4531 2970 4474 3014 4442 
L 1261 4442 
C 915 4442 653 4461 461 4499 
L 461 4499 
z
M 5485 3622 
L 5613 3597 
C 5651 3597 5677 3616 5683 3654 
C 5683 3686 5619 3738 5510 3802 
L 5133 4006 
C 4902 3635 4614 3328 4269 3072 
L 4326 2995 
C 4819 3200 5203 3405 5485 3616 
L 5485 3622 
z
M 877 3904 
L 819 3846 
C 1075 3667 1293 3398 1485 3034 
C 1536 2931 1606 2880 1683 2880 
C 1734 2880 1773 2906 1811 2970 
C 1850 3014 1882 3072 1882 3142 
C 1882 3258 1824 3366 1728 3462 
C 1645 3526 1574 3578 1517 3616 
C 1325 3731 1114 3827 877 3904 
L 877 3904 
z
M 4301 2803 
L 4243 2714 
C 4589 2509 4902 2195 5171 1792 
C 5242 1645 5325 1581 5402 1581 
C 5459 1581 5517 1613 5568 1683 
C 5606 1741 5632 1811 5632 1894 
C 5619 2016 5530 2138 5376 2259 
C 5082 2477 4730 2656 4301 2803 
L 4301 2803 
z
M 2125 2726 
C 1651 2406 1139 2138 570 1920 
C 634 1824 698 1734 749 1651 
C 819 1536 883 1478 922 1478 
C 941 1478 960 1504 960 1568 
L 960 1651 
C 960 1677 1018 1728 1152 1805 
C 1478 1997 1818 2285 2176 2669 
L 2131 2726 
L 2125 2726 
z
M 314 1075 
L 429 794 
C 576 826 800 838 1114 838 
L 2976 838 
L 2976 -262 
C 2976 -314 2963 -390 2950 -499 
C 2957 -544 3008 -570 3078 -570 
C 3142 -570 3219 -557 3322 -538 
C 3360 -512 3392 -486 3392 -461 
C 3373 -320 3366 -224 3366 -186 
L 3366 838 
L 5978 838 
C 6042 838 6080 864 6080 928 
C 6080 954 6003 1043 5875 1190 
C 5741 1331 5638 1408 5574 1408 
C 5549 1408 5478 1350 5389 1242 
L 5190 1018 
L 3366 1018 
L 3366 1331 
C 3366 1382 3392 1421 3456 1446 
C 3546 1472 3603 1510 3603 1574 
C 3603 1606 3520 1626 3373 1638 
L 2950 1702 
C 2963 1632 2976 1549 2976 1446 
L 2976 1018 
L 1114 1018 
C 768 1018 506 1037 314 1075 
L 314 1075 
z
" transform="scale(0.015625)"/>
       <path id="TimesNewRomanPSMT-25" d="M 4350 4334 
L 1263 -175 
L 984 -175 
L 4072 4334 
L 4350 4334 
z
M 1138 4334 
Q 1559 4334 1792 3984 
Q 2025 3634 2025 3181 
Q 2025 2638 1762 2341 
Q 1500 2044 1131 2044 
Q 884 2044 678 2180 
Q 472 2316 348 2584 
Q 225 2853 225 3181 
Q 225 3509 350 3786 
Q 475 4063 692 4198 
Q 909 4334 1138 4334 
z
M 1128 4159 
Q 969 4159 845 3971 
Q 722 3784 722 3184 
Q 722 2750 791 2522 
Q 844 2350 956 2256 
Q 1022 2200 1119 2200 
Q 1269 2200 1375 2363 
Q 1531 2603 1531 3166 
Q 1531 3759 1378 4000 
Q 1278 4159 1128 4159 
z
M 4206 2103 
Q 4428 2103 4648 1962 
Q 4869 1822 4989 1553 
Q 5109 1284 5109 963 
Q 5109 409 4843 117 
Q 4578 -175 4216 -175 
Q 3988 -175 3773 -34 
Q 3559 106 3436 367 
Q 3313 628 3313 963 
Q 3313 1291 3436 1562 
Q 3559 1834 3773 1968 
Q 3988 2103 4206 2103 
z
M 4209 1938 
Q 4059 1938 3950 1769 
Q 3809 1550 3809 941 
Q 3809 381 3953 159 
Q 4059 0 4209 0 
Q 4353 0 4466 172 
Q 4616 400 4616 956 
Q 4616 1544 4466 1778 
Q 4363 1938 4209 1938 
z
" transform="scale(0.015625)"/>
      </defs>
      <use xlink:href="#SimSong-Regular-900f"/>
      <use xlink:href="#SimSong-Regular-8fc7" transform="translate(99.999985 0)"/>
      <use xlink:href="#SimSong-Regular-7387" transform="translate(199.999969 0)"/>
      <use xlink:href="#TimesNewRomanPSMT-20" transform="translate(299.999954 0)"/>
      <use xlink:href="#TimesNewRomanPSMT-28" transform="translate(324.999954 0)"/>
      <use xlink:href="#TimesNewRomanPSMT-25" transform="translate(358.300735 0)"/>
      <use xlink:href="#TimesNewRomanPSMT-29" transform="translate(441.601517 0)"/>
     </g>
    </g>
   </g>
   <g id="line2d_27">
    <path d="M 63.759659 50.257147 
L 64.445549 41.139722 
L 64.902809 36.849291 
L 65.360069 34.703996 
L 65.588699 34.703996 
L 66.045959 36.849291 
L 66.503219 34.703996 
L 66.731849 34.703996 
L 67.189109 36.849291 
L 67.874998 55.083981 
L 68.560888 69.02808 
L 68.789518 74.391319 
L 69.018148 75.463966 
L 69.704038 64.73765 
L 70.389928 50.257147 
L 70.847188 41.676125 
L 71.075818 38.458183 
L 71.304448 37.385535 
L 71.761708 39.53083 
L 72.447598 58.838168 
L 73.362117 63.128598 
L 73.590747 63.665002 
L 74.048007 63.665002 
L 74.733897 40.603478 
L 75.191157 34.167752 
L 75.648417 32.022457 
L 75.877047 33.095104 
L 76.562937 43.821261 
L 77.248827 55.083981 
L 77.934717 64.73765 
L 78.163347 64.201246 
L 78.849237 52.402442 
L 79.306496 46.50296 
L 79.763756 42.212369 
L 80.221016 35.776643 
L 80.449646 34.167752 
L 80.906906 34.167752 
L 81.364166 32.022457 
L 81.592796 35.776643 
L 82.050056 52.938686 
L 82.507316 52.938686 
L 82.735946 53.47493 
L 83.193206 55.620225 
L 83.650466 55.620225 
L 83.879096 54.547577 
L 85.022246 43.285017 
L 85.479505 36.849291 
L 85.936765 36.849291 
L 86.165395 36.312887 
L 86.622655 34.167752 
L 87.308545 42.748773 
L 87.765805 44.893908 
L 88.223065 51.329794 
L 88.451695 52.938686 
L 88.908955 52.938686 
L 89.366215 57.229276 
L 89.594845 57.229276 
L 90.737995 45.966556 
L 91.423884 37.385535 
L 91.652514 35.24024 
L 91.881144 35.24024 
L 92.338404 39.53083 
L 92.795664 35.24024 
L 93.024294 35.24024 
L 93.481554 39.53083 
L 93.938814 45.966556 
L 94.167444 47.575607 
L 94.624704 47.575607 
L 95.081964 51.866038 
L 95.310594 52.402442 
L 96.225114 48.111851 
L 96.682374 44.357665 
L 96.911004 42.212369 
L 97.368263 40.067074 
L 97.596893 39.53083 
L 98.054153 39.53083 
L 98.740043 33.631348 
L 99.197303 31.486053 
L 99.654563 31.486053 
L 99.883193 33.095104 
L 100.797713 45.966556 
L 101.026343 47.039204 
L 101.483603 44.893908 
L 101.940863 47.039204 
L 102.169493 47.575607 
L 102.626753 47.575607 
L 103.084012 49.720743 
L 103.312642 49.720743 
L 103.769902 47.575607 
L 104.227162 36.849291 
L 104.455792 34.703996 
L 104.913052 36.849291 
L 106.056202 31.486053 
L 107.199352 31.486053 
L 107.885242 38.458183 
L 108.342502 44.893908 
L 108.799762 40.603478 
L 109.028391 40.603478 
L 109.485651 44.893908 
L 109.942911 47.039204 
L 110.171541 46.50296 
L 110.628801 42.212369 
L 111.086061 46.50296 
L 111.314691 45.430312 
L 112.229211 28.26827 
L 112.457841 26.659218 
L 112.915101 28.804514 
L 113.372361 35.24024 
L 113.600991 34.703996 
L 114.058251 26.122975 
L 114.515511 38.994586 
L 114.744141 40.067074 
L 115.2014 31.486053 
L 115.88729 40.067074 
L 116.34455 42.212369 
L 116.80181 42.212369 
L 117.03044 43.285017 
L 117.4877 47.575607 
L 117.94496 47.575607 
L 118.17359 45.966556 
L 118.63085 39.53083 
L 119.08811 37.385535 
L 119.31674 37.921939 
L 119.774 42.212369 
L 120.23126 37.921939 
L 120.45989 36.849291 
L 120.917149 36.849291 
L 121.374409 32.5587 
L 121.603039 32.5587 
L 122.060299 36.849291 
L 122.517559 30.413405 
L 122.746189 29.340917 
L 123.660709 33.631348 
L 123.889339 33.095104 
L 124.346599 28.804514 
L 124.803859 43.821261 
L 125.032489 45.966556 
L 125.489749 39.53083 
L 126.175639 50.79339 
L 126.632899 52.938686 
L 128.233308 45.430312 
L 128.690568 41.676125 
L 128.919198 39.53083 
L 130.062348 34.167752 
L 131.205498 34.167752 
L 132.805907 41.676125 
L 133.263167 45.430312 
L 133.491797 47.575607 
L 134.634947 52.938686 
L 135.778097 52.938686 
L 136.463987 47.039204 
L 138.064397 39.53083 
L 138.521657 35.24024 
L 138.750286 34.167752 
L 140.350696 34.167752 
L 142.636996 44.893908 
L 143.322886 50.79339 
L 143.780146 52.938686 
L 145.380555 52.938686 
L 145.609185 52.402442 
L 146.523705 48.111851 
L 146.980965 44.357665 
L 147.209595 42.212369 
L 149.495895 31.486053 
L 149.953155 33.631348 
L 150.181785 34.167752 
L 150.639044 34.167752 
L 151.782194 39.53083 
L 152.468084 45.430312 
L 153.382604 49.720743 
L 153.611234 50.257147 
L 154.068494 50.257147 
L 154.525754 52.402442 
L 154.754384 52.402442 
L 155.211644 50.257147 
L 155.668904 50.257147 
L 155.897534 49.720743 
L 156.354794 47.575607 
L 157.040683 41.676125 
L 159.098353 32.022457 
L 159.326983 31.486053 
L 160.927393 31.486053 
L 162.527802 38.994586 
L 162.756432 39.53083 
L 163.213692 39.53083 
L 163.670952 41.676125 
L 163.899582 42.212369 
L 165.957252 42.212369 
L 166.185882 41.676125 
L 167.786292 34.167752 
L 168.243552 34.167752 
L 168.472181 33.631348 
L 168.929441 31.486053 
L 171.215741 31.486053 
L 172.816151 38.994586 
L 173.044781 39.53083 
L 173.502041 39.53083 
L 173.959301 41.676125 
L 174.187931 41.676125 
L 174.64519 39.53083 
L 175.10245 41.676125 
L 175.33108 41.676125 
L 176.2456 37.385535 
L 176.47423 36.849291 
L 176.93149 36.849291 
L 178.07464 31.486053 
L 180.36094 31.486053 
L 181.046829 37.385535 
L 181.504089 39.53083 
L 182.647239 50.257147 
L 183.104499 52.402442 
L 183.561759 56.156629 
L 183.790389 58.301764 
L 184.933539 63.665002 
L 186.076689 63.665002 
L 187.219838 58.301764 
L 189.048878 41.676125 
L 189.506138 39.53083 
L 190.192028 33.631348 
L 190.649288 31.486053 
L 191.792438 31.486053 
L 192.935587 36.849291 
L 193.621477 43.821261 
L 194.764627 59.374412 
L 195.221887 63.665002 
L 195.907777 72.782267 
L 196.365037 77.072858 
L 197.508187 82.435936 
L 197.965447 82.435936 
L 198.194077 81.899692 
L 199.108596 77.609102 
L 199.565856 73.854915 
L 199.794486 71.709779 
L 200.480376 62.592354 
L 200.937636 58.301764 
L 201.623526 49.184499 
L 203.223936 34.167752 
L 203.681196 32.022457 
L 203.909826 31.486053 
L 204.824345 31.486053 
L 205.052975 32.5587 
L 206.653385 47.575607 
L 209.168315 81.899692 
L 209.625575 85.653879 
L 210.082835 87.799174 
L 210.540094 92.089605 
L 210.768724 93.162252 
L 211.225984 93.162252 
L 212.369134 87.799174 
L 213.512284 77.072858 
L 215.341324 51.866038 
L 216.941733 36.849291 
L 217.398993 34.703996 
L 217.627623 34.703996 
L 218.084883 36.849291 
L 218.542143 36.849291 
L 218.770773 37.385535 
L 219.228033 39.53083 
L 220.371183 50.257147 
L 221.057073 59.374412 
L 222.200222 70.637132 
L 222.657482 77.072858 
L 224.257892 84.581231 
L 224.486522 85.117635 
L 225.401042 85.117635 
L 225.629672 84.581231 
L 226.086932 82.435936 
L 226.772822 76.536614 
L 227.230082 74.391319 
L 227.915972 65.273894 
L 228.373231 60.983463 
L 228.830491 58.838168 
L 229.287751 55.083981 
L 230.202271 47.039204 
L 231.116791 42.748773 
L 231.345421 42.212369 
L 232.945831 42.212369 
L 235.23213 52.938686 
L 235.91802 58.838168 
L 236.83254 63.128598 
L 237.06117 63.665002 
L 239.11884 63.665002 
L 239.34747 63.128598 
L 242.091029 50.257147 
L 242.548289 50.257147 
L 242.776919 49.184499 
L 243.234179 44.893908 
L 245.977738 44.893908 
L 246.206368 45.430312 
L 246.663628 47.575607 
L 247.120888 47.575607 
L 247.349518 48.111851 
L 248.949928 55.620225 
L 249.407188 55.620225 
L 249.635818 56.156629 
L 250.093078 58.301764 
L 252.379377 58.301764 
L 256.951977 36.849291 
L 257.409237 36.849291 
L 257.637867 36.312887 
L 258.095126 34.167752 
L 259.695536 34.167752 
L 259.924166 35.24024 
L 260.381426 39.53083 
L 260.838686 39.53083 
L 261.067316 40.067074 
L 264.268135 55.083981 
L 264.496765 55.620225 
L 264.954025 55.620225 
L 265.411285 57.76552 
L 265.639915 58.301764 
L 266.097175 58.301764 
L 266.554435 56.156629 
L 266.783065 56.156629 
L 267.240325 58.301764 
L 272.270184 34.703996 
L 272.498814 34.167752 
L 272.956074 34.167752 
L 273.413334 32.022457 
L 273.641964 31.486053 
L 275.242374 31.486053 
L 275.699633 33.631348 
L 275.928263 34.167752 
L 276.385523 34.167752 
L 279.129083 47.039204 
L 279.357713 47.575607 
L 279.814973 47.575607 
L 280.272233 49.720743 
L 280.500863 50.257147 
L 280.958123 50.257147 
L 282.101272 55.620225 
L 283.244422 55.620225 
L 283.701682 53.47493 
L 283.930312 52.938686 
L 285.530722 52.938686 
L 286.673872 47.575607 
L 287.131132 47.575607 
L 287.359762 47.039204 
L 288.274281 42.748773 
L 288.502911 42.212369 
L 289.417431 42.212369 
L 289.646061 41.676125 
L 290.103321 39.53083 
L 290.560581 39.53083 
L 290.789211 38.994586 
L 291.246471 36.849291 
L 295.81907 36.849291 
L 296.27633 38.994586 
L 296.50496 39.53083 
L 296.96222 39.53083 
L 297.41948 41.676125 
L 297.64811 42.212369 
L 298.56263 42.212369 
L 298.79126 42.748773 
L 299.24852 44.893908 
L 299.705779 44.893908 
L 299.934409 45.430312 
L 300.391669 47.575607 
L 301.534819 47.575607 
L 301.992079 49.720743 
L 302.220709 50.257147 
L 303.821119 50.257147 
L 304.278379 52.402442 
L 304.507009 52.402442 
L 304.964269 50.257147 
L 307.250568 50.257147 
L 307.707828 48.111851 
L 307.936458 47.575607 
L 308.393718 47.575607 
L 309.994128 40.067074 
L 310.222758 39.53083 
L 310.680018 39.53083 
L 311.137278 37.385535 
L 311.365907 36.849291 
L 311.823167 36.849291 
L 312.280427 34.703996 
L 312.509057 34.167752 
L 312.966317 34.167752 
L 313.423577 32.022457 
L 313.652207 32.022457 
L 314.109467 34.167752 
L 314.566727 32.022457 
L 314.795357 32.022457 
L 315.252617 34.167752 
L 315.709877 32.022457 
L 315.938507 32.022457 
L 316.395767 34.167752 
L 317.538916 34.167752 
L 317.996176 36.312887 
L 318.224806 36.849291 
L 318.682066 36.849291 
L 319.139326 38.994586 
L 319.367956 39.53083 
L 319.825216 39.53083 
L 320.282476 41.676125 
L 320.511106 42.212369 
L 320.968366 42.212369 
L 321.425626 44.357665 
L 321.654256 44.893908 
L 322.111516 44.893908 
L 322.568776 47.039204 
L 322.797406 47.575607 
L 326.684115 47.575607 
L 327.141375 45.430312 
L 327.370005 44.893908 
L 328.970415 44.893908 
L 329.427674 42.748773 
L 329.656304 42.212369 
L 332.857124 42.212369 
L 333.085754 42.748773 
L 333.543014 44.893908 
L 334.000274 42.748773 
L 334.228904 42.748773 
L 334.686164 44.893908 
L 335.143423 42.748773 
L 335.372053 42.748773 
L 335.829313 44.893908 
L 336.286573 42.748773 
L 336.515203 42.748773 
L 336.972463 44.893908 
L 338.572873 44.893908 
L 338.801503 44.357665 
L 339.258763 42.212369 
L 340.401913 42.212369 
L 340.859173 40.067074 
L 341.087802 39.53083 
L 344.974512 39.53083 
L 345.431772 41.676125 
L 345.660402 42.212369 
L 346.117662 42.212369 
L 346.574922 44.357665 
L 346.803552 44.893908 
L 347.260811 44.893908 
L 348.403961 50.257147 
L 348.861221 54.547577 
L 349.089851 55.620225 
L 349.547111 55.620225 
L 350.004371 59.910815 
L 350.233001 60.983463 
L 350.690261 60.983463 
L 352.97656 71.709779 
L 355.26286 71.709779 
L 355.72012 69.564484 
L 355.94875 69.02808 
L 356.40601 69.02808 
L 356.86327 64.73765 
L 357.0919 63.665002 
L 357.54916 63.665002 
L 358.00642 59.374412 
L 358.23505 58.301764 
L 358.69231 58.301764 
L 359.378199 52.402442 
L 359.835459 50.257147 
L 360.521349 44.357665 
L 362.579019 34.703996 
L 362.807649 34.167752 
L 364.865319 34.167752 
L 365.093948 34.703996 
L 366.008468 38.994586 
L 366.465728 42.748773 
L 366.694358 44.893908 
L 367.151618 47.039204 
L 367.608878 50.79339 
L 370.809698 80.290801 
L 371.266957 82.435936 
L 371.952847 88.335418 
L 373.553257 95.843791 
L 375.153667 95.843791 
L 375.382297 95.307548 
L 376.982706 87.799174 
L 381.555306 44.893908 
L 382.698456 39.53083 
L 383.155715 35.24024 
L 383.384345 34.167752 
L 383.841605 34.167752 
L 384.298865 32.022457 
L 384.527495 32.022457 
L 384.984755 34.167752 
L 385.442015 34.167752 
L 385.670645 34.703996 
L 387.271055 42.212369 
L 387.956945 48.111851 
L 388.414205 50.257147 
L 389.100094 59.374412 
L 391.386394 80.290801 
L 391.843654 82.435936 
L 392.529544 88.335418 
L 394.129954 95.843791 
L 395.273103 95.843791 
L 395.730363 93.698656 
L 395.958993 93.162252 
L 396.416253 93.162252 
L 396.873513 91.016957 
L 397.330773 87.26277 
L 397.559403 85.117635 
L 398.702553 79.754397 
L 399.388443 71.173376 
L 399.845703 69.02808 
L 401.674742 52.402442 
L 402.132002 50.257147 
L 402.589262 43.821261 
L 402.817892 42.212369 
L 403.275152 42.212369 
L 403.732412 37.921939 
L 403.961042 36.849291 
L 404.418302 36.849291 
L 404.875562 34.703996 
L 405.104192 34.167752 
L 405.561452 34.167752 
L 406.018712 32.022457 
L 406.247342 32.022457 
L 406.704601 34.167752 
L 407.161861 34.167752 
L 407.390491 35.24024 
L 407.847751 39.53083 
L 408.305011 39.53083 
L 408.533641 40.067074 
L 408.990901 42.212369 
L 409.676791 48.111851 
L 410.134051 50.257147 
L 410.819941 56.156629 
L 412.420351 63.665002 
L 412.87761 67.955433 
L 413.10624 69.02808 
L 413.5635 69.02808 
L 414.02076 73.318671 
L 414.24939 74.391319 
L 415.8498 74.391319 
L 416.30706 76.536614 
L 416.53569 76.536614 
L 418.1361 69.02808 
L 418.593359 69.02808 
L 418.821989 67.955433 
L 419.279249 63.665002 
L 419.736509 63.665002 
L 419.965139 62.592354 
L 420.422399 58.301764 
L 421.565549 52.938686 
L 422.251439 47.039204 
L 423.165959 42.748773 
L 423.394589 42.212369 
L 423.851849 42.212369 
L 424.309109 37.921939 
L 424.537738 36.849291 
L 424.994998 36.849291 
L 425.452258 34.703996 
L 425.680888 34.167752 
L 426.138148 34.167752 
L 426.595408 32.022457 
L 426.824038 31.486053 
L 427.738558 31.486053 
L 427.967188 32.022457 
L 428.424448 34.167752 
L 428.881708 32.022457 
L 429.110338 32.022457 
L 429.567598 34.167752 
L 430.024858 34.167752 
L 430.253488 34.703996 
L 430.710747 36.849291 
L 431.853897 36.849291 
L 432.311157 38.994586 
L 432.539787 39.53083 
L 433.454307 39.53083 
L 433.682937 40.067074 
L 434.140197 42.212369 
L 435.740607 42.212369 
L 435.969237 42.748773 
L 436.426496 44.893908 
L 436.883756 42.748773 
L 437.112386 42.212369 
L 437.569646 42.212369 
L 438.026906 44.357665 
L 438.255536 43.821261 
L 438.712796 39.53083 
L 439.170056 39.53083 
L 439.398686 38.994586 
L 439.855946 36.849291 
L 440.313206 38.994586 
L 440.541836 38.994586 
L 440.999096 36.849291 
L 441.456356 36.849291 
L 441.684986 36.312887 
L 442.142246 34.167752 
L 443.285395 34.167752 
L 444.428545 28.804514 
L 446.028955 28.804514 
L 446.257585 29.340917 
L 446.714845 31.486053 
L 447.172105 29.340917 
L 447.400735 28.804514 
L 449.458404 28.804514 
L 449.687034 29.340917 
L 450.144294 31.486053 
L 452.887854 31.486053 
L 453.116484 32.022457 
L 453.573744 34.167752 
L 454.031004 32.022457 
L 454.259633 31.486053 
L 458.603603 31.486053 
L 458.832233 30.949809 
L 459.289493 28.804514 
L 459.746753 30.949809 
L 459.975383 30.949809 
L 460.432642 28.804514 
L 460.889902 30.949809 
L 461.118532 30.949809 
L 461.575792 28.804514 
L 462.033052 30.949809 
L 462.261682 31.486053 
L 463.862092 31.486053 
L 464.319352 33.631348 
L 464.547982 34.167752 
L 465.005242 34.167752 
L 465.462502 36.312887 
L 465.691132 36.312887 
L 466.148391 34.167752 
L 466.605651 36.312887 
L 466.834281 36.849291 
L 468.434691 36.849291 
L 469.577841 42.212369 
L 469.577841 42.212369 
" clip-path="url(#p19c988d21e)" style="fill: none; stroke: #1f77b4; stroke-width: 1.5; stroke-linecap: square"/>
   </g>
   <g id="line2d_28">
    <path d="M 63.759659 65.036214 
L 66.045959 43.55981 
L 66.617534 43.896869 
L 67.189109 46.496055 
L 67.760683 48.238325 
L 68.332258 50.525821 
L 68.903833 49.233133 
L 69.475408 212.080754 
L 70.618558 149.787031 
L 71.761708 101.992551 
L 72.333283 84.326187 
L 72.904858 70.276526 
L 74.048007 54.651437 
L 74.619582 50.589244 
L 75.191157 50.974278 
L 75.762732 49.750638 
L 76.334307 49.847101 
L 77.477457 51.957527 
L 78.049032 51.457105 
L 78.620607 50.634355 
L 79.192181 51.223773 
L 79.763756 51.452298 
L 80.335331 52.022893 
L 80.906906 53.134419 
L 81.478481 53.340643 
L 82.050056 54.037367 
L 82.621631 53.418898 
L 83.193206 54.390383 
L 83.764781 54.808254 
L 84.336356 53.531421 
L 84.907931 54.940827 
L 85.479505 55.767873 
L 86.05108 54.236636 
L 86.622655 56.712455 
L 87.19423 57.524874 
L 87.765805 57.799226 
L 88.33738 57.590137 
L 88.908955 57.187815 
L 89.48053 56.591749 
L 90.052105 55.305914 
L 90.62368 53.191908 
L 91.766829 53.634329 
L 92.338404 52.105546 
L 92.909979 52.39289 
L 93.481554 49.887098 
L 94.053129 50.962003 
L 94.624704 51.441148 
L 95.196279 51.29855 
L 95.767854 51.285968 
L 96.339429 48.026577 
L 96.911004 48.720334 
L 97.482578 47.402788 
L 98.054153 44.776392 
L 98.625728 44.157616 
L 99.197303 42.736958 
L 99.768878 40.191476 
L 100.340453 42.226716 
L 100.912028 41.631672 
L 101.483603 41.281827 
L 102.055178 42.41463 
L 102.626753 43.188279 
L 103.198327 42.891115 
L 103.769902 41.927813 
L 104.341477 42.615126 
L 104.913052 42.251778 
L 105.484627 40.961443 
L 106.056202 40.622645 
L 106.627777 41.072841 
L 107.199352 38.717523 
L 107.770927 39.933491 
L 108.342502 39.491172 
L 110.057226 42.239912 
L 110.628801 40.989676 
L 111.200376 41.743275 
L 112.343526 40.182372 
L 112.915101 40.87081 
L 113.486676 39.490967 
L 114.058251 40.128872 
L 114.629826 39.763172 
L 115.2014 40.799409 
L 115.772975 38.972542 
L 116.34455 38.484191 
L 116.916125 40.188612 
L 118.63085 41.932826 
L 119.202425 40.710925 
L 119.774 40.560553 
L 120.345575 42.561013 
L 120.917149 42.636403 
L 121.488724 40.917251 
L 122.060299 41.679341 
L 122.631874 41.571728 
L 123.203449 42.319497 
L 123.775024 40.703969 
L 124.346599 40.051743 
L 124.918174 43.080461 
L 125.489749 42.945433 
L 126.061324 41.922903 
L 126.632899 40.669905 
L 127.776048 40.90334 
L 128.347623 39.723993 
L 128.919198 41.318448 
L 130.062348 39.216411 
L 130.633923 39.406166 
L 131.205498 39.340493 
L 131.777073 39.015608 
L 132.348648 40.574362 
L 132.920222 40.259195 
L 133.491797 41.141071 
L 134.063372 37.81928 
L 134.634947 38.918326 
L 135.206522 38.699622 
L 135.778097 39.052229 
L 136.349672 37.944897 
L 136.921247 37.986019 
L 137.492822 39.026655 
L 138.064397 38.739312 
L 138.635972 37.433632 
L 139.779121 38.762123 
L 140.350696 38.976225 
L 140.922271 38.942365 
L 141.493846 37.725477 
L 142.065421 38.650316 
L 142.636996 39.169048 
L 143.208571 38.575948 
L 143.780146 39.230118 
L 144.351721 37.910322 
L 144.923295 38.589963 
L 145.49487 39.794064 
L 146.066445 38.263543 
L 146.63802 38.620958 
L 147.209595 40.106777 
L 147.78117 39.139383 
L 148.352745 39.602059 
L 148.92432 39.381104 
L 149.495895 40.247431 
L 150.06747 39.866898 
L 151.210619 40.378367 
L 151.782194 37.968936 
L 152.353769 41.419003 
L 152.925344 40.641467 
L 153.496919 40.443631 
L 154.068494 39.523088 
L 154.640069 38.915155 
L 155.211644 36.910296 
L 155.783219 36.618247 
L 156.354794 36.601471 
L 156.926368 37.739593 
L 157.497943 38.128719 
L 158.069518 38.140688 
L 158.641093 38.478053 
L 159.212668 39.6485 
L 159.784243 39.811966 
L 160.355818 41.117032 
L 160.927393 41.112633 
L 161.498968 40.41284 
L 162.070543 40.701309 
L 162.642117 41.404375 
L 163.213692 39.788131 
L 163.785267 39.573723 
L 165.499992 34.811634 
L 166.071567 34.905233 
L 166.643142 34.832093 
L 167.214717 35.378036 
L 167.786292 36.457032 
L 168.357867 36.568635 
L 168.929441 35.641034 
L 169.501016 37.58472 
L 170.072591 38.484702 
L 170.644166 40.827131 
L 171.215741 40.897713 
L 171.787316 41.874723 
L 172.358891 43.584668 
L 172.930466 42.442045 
L 173.502041 42.155826 
L 174.073616 39.842552 
L 174.64519 39.860658 
L 175.216765 37.315381 
L 175.78834 35.553061 
L 176.93149 33.257892 
L 177.503065 33.469129 
L 178.07464 33.556897 
L 178.646215 34.567766 
L 179.21779 34.035837 
L 179.789365 35.039341 
L 180.36094 37.259732 
L 180.932514 38.650521 
L 182.075664 42.011797 
L 182.647239 43.389082 
L 183.218814 43.211193 
L 183.790389 43.778003 
L 184.361964 40.407828 
L 184.933539 43.179993 
L 186.076689 38.046475 
L 186.648263 37.588914 
L 187.219838 34.752611 
L 188.362988 32.250911 
L 188.934563 30.276741 
L 189.506138 30.211068 
L 190.077713 29.740925 
L 190.649288 31.156264 
L 191.220863 31.850737 
L 191.792438 35.370261 
L 192.364012 38.021413 
L 192.935587 39.946891 
L 193.507162 41.404477 
L 194.078737 44.359442 
L 194.650312 45.646095 
L 195.221887 46.573287 
L 195.793462 44.51544 
L 196.365037 47.125572 
L 196.936612 44.128053 
L 197.508187 42.177308 
L 198.079762 38.705759 
L 198.651336 36.49304 
L 199.222911 32.929938 
L 199.794486 30.350085 
L 200.366061 29.055453 
L 200.937636 28.226464 
L 201.509211 27.711311 
L 202.080786 29.870634 
L 202.652361 29.99042 
L 203.223936 28.7186 
L 203.795511 33.534597 
L 206.08181 43.440024 
L 206.653385 46.396728 
L 207.22496 46.460354 
L 207.796535 46.646734 
L 208.36811 46.460559 
L 208.939685 45.78235 
L 210.082835 41.683637 
L 210.654409 39.35328 
L 211.225984 35.289449 
L 211.797559 33.390465 
L 212.940709 27.272675 
L 213.512284 26.17588 
L 214.083859 24.244468 
L 214.655434 23.916309 
L 215.227009 26.804067 
L 215.798584 28.809948 
L 216.370158 30.247075 
L 216.941733 33.804653 
L 217.513308 36.260935 
L 218.084883 38.018856 
L 218.656458 40.950804 
L 219.228033 43.140201 
L 219.799608 44.702843 
L 220.371183 46.63364 
L 220.942758 48.011437 
L 221.514333 48.806363 
L 222.085907 47.787823 
L 222.657482 44.794498 
L 223.800632 40.857614 
L 224.372207 37.835443 
L 224.943782 36.27812 
L 225.515357 31.252318 
L 226.086932 29.1378 
L 226.658507 27.898612 
L 227.801657 24.613749 
L 228.373231 23.747422 
L 228.944806 23.272267 
L 230.087956 25.602727 
L 230.659531 27.086807 
L 231.802681 30.843449 
L 233.517406 35.94188 
L 234.08898 36.320061 
L 234.660555 39.551014 
L 235.23213 40.080283 
L 236.37528 40.636966 
L 236.946855 40.473296 
L 237.51843 39.861271 
L 238.66158 37.932417 
L 241.519454 26.352541 
L 242.662604 22.941244 
L 243.234179 21.945924 
L 243.805754 22.714254 
L 244.377329 22.449926 
L 245.520479 25.541146 
L 246.663628 30.619834 
L 247.235203 32.239249 
L 247.806778 36.180327 
L 248.378353 38.560502 
L 248.949928 40.199762 
L 249.521503 43.105523 
L 250.093078 42.989113 
L 251.236228 43.389798 
L 251.807802 42.759258 
L 252.379377 41.067112 
L 252.950952 38.165954 
L 253.522527 36.456418 
L 254.094102 34.176696 
L 254.665677 31.227972 
L 256.951977 22.361442 
L 257.523552 21.838106 
L 258.095126 21.610195 
L 258.666701 21.56447 
L 259.238276 23.414455 
L 259.809851 24.364561 
L 260.381426 26.703716 
L 260.953001 28.122021 
L 262.096151 34.103045 
L 262.667726 35.401052 
L 263.239301 37.557408 
L 263.810875 39.179789 
L 264.954025 40.907943 
L 265.5256 40.552676 
L 266.097175 39.893596 
L 267.8119 34.391104 
L 268.383475 30.33781 
L 269.526625 26.717731 
L 270.098199 24.374279 
L 270.669774 21.451128 
L 271.241349 20.892706 
L 271.812924 20.063 
L 272.384499 20.066171 
L 272.956074 21.719752 
L 273.527649 21.592396 
L 274.099224 22.736042 
L 274.670799 26.151022 
L 275.242374 27.611473 
L 276.385523 32.023409 
L 276.957098 34.501888 
L 277.528673 36.123349 
L 278.100248 38.337501 
L 278.671823 37.913391 
L 279.243398 38.131277 
L 279.814973 37.950626 
L 280.386548 37.480994 
L 282.672847 29.937432 
L 283.815997 24.271474 
L 284.387572 23.46908 
L 285.530722 20.571707 
L 286.102297 20.48353 
L 286.673872 21.752077 
L 287.245447 22.217617 
L 288.388596 21.837595 
L 289.531746 29.774989 
L 290.103321 30.617891 
L 290.674896 33.064864 
L 291.246471 36.74499 
L 291.818046 37.268121 
L 292.389621 39.877332 
L 292.961196 40.626839 
L 293.53277 42.087699 
L 294.104345 41.696629 
L 294.67592 42.23091 
L 295.247495 42.542497 
L 296.390645 38.830046 
L 296.96222 35.01612 
L 297.533795 32.865697 
L 298.10537 31.604106 
L 299.24852 28.069033 
L 299.820094 27.06686 
L 300.391669 25.590963 
L 300.963244 25.075095 
L 301.534819 24.188411 
L 302.106394 25.284286 
L 303.249544 28.274133 
L 303.821119 29.549533 
L 304.392694 31.382742 
L 304.964269 32.77752 
L 305.535843 35.85227 
L 306.107418 37.035095 
L 306.678993 39.573928 
L 307.250568 41.512602 
L 308.393718 43.398084 
L 308.965293 43.476339 
L 309.536868 43.152374 
L 310.108443 43.057138 
L 310.680018 41.096777 
L 311.251593 41.888941 
L 312.966317 33.741129 
L 313.537892 31.635818 
L 314.109467 30.328706 
L 314.681042 26.657991 
L 315.252617 25.078778 
L 315.824192 24.228306 
L 316.967342 21.277536 
L 317.538916 20.921962 
L 318.110491 20.794401 
L 318.682066 21.068754 
L 319.253641 22.183757 
L 319.825216 22.61063 
L 320.396791 24.78233 
L 320.968366 28.557998 
L 321.539941 30.953722 
L 322.111516 32.40026 
L 322.683091 35.334561 
L 323.82624 38.778797 
L 324.397815 41.361309 
L 324.96939 44.741919 
L 325.540965 43.973385 
L 326.684115 46.229886 
L 327.25569 43.383149 
L 327.827265 44.419386 
L 328.39884 42.870349 
L 328.970415 40.120382 
L 329.541989 39.59541 
L 330.685139 34.31244 
L 331.256714 33.447238 
L 332.399864 28.772815 
L 332.971439 27.242294 
L 333.543014 24.825293 
L 334.114589 23.47931 
L 334.686164 22.971216 
L 335.257738 22.29536 
L 335.829313 21.870329 
L 336.400888 22.981343 
L 336.972463 23.356659 
L 337.544038 23.916514 
L 338.115613 23.772484 
L 339.258763 26.613493 
L 339.830338 27.858512 
L 340.401913 30.762227 
L 341.545062 34.022846 
L 342.116637 37.685889 
L 342.688212 39.951392 
L 343.831362 42.862166 
L 344.402937 43.511732 
L 344.974512 44.813627 
L 345.546087 44.810354 
L 346.117662 44.497641 
L 347.260811 41.997066 
L 347.832386 40.401895 
L 348.975536 36.140228 
L 349.547111 33.068137 
L 350.118686 31.425604 
L 351.833411 24.578151 
L 352.404986 23.65188 
L 352.97656 22.109594 
L 353.548135 21.218921 
L 354.11971 21.250018 
L 354.691285 22.281959 
L 355.26286 22.203705 
L 355.834435 23.934927 
L 356.40601 25.183424 
L 356.977585 27.285973 
L 357.54916 28.33377 
L 358.120735 31.752842 
L 358.69231 33.328782 
L 359.263884 35.534443 
L 359.835459 37.06384 
L 360.407034 38.99474 
L 361.550184 41.571421 
L 362.121759 42.072661 
L 362.693334 42.751893 
L 363.264909 41.482426 
L 363.836484 40.851783 
L 364.408059 39.900962 
L 364.979633 38.614206 
L 366.122783 34.771842 
L 366.694358 33.029777 
L 367.265933 28.949477 
L 367.837508 28.784784 
L 368.409083 27.304284 
L 369.552233 22.19501 
L 370.123808 22.711389 
L 370.695383 20.619069 
L 371.266957 21.751872 
L 371.838532 20.457343 
L 372.410107 22.18345 
L 372.981682 22.228562 
L 373.553257 25.156521 
L 374.124832 25.809974 
L 374.696407 26.876593 
L 375.839557 32.036094 
L 376.982706 35.217025 
L 378.125856 38.580961 
L 379.840581 39.315943 
L 380.412156 39.040977 
L 380.983731 37.973846 
L 381.555306 37.265461 
L 382.126881 36.119871 
L 383.841605 30.540966 
L 384.41318 29.339421 
L 386.127905 23.317788 
L 387.271055 22.611857 
L 388.414205 21.92035 
L 388.985779 21.809259 
L 389.557354 22.3774 
L 390.128929 23.247103 
L 391.272079 27.156674 
L 391.843654 28.183398 
L 392.986804 32.999805 
L 393.558379 34.375965 
L 394.129954 36.414989 
L 394.701528 37.854879 
L 395.273103 36.855569 
L 395.844678 39.898711 
L 396.987828 40.269629 
L 397.559403 40.778439 
L 398.130978 40.057471 
L 398.702553 39.004662 
L 399.274128 37.273338 
L 399.845703 34.000137 
L 400.417278 32.085911 
L 400.988852 32.296432 
L 401.560427 30.519075 
L 402.132002 27.74067 
L 402.703577 26.029293 
L 403.275152 25.120411 
L 404.418302 21.437523 
L 404.989877 22.163912 
L 405.561452 22.250044 
L 406.704601 20.239866 
L 407.276176 21.417269 
L 408.419326 24.424915 
L 408.990901 26.460973 
L 409.562476 26.616153 
L 410.134051 27.91907 
L 411.848776 33.725068 
L 412.420351 33.946228 
L 413.5635 36.399032 
L 414.135075 36.932392 
L 414.70665 36.669292 
L 415.278225 35.819332 
L 415.8498 35.667835 
L 416.421375 34.811021 
L 418.1361 30.748418 
L 418.707674 28.733023 
L 419.279249 27.223574 
L 419.850824 25.160817 
L 420.422399 24.134809 
L 421.565549 21.356097 
L 422.137124 19.296 
L 422.708699 20.437191 
L 423.280274 22.680292 
L 423.851849 23.475423 
L 424.423423 25.678424 
L 426.138148 34.970395 
L 427.281298 42.869224 
L 429.567598 62.74217 
L 430.139173 66.133316 
L 430.710747 70.337187 
L 431.853897 76.726056 
L 432.425472 79.343757 
L 432.997047 84.210902 
L 433.568622 85.978643 
L 434.711772 91.471826 
L 435.283347 93.181362 
L 436.426496 93.466046 
L 436.998071 92.604425 
L 437.569646 91.147043 
L 438.141221 88.089273 
L 439.855946 74.983479 
L 442.71382 46.987782 
L 443.285395 42.733071 
L 443.85697 39.951904 
L 444.428545 37.824395 
L 445.00012 37.356503 
L 445.571695 36.352692 
L 446.14327 39.097954 
L 446.714845 43.494751 
L 447.28642 49.084603 
L 447.857995 56.287117 
L 448.429569 65.64834 
L 449.572719 90.507501 
L 451.287444 133.488439 
L 454.145319 208.633142 
L 455.860043 242.031594 
L 456.431618 250.978016 
L 457.003193 253.897688 
L 457.574768 258.831938 
L 458.146343 261.216 
L 458.717918 259.597403 
L 459.289493 256.038189 
L 459.861068 250.684023 
L 460.432642 243.642826 
L 461.575792 221.479519 
L 462.718942 192.366158 
L 464.433667 141.671236 
L 465.576817 106.856729 
L 466.148391 89.179829 
L 467.863116 51.079539 
L 468.434691 43.132222 
L 469.006266 38.447876 
L 469.577841 35.145215 
L 469.577841 35.145215 
" clip-path="url(#p19c988d21e)" style="fill: none; stroke: #ff7f0e; stroke-width: 1.5; stroke-linecap: square"/>
   </g>
   <g id="line2d_29">
    <path d="M 63.759659 51.395886 
L 64.445549 64.257847 
L 64.674179 66.375511 
L 64.902809 67.238318 
L 65.131439 67.088807 
L 65.588699 65.119428 
L 66.045959 62.963505 
L 66.274589 62.294458 
L 66.503219 61.98587 
L 66.731849 62.025351 
L 66.960479 62.364221 
L 67.417738 63.670835 
L 68.560888 67.4575 
L 68.789518 67.799749 
L 69.018148 67.870225 
L 69.246778 67.629497 
L 69.475408 67.05759 
L 69.932668 64.97013 
L 71.304448 56.754031 
L 71.533078 56.253037 
L 71.761708 56.231841 
L 71.990338 56.707082 
L 72.447598 59.002206 
L 73.819377 68.51157 
L 74.048007 69.066878 
L 74.276637 69.073958 
L 74.505267 68.514691 
L 74.962527 65.828725 
L 75.648417 59.284985 
L 76.334307 52.995057 
L 76.791567 50.666344 
L 77.020197 50.293084 
L 77.248827 50.468629 
L 77.477457 51.162744 
L 77.934717 53.822816 
L 79.306496 63.760902 
L 79.535126 64.515527 
L 79.763756 64.817272 
L 79.992386 64.651332 
L 80.221016 64.031473 
L 80.678276 61.615522 
L 82.278686 50.128581 
L 82.507316 49.360376 
L 82.735946 49.005407 
L 82.964576 49.079979 
L 83.193206 49.578393 
L 83.650466 51.723815 
L 84.336356 56.957212 
L 85.479505 66.268158 
L 85.936765 68.841024 
L 86.394025 70.467567 
L 86.851285 71.233569 
L 87.308545 71.368499 
L 87.994435 71.028926 
L 88.680325 70.771245 
L 89.137585 70.823076 
L 90.052105 71.046809 
L 90.509365 70.775164 
L 90.966625 69.921696 
L 91.423884 68.316356 
L 91.881144 65.911137 
L 92.567034 61.061624 
L 93.938814 50.830539 
L 94.396074 48.72814 
L 94.624704 48.112942 
L 94.853334 47.819675 
L 95.081964 47.858515 
L 95.310594 48.228372 
L 95.767854 49.901 
L 96.453744 54.256544 
L 98.054153 66.004532 
L 98.511413 67.992515 
L 98.968673 68.944374 
L 99.197303 69.026065 
L 99.425933 68.860936 
L 99.883193 67.889515 
L 100.569083 65.373296 
L 101.483603 61.898134 
L 101.940863 60.864496 
L 102.169493 60.631061 
L 102.398123 60.608461 
L 102.626753 60.802711 
L 103.084012 61.823506 
L 103.541272 63.57773 
L 104.684422 69.538583 
L 105.370312 72.650397 
L 105.827572 73.957743 
L 106.056202 74.315408 
L 106.284832 74.46158 
L 106.513462 74.39437 
L 106.742092 74.118929 
L 107.199352 72.997537 
L 107.885242 70.243942 
L 109.257021 64.199081 
L 109.714281 63.012709 
L 110.171541 62.549196 
L 110.400171 62.608566 
L 110.628801 62.85986 
L 111.086061 63.894216 
L 111.771951 66.469272 
L 113.143731 72.370354 
L 113.600991 73.667744 
L 114.058251 74.338018 
L 114.286881 74.414837 
L 114.515511 74.317999 
L 114.97277 73.631659 
L 115.43003 72.385667 
L 116.34455 68.962578 
L 117.25907 65.836867 
L 117.71633 64.919465 
L 117.94496 64.687241 
L 118.17359 64.618674 
L 118.40222 64.716663 
L 118.85948 65.396751 
L 119.31674 66.643808 
L 120.23126 70.145774 
L 121.145779 73.424588 
L 121.603039 74.378921 
L 121.831669 74.598454 
L 122.060299 74.623281 
L 122.288929 74.442082 
L 122.746189 73.442251 
L 123.203449 71.614045 
L 123.889339 67.558443 
L 126.175639 52.140377 
L 126.632899 50.690439 
L 126.861528 50.332078 
L 127.090158 50.230684 
L 127.318788 50.388474 
L 127.547418 50.801814 
L 128.004678 52.352045 
L 128.690568 56.188586 
L 130.976868 71.655353 
L 131.434128 73.240683 
L 131.891388 73.890479 
L 132.120018 73.84629 
L 132.348648 73.556283 
L 132.805907 72.268992 
L 133.263167 70.134671 
L 133.949057 65.732734 
L 135.778097 52.694211 
L 136.463987 49.591012 
L 136.921247 48.50509 
L 137.149877 48.278735 
L 137.378507 48.263053 
L 137.607137 48.452517 
L 138.064397 49.405539 
L 138.521657 51.021717 
L 139.207546 54.333314 
L 141.036586 63.895075 
L 141.722476 66.245236 
L 142.179736 67.210998 
L 142.636996 67.698764 
L 143.094256 67.759836 
L 143.551516 67.480928 
L 144.237406 66.673741 
L 145.151925 65.528037 
L 145.609185 65.181677 
L 146.066445 65.096775 
L 146.523705 65.31536 
L 146.980965 65.842416 
L 147.666855 67.131133 
L 149.724525 71.71365 
L 150.181785 72.155796 
L 150.639044 72.177019 
L 151.096304 71.723714 
L 151.553564 70.775568 
L 152.010824 69.347738 
L 152.696714 66.425005 
L 153.839864 60.279337 
L 154.983014 54.259502 
L 155.668904 51.528105 
L 156.126164 50.27323 
L 156.583423 49.533669 
L 157.040683 49.32534 
L 157.269313 49.416083 
L 157.726573 49.961352 
L 158.183833 50.936691 
L 158.869723 53.01437 
L 161.384653 61.610499 
L 162.070543 62.968637 
L 162.527802 63.510748 
L 162.985062 63.779198 
L 163.442322 63.812128 
L 164.128212 63.542235 
L 165.728622 62.610517 
L 166.185882 62.552006 
L 166.643142 62.667112 
L 167.100402 62.972848 
L 167.786292 63.778819 
L 168.700811 65.349131 
L 170.301221 68.264751 
L 170.987111 69.048792 
L 171.444371 69.29253 
L 171.901631 69.28145 
L 172.358891 69.007337 
L 172.816151 68.479643 
L 173.502041 67.275004 
L 174.64519 64.576318 
L 176.01697 61.433478 
L 176.70286 60.396931 
L 177.16012 60.008761 
L 177.61738 59.88929 
L 178.07464 60.042611 
L 178.5319 60.456161 
L 179.21779 61.499234 
L 180.13231 63.437095 
L 181.961349 67.479145 
L 182.647239 68.516032 
L 183.333129 69.123877 
L 183.790389 69.280098 
L 184.247649 69.249003 
L 184.933539 68.904941 
L 185.848059 68.082218 
L 187.219838 66.7721 
L 187.905728 66.372056 
L 188.591618 66.25401 
L 189.277508 66.435195 
L 189.963398 66.876584 
L 192.478327 68.939847 
L 192.935587 69.044677 
L 193.392847 68.981242 
L 193.850107 68.731934 
L 194.535997 67.997683 
L 195.221887 66.85632 
L 196.136407 64.84368 
L 198.422706 59.480297 
L 199.108596 58.429854 
L 199.565856 57.990633 
L 200.023116 57.783245 
L 200.480376 57.814823 
L 200.937636 58.080993 
L 201.623526 58.883205 
L 202.309416 60.081451 
L 203.681196 63.116716 
L 205.052975 65.984163 
L 205.738865 67.024377 
L 206.424755 67.692967 
L 206.882015 67.916975 
L 207.339275 67.966503 
L 208.025165 67.742873 
L 208.711055 67.228189 
L 209.854205 65.997211 
L 211.225984 64.537403 
L 211.911874 64.039037 
L 212.597764 63.777058 
L 213.283654 63.772514 
L 213.969544 64.013519 
L 214.884064 64.643664 
L 216.713103 66.366319 
L 217.856253 67.280767 
L 218.770773 67.738942 
L 219.685293 67.920101 
L 220.599813 67.861806 
L 221.971593 67.515312 
L 223.800632 67.076502 
L 225.172412 66.998321 
L 227.915972 66.980573 
L 228.830491 66.729219 
L 229.745011 66.269692 
L 230.888161 65.434969 
L 233.403091 63.475892 
L 234.08898 63.195174 
L 234.77487 63.121309 
L 235.46076 63.282607 
L 236.14665 63.686288 
L 237.06117 64.571214 
L 238.20432 66.081331 
L 240.261989 68.931416 
L 241.176509 69.814211 
L 241.862399 70.198544 
L 242.548289 70.315579 
L 243.234179 70.165283 
L 243.920069 69.772066 
L 244.834589 68.953913 
L 247.806778 65.968375 
L 248.492668 65.635462 
L 249.178558 65.536107 
L 249.864448 65.6776 
L 250.550338 66.043831 
L 251.464858 66.812751 
L 254.665677 69.894561 
L 255.351567 70.201676 
L 256.037457 70.29053 
L 256.723347 70.157439 
L 257.409237 69.820558 
L 258.323756 69.120749 
L 261.295946 66.513775 
L 261.981836 66.205213 
L 262.667726 66.09628 
L 263.353616 66.196701 
L 264.039505 66.49722 
L 264.954025 67.158322 
L 266.554435 68.703976 
L 267.926215 69.945998 
L 268.840735 70.512421 
L 269.755254 70.781587 
L 270.441144 70.777591 
L 271.355664 70.523683 
L 272.498814 69.918904 
L 274.785114 68.605435 
L 275.699633 68.354527 
L 276.614153 68.37008 
L 277.528673 68.662628 
L 278.443193 69.193296 
L 280.043603 70.436875 
L 281.415383 71.437823 
L 282.329902 71.88639 
L 283.244422 72.079841 
L 284.158942 71.997708 
L 285.073462 71.666604 
L 286.445242 70.86313 
L 288.274281 69.776864 
L 289.188801 69.46828 
L 290.103321 69.416886 
L 291.017841 69.649606 
L 291.932361 70.143407 
L 293.304141 71.218268 
L 295.36181 72.856792 
L 296.27633 73.306504 
L 297.19085 73.471668 
L 297.87674 73.390362 
L 298.79126 73.021848 
L 299.934409 72.231251 
L 302.677969 70.08383 
L 303.592489 69.717434 
L 304.278379 69.654569 
L 304.964269 69.789831 
L 305.650158 70.118588 
L 306.564678 70.817084 
L 307.936458 72.213446 
L 309.536868 73.793725 
L 310.451388 74.370909 
L 311.137278 74.548302 
L 311.823167 74.464708 
L 312.509057 74.100683 
L 313.194947 73.458415 
L 314.109467 72.2095 
L 315.252617 70.170214 
L 317.996176 65.01708 
L 318.910696 63.875074 
L 319.596586 63.36851 
L 320.282476 63.204157 
L 320.739736 63.292378 
L 321.425626 63.716834 
L 322.111516 64.469782 
L 323.026036 65.906968 
L 324.397815 68.663278 
L 326.455485 72.852023 
L 327.370005 74.251882 
L 328.055895 74.991029 
L 328.741785 75.428267 
L 329.427674 75.553691 
L 330.113564 75.377394 
L 330.799454 74.928921 
L 331.713974 73.992402 
L 333.314384 71.863699 
L 334.686164 70.1445 
L 335.600683 69.336451 
L 336.286573 68.991603 
L 336.972463 68.900424 
L 337.658353 69.068799 
L 338.344243 69.484439 
L 339.258763 70.368088 
L 340.401913 71.833262 
L 342.459582 74.569321 
L 343.374102 75.443156 
L 344.059992 75.849387 
L 344.745882 76.005552 
L 345.431772 75.897177 
L 346.117662 75.527497 
L 346.803552 74.917373 
L 347.718071 73.796793 
L 349.318481 71.360399 
L 350.918891 69.043988 
L 351.833411 68.089939 
L 352.519301 67.641423 
L 353.20519 67.455234 
L 353.89108 67.543072 
L 354.57697 67.89879 
L 355.26286 68.498819 
L 356.17738 69.608842 
L 357.77779 72.022766 
L 359.378199 74.305109 
L 360.292719 75.234218 
L 360.978609 75.66026 
L 361.664499 75.818739 
L 362.350389 75.69495 
L 363.036279 75.290973 
L 363.722169 74.625472 
L 364.636689 73.392211 
L 366.008468 71.050469 
L 368.066138 67.454659 
L 368.980658 66.223395 
L 369.666548 65.560302 
L 370.352438 65.16016 
L 371.038327 65.042896 
L 371.724217 65.212798 
L 372.410107 65.6581 
L 373.095997 66.352409 
L 374.010517 67.598023 
L 375.382297 69.902546 
L 377.668596 73.753364 
L 378.811746 75.174979 
L 379.726266 75.92084 
L 380.412156 76.22982 
L 381.098046 76.326221 
L 381.783936 76.223601 
L 382.698456 75.819788 
L 383.841605 75.000864 
L 387.271055 72.228303 
L 388.414205 71.707187 
L 389.328724 71.516284 
L 390.471874 71.534761 
L 391.843654 71.809625 
L 393.901324 72.250541 
L 395.044473 72.258021 
L 395.958993 72.057637 
L 396.873513 71.656591 
L 398.016663 70.897298 
L 399.845703 69.31854 
L 401.446112 68.010387 
L 402.360632 67.490444 
L 403.275152 67.235481 
L 403.961042 67.252642 
L 404.646932 67.461658 
L 405.332822 67.862776 
L 406.247342 68.676454 
L 407.390491 70.050762 
L 410.591311 74.261612 
L 411.505831 74.986405 
L 412.191721 75.243392 
L 412.87761 75.21085 
L 413.5635 74.86058 
L 414.24939 74.177272 
L 414.93528 73.161516 
L 415.8498 71.318412 
L 416.99295 68.343288 
L 418.593359 63.386904 
L 420.651029 57.030626 
L 421.794179 54.224392 
L 422.708699 52.631343 
L 423.394589 51.89603 
L 423.851849 51.642697 
L 424.309109 51.584688 
L 424.766368 51.723367 
L 425.223628 52.056563 
L 425.909518 52.906928 
L 426.595408 54.145195 
L 427.509928 56.31007 
L 428.881708 60.329578 
L 431.625267 68.731856 
L 432.539787 70.933009 
L 433.454307 72.574001 
L 434.140197 73.37729 
L 434.826087 73.788447 
L 435.283347 73.841453 
L 435.740607 73.720069 
L 436.426496 73.224002 
L 437.112386 72.380375 
L 438.026906 70.796759 
L 439.170056 68.285482 
L 442.370875 60.894134 
L 443.285395 59.422483 
L 443.971285 58.66065 
L 444.657175 58.227598 
L 445.114435 58.129998 
L 445.571695 58.186891 
L 446.257585 58.556379 
L 446.943475 59.247714 
L 447.857995 60.608727 
L 449.001144 62.84887 
L 452.887854 71.057214 
L 453.802374 72.262386 
L 454.488263 72.834661 
L 455.174153 73.096091 
L 455.860043 73.037344 
L 456.545933 72.66256 
L 457.231823 71.988256 
L 458.146343 70.675067 
L 459.289493 68.512992 
L 461.804422 62.947369 
L 463.176202 60.290601 
L 464.090722 58.952569 
L 464.776612 58.243903 
L 465.462502 57.816697 
L 466.148391 57.683882 
L 466.834281 57.846021 
L 467.520171 58.291411 
L 468.206061 58.997076 
L 469.120581 60.284493 
L 469.577841 61.04814 
L 469.577841 61.04814 
" clip-path="url(#p19c988d21e)" style="fill: none; stroke: #2ca02c; stroke-width: 1.5; stroke-linecap: square"/>
   </g>
   <g id="patch_3">
    <path d="M 43.46875 273.312 
L 43.46875 7.2 
" style="fill: none; stroke: #000000; stroke-width: 0.8; stroke-linejoin: miter; stroke-linecap: square"/>
   </g>
   <g id="patch_4">
    <path d="M 489.86875 273.312 
L 489.86875 7.2 
" style="fill: none; stroke: #000000; stroke-width: 0.8; stroke-linejoin: miter; stroke-linecap: square"/>
   </g>
   <g id="patch_5">
    <path d="M 43.46875 273.312 
L 489.86875 273.312 
" style="fill: none; stroke: #000000; stroke-width: 0.8; stroke-linejoin: miter; stroke-linecap: square"/>
   </g>
   <g id="patch_6">
    <path d="M 43.46875 7.2 
L 489.86875 7.2 
" style="fill: none; stroke: #000000; stroke-width: 0.8; stroke-linejoin: miter; stroke-linecap: square"/>
   </g>
   <g id="legend_1">
    <g id="patch_7">
     <path d="M 50.46875 268.312 
L 118.015625 268.312 
Q 120.015625 268.312 120.015625 266.312 
L 120.015625 224.894813 
Q 120.015625 222.894813 118.015625 222.894813 
L 50.46875 222.894813 
Q 48.46875 222.894813 48.46875 224.894813 
L 48.46875 266.312 
Q 48.46875 268.312 50.46875 268.312 
z
" style="fill: #ffffff; opacity: 0.8; stroke: #cccccc; stroke-linejoin: miter"/>
    </g>
    <g id="line2d_30">
     <path d="M 52.46875 230.394813 
L 62.46875 230.394813 
L 72.46875 230.394813 
" style="fill: none; stroke: #1f77b4; stroke-width: 1.5; stroke-linecap: square"/>
    </g>
    <g id="text_16">
     <!-- Chroma -->
     <g transform="translate(80.46875 233.894813) scale(0.1 -0.1)">
      <defs>
       <path id="TimesNewRomanPSMT-43" d="M 3853 4334 
L 3950 2894 
L 3853 2894 
Q 3659 3541 3300 3825 
Q 2941 4109 2438 4109 
Q 2016 4109 1675 3895 
Q 1334 3681 1139 3212 
Q 944 2744 944 2047 
Q 944 1472 1128 1050 
Q 1313 628 1683 403 
Q 2053 178 2528 178 
Q 2941 178 3256 354 
Q 3572 531 3950 1056 
L 4047 994 
Q 3728 428 3303 165 
Q 2878 -97 2294 -97 
Q 1241 -97 663 684 
Q 231 1266 231 2053 
Q 231 2688 515 3219 
Q 800 3750 1298 4042 
Q 1797 4334 2388 4334 
Q 2847 4334 3294 4109 
Q 3425 4041 3481 4041 
Q 3566 4041 3628 4100 
Q 3709 4184 3744 4334 
L 3853 4334 
z
" transform="scale(0.015625)"/>
       <path id="TimesNewRomanPSMT-68" d="M 1041 4444 
L 1041 2350 
Q 1388 2731 1591 2839 
Q 1794 2947 1997 2947 
Q 2241 2947 2416 2812 
Q 2591 2678 2675 2391 
Q 2734 2191 2734 1659 
L 2734 647 
Q 2734 375 2778 275 
Q 2809 200 2884 156 
Q 2959 113 3159 113 
L 3159 0 
L 1753 0 
L 1753 113 
L 1819 113 
Q 2019 113 2097 173 
Q 2175 234 2206 353 
Q 2216 403 2216 647 
L 2216 1659 
Q 2216 2128 2167 2275 
Q 2119 2422 2012 2495 
Q 1906 2569 1756 2569 
Q 1603 2569 1437 2487 
Q 1272 2406 1041 2159 
L 1041 647 
Q 1041 353 1073 281 
Q 1106 209 1195 161 
Q 1284 113 1503 113 
L 1503 0 
L 84 0 
L 84 113 
Q 275 113 384 172 
Q 447 203 484 290 
Q 522 378 522 647 
L 522 3238 
Q 522 3728 498 3840 
Q 475 3953 426 3993 
Q 378 4034 297 4034 
Q 231 4034 84 3984 
L 41 4094 
L 897 4444 
L 1041 4444 
z
" transform="scale(0.015625)"/>
       <path id="TimesNewRomanPSMT-72" d="M 1038 2947 
L 1038 2303 
Q 1397 2947 1775 2947 
Q 1947 2947 2059 2842 
Q 2172 2738 2172 2600 
Q 2172 2478 2090 2393 
Q 2009 2309 1897 2309 
Q 1788 2309 1652 2417 
Q 1516 2525 1450 2525 
Q 1394 2525 1328 2463 
Q 1188 2334 1038 2041 
L 1038 669 
Q 1038 431 1097 309 
Q 1138 225 1241 169 
Q 1344 113 1538 113 
L 1538 0 
L 72 0 
L 72 113 
Q 291 113 397 181 
Q 475 231 506 341 
Q 522 394 522 644 
L 522 1753 
Q 522 2253 501 2348 
Q 481 2444 426 2487 
Q 372 2531 291 2531 
Q 194 2531 72 2484 
L 41 2597 
L 906 2947 
L 1038 2947 
z
" transform="scale(0.015625)"/>
       <path id="TimesNewRomanPSMT-6f" d="M 1600 2947 
Q 2250 2947 2644 2453 
Q 2978 2031 2978 1484 
Q 2978 1100 2793 706 
Q 2609 313 2286 112 
Q 1963 -88 1566 -88 
Q 919 -88 538 428 
Q 216 863 216 1403 
Q 216 1797 411 2186 
Q 606 2575 925 2761 
Q 1244 2947 1600 2947 
z
M 1503 2744 
Q 1338 2744 1170 2645 
Q 1003 2547 900 2300 
Q 797 2053 797 1666 
Q 797 1041 1045 587 
Q 1294 134 1700 134 
Q 2003 134 2200 384 
Q 2397 634 2397 1244 
Q 2397 2006 2069 2444 
Q 1847 2744 1503 2744 
z
" transform="scale(0.015625)"/>
       <path id="TimesNewRomanPSMT-61" d="M 1822 413 
Q 1381 72 1269 19 
Q 1100 -59 909 -59 
Q 613 -59 420 144 
Q 228 347 228 678 
Q 228 888 322 1041 
Q 450 1253 767 1440 
Q 1084 1628 1822 1897 
L 1822 2009 
Q 1822 2438 1686 2597 
Q 1550 2756 1291 2756 
Q 1094 2756 978 2650 
Q 859 2544 859 2406 
L 866 2225 
Q 866 2081 792 2003 
Q 719 1925 600 1925 
Q 484 1925 411 2006 
Q 338 2088 338 2228 
Q 338 2497 613 2722 
Q 888 2947 1384 2947 
Q 1766 2947 2009 2819 
Q 2194 2722 2281 2516 
Q 2338 2381 2338 1966 
L 2338 994 
Q 2338 584 2353 492 
Q 2369 400 2405 369 
Q 2441 338 2488 338 
Q 2538 338 2575 359 
Q 2641 400 2828 588 
L 2828 413 
Q 2478 -56 2159 -56 
Q 2006 -56 1915 50 
Q 1825 156 1822 413 
z
M 1822 616 
L 1822 1706 
Q 1350 1519 1213 1441 
Q 966 1303 859 1153 
Q 753 1003 753 825 
Q 753 600 887 451 
Q 1022 303 1197 303 
Q 1434 303 1822 616 
z
" transform="scale(0.015625)"/>
      </defs>
      <use xlink:href="#TimesNewRomanPSMT-43"/>
      <use xlink:href="#TimesNewRomanPSMT-68" transform="translate(66.699219 0)"/>
      <use xlink:href="#TimesNewRomanPSMT-72" transform="translate(116.699219 0)"/>
      <use xlink:href="#TimesNewRomanPSMT-6f" transform="translate(150 0)"/>
      <use xlink:href="#TimesNewRomanPSMT-6d" transform="translate(200 0)"/>
      <use xlink:href="#TimesNewRomanPSMT-61" transform="translate(277.783203 0)"/>
     </g>
    </g>
    <g id="line2d_31">
     <path d="M 52.46875 244.533875 
L 62.46875 244.533875 
L 72.46875 244.533875 
" style="fill: none; stroke: #ff7f0e; stroke-width: 1.5; stroke-linecap: square"/>
    </g>
    <g id="text_17">
     <!-- CNI -->
     <g transform="translate(80.46875 248.033875) scale(0.1 -0.1)">
      <defs>
       <path id="TimesNewRomanPSMT-4e" d="M -84 4238 
L 1066 4238 
L 3656 1059 
L 3656 3503 
Q 3656 3894 3569 3991 
Q 3453 4122 3203 4122 
L 3056 4122 
L 3056 4238 
L 4531 4238 
L 4531 4122 
L 4381 4122 
Q 4113 4122 4000 3959 
Q 3931 3859 3931 3503 
L 3931 -69 
L 3819 -69 
L 1025 3344 
L 1025 734 
Q 1025 344 1109 247 
Q 1228 116 1475 116 
L 1625 116 
L 1625 0 
L 150 0 
L 150 116 
L 297 116 
Q 569 116 681 278 
Q 750 378 750 734 
L 750 3681 
Q 566 3897 470 3965 
Q 375 4034 191 4094 
Q 100 4122 -84 4122 
L -84 4238 
z
" transform="scale(0.015625)"/>
       <path id="TimesNewRomanPSMT-49" d="M 1975 116 
L 1975 0 
L 159 0 
L 159 116 
L 309 116 
Q 572 116 691 269 
Q 766 369 766 750 
L 766 3488 
Q 766 3809 725 3913 
Q 694 3991 597 4047 
Q 459 4122 309 4122 
L 159 4122 
L 159 4238 
L 1975 4238 
L 1975 4122 
L 1822 4122 
Q 1563 4122 1444 3969 
Q 1366 3869 1366 3488 
L 1366 750 
Q 1366 428 1406 325 
Q 1438 247 1538 191 
Q 1672 116 1822 116 
L 1975 116 
z
" transform="scale(0.015625)"/>
      </defs>
      <use xlink:href="#TimesNewRomanPSMT-43"/>
      <use xlink:href="#TimesNewRomanPSMT-4e" transform="translate(66.699219 0)"/>
      <use xlink:href="#TimesNewRomanPSMT-49" transform="translate(138.916016 0)"/>
     </g>
    </g>
    <g id="line2d_32">
     <path d="M 52.46875 258.672938 
L 62.46875 258.672938 
L 72.46875 258.672938 
" style="fill: none; stroke: #2ca02c; stroke-width: 1.5; stroke-linecap: square"/>
    </g>
    <g id="text_18">
     <!-- Semrock -->
     <g transform="translate(80.46875 262.172938) scale(0.1 -0.1)">
      <defs>
       <path id="TimesNewRomanPSMT-53" d="M 2934 4334 
L 2934 2869 
L 2819 2869 
Q 2763 3291 2617 3541 
Q 2472 3791 2203 3937 
Q 1934 4084 1647 4084 
Q 1322 4084 1109 3886 
Q 897 3688 897 3434 
Q 897 3241 1031 3081 
Q 1225 2847 1953 2456 
Q 2547 2138 2764 1967 
Q 2981 1797 3098 1565 
Q 3216 1334 3216 1081 
Q 3216 600 2842 251 
Q 2469 -97 1881 -97 
Q 1697 -97 1534 -69 
Q 1438 -53 1133 45 
Q 828 144 747 144 
Q 669 144 623 97 
Q 578 50 556 -97 
L 441 -97 
L 441 1356 
L 556 1356 
Q 638 900 775 673 
Q 913 447 1195 297 
Q 1478 147 1816 147 
Q 2206 147 2432 353 
Q 2659 559 2659 841 
Q 2659 997 2573 1156 
Q 2488 1316 2306 1453 
Q 2184 1547 1640 1851 
Q 1097 2156 867 2337 
Q 638 2519 519 2737 
Q 400 2956 400 3219 
Q 400 3675 750 4004 
Q 1100 4334 1641 4334 
Q 1978 4334 2356 4169 
Q 2531 4091 2603 4091 
Q 2684 4091 2736 4139 
Q 2788 4188 2819 4334 
L 2934 4334 
z
" transform="scale(0.015625)"/>
       <path id="TimesNewRomanPSMT-65" d="M 681 1784 
Q 678 1147 991 784 
Q 1303 422 1725 422 
Q 2006 422 2214 576 
Q 2422 731 2563 1106 
L 2659 1044 
Q 2594 616 2278 264 
Q 1963 -88 1488 -88 
Q 972 -88 605 314 
Q 238 716 238 1394 
Q 238 2128 614 2539 
Q 991 2950 1559 2950 
Q 2041 2950 2350 2633 
Q 2659 2316 2659 1784 
L 681 1784 
z
M 681 1966 
L 2006 1966 
Q 1991 2241 1941 2353 
Q 1863 2528 1708 2628 
Q 1553 2728 1384 2728 
Q 1125 2728 920 2526 
Q 716 2325 681 1966 
z
" transform="scale(0.015625)"/>
       <path id="TimesNewRomanPSMT-63" d="M 2631 1088 
Q 2516 522 2178 217 
Q 1841 -88 1431 -88 
Q 944 -88 581 321 
Q 219 731 219 1428 
Q 219 2103 620 2525 
Q 1022 2947 1584 2947 
Q 2006 2947 2278 2723 
Q 2550 2500 2550 2259 
Q 2550 2141 2473 2067 
Q 2397 1994 2259 1994 
Q 2075 1994 1981 2113 
Q 1928 2178 1911 2362 
Q 1894 2547 1784 2644 
Q 1675 2738 1481 2738 
Q 1169 2738 978 2506 
Q 725 2200 725 1697 
Q 725 1184 976 792 
Q 1228 400 1656 400 
Q 1963 400 2206 609 
Q 2378 753 2541 1131 
L 2631 1088 
z
" transform="scale(0.015625)"/>
       <path id="TimesNewRomanPSMT-6b" d="M 1047 4444 
L 1047 1594 
L 1775 2259 
Q 2006 2472 2044 2528 
Q 2069 2566 2069 2603 
Q 2069 2666 2017 2711 
Q 1966 2756 1847 2763 
L 1847 2863 
L 3091 2863 
L 3091 2763 
Q 2834 2756 2664 2684 
Q 2494 2613 2291 2428 
L 1556 1750 
L 2291 822 
Q 2597 438 2703 334 
Q 2853 188 2966 144 
Q 3044 113 3238 113 
L 3238 0 
L 1847 0 
L 1847 113 
Q 1966 116 2008 148 
Q 2050 181 2050 241 
Q 2050 313 1925 472 
L 1047 1594 
L 1047 644 
Q 1047 366 1086 278 
Q 1125 191 1197 153 
Q 1269 116 1509 113 
L 1509 0 
L 53 0 
L 53 113 
Q 272 113 381 166 
Q 447 200 481 272 
Q 528 375 528 628 
L 528 3234 
Q 528 3731 506 3842 
Q 484 3953 434 3995 
Q 384 4038 303 4038 
Q 238 4038 106 3984 
L 53 4094 
L 903 4444 
L 1047 4444 
z
" transform="scale(0.015625)"/>
      </defs>
      <use xlink:href="#TimesNewRomanPSMT-53"/>
      <use xlink:href="#TimesNewRomanPSMT-65" transform="translate(55.615234 0)"/>
      <use xlink:href="#TimesNewRomanPSMT-6d" transform="translate(100 0)"/>
      <use xlink:href="#TimesNewRomanPSMT-72" transform="translate(177.783203 0)"/>
      <use xlink:href="#TimesNewRomanPSMT-6f" transform="translate(211.083984 0)"/>
      <use xlink:href="#TimesNewRomanPSMT-63" transform="translate(261.083984 0)"/>
      <use xlink:href="#TimesNewRomanPSMT-6b" transform="translate(305.46875 0)"/>
     </g>
    </g>
   </g>
  </g>
 </g>
 <defs>
  <clipPath id="p19c988d21e">
   <rect x="43.46875" y="7.2" width="446.4" height="266.112"/>
  </clipPath>
 </defs>
</svg>
