<?xml version="1.0" encoding="utf-8" standalone="no"?>
<!DOCTYPE svg PUBLIC "-//W3C//DTD SVG 1.1//EN"
  "http://www.w3.org/Graphics/SVG/1.1/DTD/svg11.dtd">
<svg xmlns:xlink="http://www.w3.org/1999/xlink" width="576pt" height="345.6pt" viewBox="0 0 576 345.6" xmlns="http://www.w3.org/2000/svg" version="1.1">
 <metadata>
  <rdf:RDF xmlns:dc="http://purl.org/dc/elements/1.1/" xmlns:cc="http://creativecommons.org/ns#" xmlns:rdf="http://www.w3.org/1999/02/22-rdf-syntax-ns#">
   <cc:Work>
    <dc:type rdf:resource="http://purl.org/dc/dcmitype/StillImage"/>
    <dc:date>2025-12-28T21:53:17.650193</dc:date>
    <dc:format>image/svg+xml</dc:format>
    <dc:creator>
     <cc:Agent>
      <dc:title>Matplotlib v3.10.8, https://matplotlib.org/</dc:title>
     </cc:Agent>
    </dc:creator>
   </cc:Work>
  </rdf:RDF>
 </metadata>
 <defs>
  <style type="text/css">*{stroke-linejoin: round; stroke-linecap: butt}</style>
 </defs>
 <g id="figure_1">
  <g id="patch_1">
   <path d="M 0 345.6 
L 576 345.6 
L 576 0 
L 0 0 
z
" style="fill: #ffffff"/>
  </g>
  <g id="axes_1">
   <g id="patch_2">
    <path d="M 47.135 303.960625 
L 565.2 303.960625 
L 565.2 10.8 
L 47.135 10.8 
z
" style="fill: #ffffff"/>
   </g>
   <g id="matplotlib.axis_1">
    <g id="xtick_1">
     <g id="line2d_1">
      <path d="M 88.79757 303.960625 
L 88.79757 10.8 
" clip-path="url(#pb7ab83de85)" style="fill: none; stroke: #b0b0b0; stroke-width: 0.8; stroke-linecap: square"/>
     </g>
     <g id="line2d_2">
      <defs>
       <path id="m3b5eb3f129" d="M 0 0 
L 0 3.5 
" style="stroke: #000000; stroke-width: 0.8"/>
      </defs>
      <g>
       <use xlink:href="#m3b5eb3f129" x="88.79757" y="303.960625" style="stroke: #000000; stroke-width: 0.8"/>
      </g>
     </g>
     <g id="text_1">
      <!-- 800 -->
      <g transform="translate(81.29757 317.904375) scale(0.1 -0.1)">
       <defs>
        <path id="TimesNewRomanPSMT-38" d="M 1228 2134 
Q 725 2547 579 2797 
Q 434 3047 434 3316 
Q 434 3728 753 4026 
Q 1072 4325 1600 4325 
Q 2113 4325 2425 4047 
Q 2738 3769 2738 3413 
Q 2738 3175 2569 2928 
Q 2400 2681 1866 2347 
Q 2416 1922 2594 1678 
Q 2831 1359 2831 1006 
Q 2831 559 2490 242 
Q 2150 -75 1597 -75 
Q 994 -75 656 303 
Q 388 606 388 966 
Q 388 1247 577 1523 
Q 766 1800 1228 2134 
z
M 1719 2469 
Q 2094 2806 2194 3001 
Q 2294 3197 2294 3444 
Q 2294 3772 2109 3958 
Q 1925 4144 1606 4144 
Q 1288 4144 1088 3959 
Q 888 3775 888 3528 
Q 888 3366 970 3203 
Q 1053 3041 1206 2894 
L 1719 2469 
z
M 1375 2016 
Q 1116 1797 991 1539 
Q 866 1281 866 981 
Q 866 578 1086 336 
Q 1306 94 1647 94 
Q 1984 94 2187 284 
Q 2391 475 2391 747 
Q 2391 972 2272 1150 
Q 2050 1481 1375 2016 
z
" transform="scale(0.015625)"/>
        <path id="TimesNewRomanPSMT-30" d="M 231 2094 
Q 231 2819 450 3342 
Q 669 3866 1031 4122 
Q 1313 4325 1613 4325 
Q 2100 4325 2488 3828 
Q 2972 3213 2972 2159 
Q 2972 1422 2759 906 
Q 2547 391 2217 158 
Q 1888 -75 1581 -75 
Q 975 -75 572 641 
Q 231 1244 231 2094 
z
M 844 2016 
Q 844 1141 1059 588 
Q 1238 122 1591 122 
Q 1759 122 1940 273 
Q 2122 425 2216 781 
Q 2359 1319 2359 2297 
Q 2359 3022 2209 3506 
Q 2097 3866 1919 4016 
Q 1791 4119 1609 4119 
Q 1397 4119 1231 3928 
Q 1006 3669 925 3112 
Q 844 2556 844 2016 
z
" transform="scale(0.015625)"/>
       </defs>
       <use xlink:href="#TimesNewRomanPSMT-38"/>
       <use xlink:href="#TimesNewRomanPSMT-30" transform="translate(50 0)"/>
       <use xlink:href="#TimesNewRomanPSMT-30" transform="translate(100 0)"/>
      </g>
     </g>
    </g>
    <g id="xtick_2">
     <g id="line2d_3">
      <path d="M 153.491001 303.960625 
L 153.491001 10.8 
" clip-path="url(#pb7ab83de85)" style="fill: none; stroke: #b0b0b0; stroke-width: 0.8; stroke-linecap: square"/>
     </g>
     <g id="line2d_4">
      <g>
       <use xlink:href="#m3b5eb3f129" x="153.491001" y="303.960625" style="stroke: #000000; stroke-width: 0.8"/>
      </g>
     </g>
     <g id="text_2">
      <!-- 850 -->
      <g transform="translate(145.991001 317.904375) scale(0.1 -0.1)">
       <defs>
        <path id="TimesNewRomanPSMT-35" d="M 2778 4238 
L 2534 3706 
L 1259 3706 
L 981 3138 
Q 1809 3016 2294 2522 
Q 2709 2097 2709 1522 
Q 2709 1188 2573 903 
Q 2438 619 2231 419 
Q 2025 219 1772 97 
Q 1413 -75 1034 -75 
Q 653 -75 479 54 
Q 306 184 306 341 
Q 306 428 378 495 
Q 450 563 559 563 
Q 641 563 702 538 
Q 763 513 909 409 
Q 1144 247 1384 247 
Q 1750 247 2026 523 
Q 2303 800 2303 1197 
Q 2303 1581 2056 1914 
Q 1809 2247 1375 2428 
Q 1034 2569 447 2591 
L 1259 4238 
L 2778 4238 
z
" transform="scale(0.015625)"/>
       </defs>
       <use xlink:href="#TimesNewRomanPSMT-38"/>
       <use xlink:href="#TimesNewRomanPSMT-35" transform="translate(50 0)"/>
       <use xlink:href="#TimesNewRomanPSMT-30" transform="translate(100 0)"/>
      </g>
     </g>
    </g>
    <g id="xtick_3">
     <g id="line2d_5">
      <path d="M 218.184433 303.960625 
L 218.184433 10.8 
" clip-path="url(#pb7ab83de85)" style="fill: none; stroke: #b0b0b0; stroke-width: 0.8; stroke-linecap: square"/>
     </g>
     <g id="line2d_6">
      <g>
       <use xlink:href="#m3b5eb3f129" x="218.184433" y="303.960625" style="stroke: #000000; stroke-width: 0.8"/>
      </g>
     </g>
     <g id="text_3">
      <!-- 900 -->
      <g transform="translate(210.684433 317.904375) scale(0.1 -0.1)">
       <defs>
        <path id="TimesNewRomanPSMT-39" d="M 338 -88 
L 338 28 
Q 744 34 1094 217 
Q 1444 400 1770 856 
Q 2097 1313 2225 1859 
Q 1734 1544 1338 1544 
Q 891 1544 572 1889 
Q 253 2234 253 2806 
Q 253 3363 572 3797 
Q 956 4325 1575 4325 
Q 2097 4325 2469 3894 
Q 2925 3359 2925 2575 
Q 2925 1869 2578 1258 
Q 2231 647 1613 244 
Q 1109 -88 516 -88 
L 338 -88 
z
M 2275 2091 
Q 2331 2497 2331 2741 
Q 2331 3044 2228 3395 
Q 2125 3747 1936 3934 
Q 1747 4122 1506 4122 
Q 1228 4122 1018 3872 
Q 809 3622 809 3128 
Q 809 2469 1088 2097 
Q 1291 1828 1588 1828 
Q 1731 1828 1928 1897 
Q 2125 1966 2275 2091 
z
" transform="scale(0.015625)"/>
       </defs>
       <use xlink:href="#TimesNewRomanPSMT-39"/>
       <use xlink:href="#TimesNewRomanPSMT-30" transform="translate(50 0)"/>
       <use xlink:href="#TimesNewRomanPSMT-30" transform="translate(100 0)"/>
      </g>
     </g>
    </g>
    <g id="xtick_4">
     <g id="line2d_7">
      <path d="M 282.877865 303.960625 
L 282.877865 10.8 
" clip-path="url(#pb7ab83de85)" style="fill: none; stroke: #b0b0b0; stroke-width: 0.8; stroke-linecap: square"/>
     </g>
     <g id="line2d_8">
      <g>
       <use xlink:href="#m3b5eb3f129" x="282.877865" y="303.960625" style="stroke: #000000; stroke-width: 0.8"/>
      </g>
     </g>
     <g id="text_4">
      <!-- 950 -->
      <g transform="translate(275.377865 317.904375) scale(0.1 -0.1)">
       <use xlink:href="#TimesNewRomanPSMT-39"/>
       <use xlink:href="#TimesNewRomanPSMT-35" transform="translate(50 0)"/>
       <use xlink:href="#TimesNewRomanPSMT-30" transform="translate(100 0)"/>
      </g>
     </g>
    </g>
    <g id="xtick_5">
     <g id="line2d_9">
      <path d="M 347.571296 303.960625 
L 347.571296 10.8 
" clip-path="url(#pb7ab83de85)" style="fill: none; stroke: #b0b0b0; stroke-width: 0.8; stroke-linecap: square"/>
     </g>
     <g id="line2d_10">
      <g>
       <use xlink:href="#m3b5eb3f129" x="347.571296" y="303.960625" style="stroke: #000000; stroke-width: 0.8"/>
      </g>
     </g>
     <g id="text_5">
      <!-- 1000 -->
      <g transform="translate(337.571296 317.904375) scale(0.1 -0.1)">
       <defs>
        <path id="TimesNewRomanPSMT-31" d="M 750 3822 
L 1781 4325 
L 1884 4325 
L 1884 747 
Q 1884 391 1914 303 
Q 1944 216 2037 169 
Q 2131 122 2419 116 
L 2419 0 
L 825 0 
L 825 116 
Q 1125 122 1212 167 
Q 1300 213 1334 289 
Q 1369 366 1369 747 
L 1369 3034 
Q 1369 3497 1338 3628 
Q 1316 3728 1258 3775 
Q 1200 3822 1119 3822 
Q 1003 3822 797 3725 
L 750 3822 
z
" transform="scale(0.015625)"/>
       </defs>
       <use xlink:href="#TimesNewRomanPSMT-31"/>
       <use xlink:href="#TimesNewRomanPSMT-30" transform="translate(50 0)"/>
       <use xlink:href="#TimesNewRomanPSMT-30" transform="translate(100 0)"/>
       <use xlink:href="#TimesNewRomanPSMT-30" transform="translate(150 0)"/>
      </g>
     </g>
    </g>
    <g id="xtick_6">
     <g id="line2d_11">
      <path d="M 412.264728 303.960625 
L 412.264728 10.8 
" clip-path="url(#pb7ab83de85)" style="fill: none; stroke: #b0b0b0; stroke-width: 0.8; stroke-linecap: square"/>
     </g>
     <g id="line2d_12">
      <g>
       <use xlink:href="#m3b5eb3f129" x="412.264728" y="303.960625" style="stroke: #000000; stroke-width: 0.8"/>
      </g>
     </g>
     <g id="text_6">
      <!-- 1050 -->
      <g transform="translate(402.264728 317.904375) scale(0.1 -0.1)">
       <use xlink:href="#TimesNewRomanPSMT-31"/>
       <use xlink:href="#TimesNewRomanPSMT-30" transform="translate(50 0)"/>
       <use xlink:href="#TimesNewRomanPSMT-35" transform="translate(100 0)"/>
       <use xlink:href="#TimesNewRomanPSMT-30" transform="translate(150 0)"/>
      </g>
     </g>
    </g>
    <g id="xtick_7">
     <g id="line2d_13">
      <path d="M 476.958159 303.960625 
L 476.958159 10.8 
" clip-path="url(#pb7ab83de85)" style="fill: none; stroke: #b0b0b0; stroke-width: 0.8; stroke-linecap: square"/>
     </g>
     <g id="line2d_14">
      <g>
       <use xlink:href="#m3b5eb3f129" x="476.958159" y="303.960625" style="stroke: #000000; stroke-width: 0.8"/>
      </g>
     </g>
     <g id="text_7">
      <!-- 1100 -->
      <g transform="translate(467.145659 317.904375) scale(0.1 -0.1)">
       <use xlink:href="#TimesNewRomanPSMT-31"/>
       <use xlink:href="#TimesNewRomanPSMT-31" transform="translate(46.25 0)"/>
       <use xlink:href="#TimesNewRomanPSMT-30" transform="translate(96.25 0)"/>
       <use xlink:href="#TimesNewRomanPSMT-30" transform="translate(146.25 0)"/>
      </g>
     </g>
    </g>
    <g id="xtick_8">
     <g id="line2d_15">
      <path d="M 541.651591 303.960625 
L 541.651591 10.8 
" clip-path="url(#pb7ab83de85)" style="fill: none; stroke: #b0b0b0; stroke-width: 0.8; stroke-linecap: square"/>
     </g>
     <g id="line2d_16">
      <g>
       <use xlink:href="#m3b5eb3f129" x="541.651591" y="303.960625" style="stroke: #000000; stroke-width: 0.8"/>
      </g>
     </g>
     <g id="text_8">
      <!-- 1150 -->
      <g transform="translate(531.839091 317.904375) scale(0.1 -0.1)">
       <use xlink:href="#TimesNewRomanPSMT-31"/>
       <use xlink:href="#TimesNewRomanPSMT-31" transform="translate(46.25 0)"/>
       <use xlink:href="#TimesNewRomanPSMT-35" transform="translate(96.25 0)"/>
       <use xlink:href="#TimesNewRomanPSMT-30" transform="translate(146.25 0)"/>
      </g>
     </g>
    </g>
    <g id="text_9">
     <!-- 波长 (nm) -->
     <g transform="translate(285.19875 332.21375) scale(0.1 -0.1)">
      <defs>
       <path id="SimSong-Regular-6ce2" d="M 5600 4326 
C 5568 4326 5523 4301 5472 4256 
L 5312 4090 
L 4243 4090 
L 4243 4851 
C 4243 4902 4275 4941 4352 4966 
C 4454 4998 4518 5043 4518 5101 
C 4518 5126 4442 5152 4314 5171 
C 4122 5197 3962 5216 3827 5229 
C 3840 5069 3853 4890 3853 4691 
L 3853 4090 
L 2771 4090 
C 2669 4147 2534 4211 2355 4282 
C 2381 4090 2400 3770 2400 3328 
C 2400 2246 2330 1434 2189 896 
C 2074 454 1862 -13 1542 -512 
L 1626 -576 
C 1907 -262 2131 38 2298 339 
C 2490 723 2630 1139 2707 1594 
C 2733 1818 2758 2067 2771 2342 
L 3136 2342 
C 3264 1779 3437 1350 3635 1050 
C 3731 890 3834 742 3949 614 
C 3776 448 3597 294 3418 166 
C 3110 -32 2694 -256 2144 -518 
L 2202 -602 
C 2752 -435 3226 -243 3635 -13 
C 3827 96 4013 224 4186 371 
C 4218 339 4256 301 4301 269 
C 4614 0 4909 -198 5190 -339 
C 5434 -474 5613 -544 5702 -544 
C 5728 -544 5754 -506 5798 -429 
C 5824 -339 5901 -282 6035 -262 
L 6054 -205 
C 5510 -26 5024 205 4589 499 
C 4538 525 4493 563 4442 602 
L 4608 774 
C 4877 1056 5158 1517 5434 2163 
C 5446 2195 5491 2227 5568 2266 
L 5568 2266 
C 5638 2291 5683 2323 5683 2362 
C 5683 2400 5613 2470 5498 2560 
C 5376 2650 5299 2701 5274 2701 
C 5242 2701 5184 2675 5107 2624 
C 5069 2586 5018 2554 4966 2515 
L 4243 2515 
L 4243 3917 
L 5363 3917 
C 5222 3565 5069 3251 4896 2982 
L 4966 2925 
C 5235 3168 5491 3418 5734 3686 
C 5779 3731 5843 3757 5933 3770 
C 6010 3776 6054 3808 6054 3859 
C 6054 3923 5984 4013 5862 4141 
C 5734 4262 5645 4326 5600 4326 
z
M 883 5082 
L 819 5018 
C 1062 4826 1235 4595 1350 4314 
C 1395 4154 1485 4077 1600 4077 
C 1651 4077 1696 4109 1734 4173 
C 1773 4237 1805 4307 1805 4371 
C 1805 4480 1722 4595 1581 4710 
C 1440 4826 1210 4947 883 5082 
L 883 5082 
z
M 2778 2515 
C 2790 2765 2797 3034 2797 3328 
L 2797 3917 
L 3853 3917 
L 3853 2515 
L 2778 2515 
L 2778 2515 
z
M 1939 3827 
L 966 1517 
C 934 1459 877 1408 794 1382 
C 710 1363 544 1357 288 1357 
L 269 1254 
C 614 1222 813 1184 883 1146 
C 934 1114 960 1062 960 998 
C 960 851 954 659 941 416 
C 902 45 890 -192 890 -307 
C 902 -480 1011 -570 1178 -570 
C 1306 -570 1389 -480 1408 -307 
C 1408 -179 1382 70 1344 467 
C 1331 762 1325 992 1325 1158 
C 1325 1306 1376 1594 1491 2016 
C 1619 2438 1811 3034 2054 3782 
L 1939 3827 
L 1939 3827 
z
M 307 3757 
L 243 3693 
C 474 3488 634 3238 749 2944 
C 794 2778 883 2701 998 2701 
C 1050 2701 1094 2733 1139 2797 
C 1178 2861 1210 2931 1210 2995 
C 1210 3110 1126 3232 986 3354 
C 851 3482 627 3616 307 3757 
L 307 3757 
z
M 3258 2342 
L 5043 2342 
C 4800 1747 4550 1293 4294 979 
L 4160 832 
C 3994 986 3846 1165 3725 1370 
C 3526 1664 3379 1990 3264 2342 
L 3258 2342 
z
" transform="scale(0.015625)"/>
       <path id="SimSong-Regular-957f" d="M 1491 5178 
C 1517 5050 1536 4851 1536 4582 
L 1536 2643 
L 1139 2643 
C 794 2643 531 2662 339 2701 
L 454 2419 
C 595 2451 819 2464 1139 2464 
L 1536 2464 
L 1536 179 
C 1536 51 1510 -38 1446 -109 
C 1395 -147 1363 -179 1363 -218 
C 1363 -262 1446 -358 1600 -512 
C 1651 -563 1709 -595 1760 -595 
C 1798 -589 1837 -550 1856 -480 
C 1914 -365 1997 -282 2099 -230 
L 3398 531 
L 3341 602 
L 1958 19 
L 1958 2464 
L 2950 2464 
C 3046 2035 3200 1664 3398 1344 
C 3565 1088 3789 832 4058 582 
C 4320 352 4653 134 5050 -64 
C 5357 -218 5574 -294 5677 -294 
C 5690 -294 5722 -250 5760 -160 
C 5811 -51 5901 19 6054 64 
L 6080 122 
C 5498 294 5024 474 4666 672 
C 4294 864 3968 1107 3699 1395 
C 3456 1664 3258 2022 3104 2464 
L 5587 2464 
C 5645 2464 5683 2490 5683 2554 
C 5683 2579 5613 2662 5491 2797 
C 5363 2925 5274 2995 5216 2995 
C 5197 2995 5139 2944 5050 2848 
C 4960 2739 4896 2669 4864 2643 
L 1958 2643 
L 1958 4755 
C 1965 4832 1990 4883 2054 4915 
C 2157 4954 2227 4998 2227 5056 
C 2227 5088 2182 5107 2106 5120 
L 1491 5178 
L 1491 5178 
z
M 4742 4582 
L 4877 4570 
C 4902 4570 4928 4589 4934 4627 
C 4934 4666 4877 4730 4781 4819 
L 4454 5082 
C 3846 4314 3066 3661 2118 3123 
L 2176 3046 
C 3258 3539 4115 4051 4742 4576 
L 4742 4582 
z
" transform="scale(0.015625)"/>
       <path id="TimesNewRomanPSMT-20" transform="scale(0.015625)"/>
       <path id="TimesNewRomanPSMT-28" d="M 1988 -1253 
L 1988 -1369 
Q 1516 -1131 1200 -813 
Q 750 -359 506 256 
Q 263 872 263 1534 
Q 263 2503 741 3301 
Q 1219 4100 1988 4444 
L 1988 4313 
Q 1603 4100 1356 3731 
Q 1109 3363 987 2797 
Q 866 2231 866 1616 
Q 866 947 969 400 
Q 1050 -31 1165 -292 
Q 1281 -553 1476 -793 
Q 1672 -1034 1988 -1253 
z
" transform="scale(0.015625)"/>
       <path id="TimesNewRomanPSMT-6e" d="M 1034 2341 
Q 1538 2947 1994 2947 
Q 2228 2947 2397 2830 
Q 2566 2713 2666 2444 
Q 2734 2256 2734 1869 
L 2734 647 
Q 2734 375 2778 278 
Q 2813 200 2889 156 
Q 2966 113 3172 113 
L 3172 0 
L 1756 0 
L 1756 113 
L 1816 113 
Q 2016 113 2095 173 
Q 2175 234 2206 353 
Q 2219 400 2219 647 
L 2219 1819 
Q 2219 2209 2117 2386 
Q 2016 2563 1775 2563 
Q 1403 2563 1034 2156 
L 1034 647 
Q 1034 356 1069 288 
Q 1113 197 1189 155 
Q 1266 113 1500 113 
L 1500 0 
L 84 0 
L 84 113 
L 147 113 
Q 366 113 442 223 
Q 519 334 519 647 
L 519 1709 
Q 519 2225 495 2337 
Q 472 2450 423 2490 
Q 375 2531 294 2531 
Q 206 2531 84 2484 
L 38 2597 
L 900 2947 
L 1034 2947 
L 1034 2341 
z
" transform="scale(0.015625)"/>
       <path id="TimesNewRomanPSMT-6d" d="M 1050 2338 
Q 1363 2650 1419 2697 
Q 1559 2816 1721 2881 
Q 1884 2947 2044 2947 
Q 2313 2947 2506 2790 
Q 2700 2634 2766 2338 
Q 3088 2713 3309 2830 
Q 3531 2947 3766 2947 
Q 3994 2947 4170 2830 
Q 4347 2713 4450 2447 
Q 4519 2266 4519 1878 
L 4519 647 
Q 4519 378 4559 278 
Q 4591 209 4675 161 
Q 4759 113 4950 113 
L 4950 0 
L 3538 0 
L 3538 113 
L 3597 113 
Q 3781 113 3884 184 
Q 3956 234 3988 344 
Q 4000 397 4000 647 
L 4000 1878 
Q 4000 2228 3916 2372 
Q 3794 2572 3525 2572 
Q 3359 2572 3192 2489 
Q 3025 2406 2788 2181 
L 2781 2147 
L 2788 2013 
L 2788 647 
Q 2788 353 2820 281 
Q 2853 209 2943 161 
Q 3034 113 3253 113 
L 3253 0 
L 1806 0 
L 1806 113 
Q 2044 113 2133 169 
Q 2222 225 2256 338 
Q 2272 391 2272 647 
L 2272 1878 
Q 2272 2228 2169 2381 
Q 2031 2581 1784 2581 
Q 1616 2581 1450 2491 
Q 1191 2353 1050 2181 
L 1050 647 
Q 1050 366 1089 281 
Q 1128 197 1204 155 
Q 1281 113 1516 113 
L 1516 0 
L 100 0 
L 100 113 
Q 297 113 375 155 
Q 453 197 493 289 
Q 534 381 534 647 
L 534 1741 
Q 534 2213 506 2350 
Q 484 2453 437 2492 
Q 391 2531 309 2531 
Q 222 2531 100 2484 
L 53 2597 
L 916 2947 
L 1050 2947 
L 1050 2338 
z
" transform="scale(0.015625)"/>
       <path id="TimesNewRomanPSMT-29" d="M 144 4313 
L 144 4444 
Q 619 4209 934 3891 
Q 1381 3434 1625 2820 
Q 1869 2206 1869 1541 
Q 1869 572 1392 -226 
Q 916 -1025 144 -1369 
L 144 -1253 
Q 528 -1038 776 -670 
Q 1025 -303 1145 264 
Q 1266 831 1266 1447 
Q 1266 2113 1163 2663 
Q 1084 3094 967 3353 
Q 850 3613 656 3853 
Q 463 4094 144 4313 
z
" transform="scale(0.015625)"/>
      </defs>
      <use xlink:href="#SimSong-Regular-6ce2"/>
      <use xlink:href="#SimSong-Regular-957f" transform="translate(99.999985 0)"/>
      <use xlink:href="#TimesNewRomanPSMT-20" transform="translate(199.999969 0)"/>
      <use xlink:href="#TimesNewRomanPSMT-28" transform="translate(224.999969 0)"/>
      <use xlink:href="#TimesNewRomanPSMT-6e" transform="translate(258.300751 0)"/>
      <use xlink:href="#TimesNewRomanPSMT-6d" transform="translate(308.300751 0)"/>
      <use xlink:href="#TimesNewRomanPSMT-29" transform="translate(386.083954 0)"/>
     </g>
    </g>
   </g>
   <g id="matplotlib.axis_2">
    <g id="ytick_1">
     <g id="line2d_17">
      <path d="M 47.135 290.635145 
L 565.2 290.635145 
" clip-path="url(#pb7ab83de85)" style="fill: none; stroke: #b0b0b0; stroke-width: 0.8; stroke-linecap: square"/>
     </g>
     <g id="line2d_18">
      <defs>
       <path id="m2f551c490f" d="M 0 0 
L -3.5 0 
" style="stroke: #000000; stroke-width: 0.8"/>
      </defs>
      <g>
       <use xlink:href="#m2f551c490f" x="47.135" y="290.635145" style="stroke: #000000; stroke-width: 0.8"/>
      </g>
     </g>
     <g id="text_10">
      <!-- 0 -->
      <g transform="translate(35.135 294.10702) scale(0.1 -0.1)">
       <use xlink:href="#TimesNewRomanPSMT-30"/>
      </g>
     </g>
    </g>
    <g id="ytick_2">
     <g id="line2d_19">
      <path d="M 47.135 237.255592 
L 565.2 237.255592 
" clip-path="url(#pb7ab83de85)" style="fill: none; stroke: #b0b0b0; stroke-width: 0.8; stroke-linecap: square"/>
     </g>
     <g id="line2d_20">
      <g>
       <use xlink:href="#m2f551c490f" x="47.135" y="237.255592" style="stroke: #000000; stroke-width: 0.8"/>
      </g>
     </g>
     <g id="text_11">
      <!-- 20 -->
      <g transform="translate(30.135 240.727467) scale(0.1 -0.1)">
       <defs>
        <path id="TimesNewRomanPSMT-32" d="M 2934 816 
L 2638 0 
L 138 0 
L 138 116 
Q 1241 1122 1691 1759 
Q 2141 2397 2141 2925 
Q 2141 3328 1894 3587 
Q 1647 3847 1303 3847 
Q 991 3847 742 3664 
Q 494 3481 375 3128 
L 259 3128 
Q 338 3706 661 4015 
Q 984 4325 1469 4325 
Q 1984 4325 2329 3994 
Q 2675 3663 2675 3213 
Q 2675 2891 2525 2569 
Q 2294 2063 1775 1497 
Q 997 647 803 472 
L 1909 472 
Q 2247 472 2383 497 
Q 2519 522 2628 598 
Q 2738 675 2819 816 
L 2934 816 
z
" transform="scale(0.015625)"/>
       </defs>
       <use xlink:href="#TimesNewRomanPSMT-32"/>
       <use xlink:href="#TimesNewRomanPSMT-30" transform="translate(50 0)"/>
      </g>
     </g>
    </g>
    <g id="ytick_3">
     <g id="line2d_21">
      <path d="M 47.135 183.876039 
L 565.2 183.876039 
" clip-path="url(#pb7ab83de85)" style="fill: none; stroke: #b0b0b0; stroke-width: 0.8; stroke-linecap: square"/>
     </g>
     <g id="line2d_22">
      <g>
       <use xlink:href="#m2f551c490f" x="47.135" y="183.876039" style="stroke: #000000; stroke-width: 0.8"/>
      </g>
     </g>
     <g id="text_12">
      <!-- 40 -->
      <g transform="translate(30.135 187.347914) scale(0.1 -0.1)">
       <defs>
        <path id="TimesNewRomanPSMT-34" d="M 2978 1563 
L 2978 1119 
L 2409 1119 
L 2409 0 
L 1894 0 
L 1894 1119 
L 100 1119 
L 100 1519 
L 2066 4325 
L 2409 4325 
L 2409 1563 
L 2978 1563 
z
M 1894 1563 
L 1894 3666 
L 406 1563 
L 1894 1563 
z
" transform="scale(0.015625)"/>
       </defs>
       <use xlink:href="#TimesNewRomanPSMT-34"/>
       <use xlink:href="#TimesNewRomanPSMT-30" transform="translate(50 0)"/>
      </g>
     </g>
    </g>
    <g id="ytick_4">
     <g id="line2d_23">
      <path d="M 47.135 130.496486 
L 565.2 130.496486 
" clip-path="url(#pb7ab83de85)" style="fill: none; stroke: #b0b0b0; stroke-width: 0.8; stroke-linecap: square"/>
     </g>
     <g id="line2d_24">
      <g>
       <use xlink:href="#m2f551c490f" x="47.135" y="130.496486" style="stroke: #000000; stroke-width: 0.8"/>
      </g>
     </g>
     <g id="text_13">
      <!-- 60 -->
      <g transform="translate(30.135 133.968361) scale(0.1 -0.1)">
       <defs>
        <path id="TimesNewRomanPSMT-36" d="M 2869 4325 
L 2869 4209 
Q 2456 4169 2195 4045 
Q 1934 3922 1679 3669 
Q 1425 3416 1258 3105 
Q 1091 2794 978 2366 
Q 1428 2675 1881 2675 
Q 2316 2675 2634 2325 
Q 2953 1975 2953 1425 
Q 2953 894 2631 456 
Q 2244 -75 1606 -75 
Q 1172 -75 869 213 
Q 275 772 275 1663 
Q 275 2231 503 2743 
Q 731 3256 1154 3653 
Q 1578 4050 1965 4187 
Q 2353 4325 2688 4325 
L 2869 4325 
z
M 925 2138 
Q 869 1716 869 1456 
Q 869 1156 980 804 
Q 1091 453 1309 247 
Q 1469 100 1697 100 
Q 1969 100 2183 356 
Q 2397 613 2397 1088 
Q 2397 1622 2184 2012 
Q 1972 2403 1581 2403 
Q 1463 2403 1327 2353 
Q 1191 2303 925 2138 
z
" transform="scale(0.015625)"/>
       </defs>
       <use xlink:href="#TimesNewRomanPSMT-36"/>
       <use xlink:href="#TimesNewRomanPSMT-30" transform="translate(50 0)"/>
      </g>
     </g>
    </g>
    <g id="ytick_5">
     <g id="line2d_25">
      <path d="M 47.135 77.116933 
L 565.2 77.116933 
" clip-path="url(#pb7ab83de85)" style="fill: none; stroke: #b0b0b0; stroke-width: 0.8; stroke-linecap: square"/>
     </g>
     <g id="line2d_26">
      <g>
       <use xlink:href="#m2f551c490f" x="47.135" y="77.116933" style="stroke: #000000; stroke-width: 0.8"/>
      </g>
     </g>
     <g id="text_14">
      <!-- 80 -->
      <g transform="translate(30.135 80.588808) scale(0.1 -0.1)">
       <use xlink:href="#TimesNewRomanPSMT-38"/>
       <use xlink:href="#TimesNewRomanPSMT-30" transform="translate(50 0)"/>
      </g>
     </g>
    </g>
    <g id="ytick_6">
     <g id="line2d_27">
      <path d="M 47.135 23.73738 
L 565.2 23.73738 
" clip-path="url(#pb7ab83de85)" style="fill: none; stroke: #b0b0b0; stroke-width: 0.8; stroke-linecap: square"/>
     </g>
     <g id="line2d_28">
      <g>
       <use xlink:href="#m2f551c490f" x="47.135" y="23.73738" style="stroke: #000000; stroke-width: 0.8"/>
      </g>
     </g>
     <g id="text_15">
      <!-- 100 -->
      <g transform="translate(25.135 27.209255) scale(0.1 -0.1)">
       <use xlink:href="#TimesNewRomanPSMT-31"/>
       <use xlink:href="#TimesNewRomanPSMT-30" transform="translate(50 0)"/>
       <use xlink:href="#TimesNewRomanPSMT-30" transform="translate(100 0)"/>
      </g>
     </g>
    </g>
    <g id="text_16">
     <!-- 百分数 (%) -->
     <g transform="translate(18.995938 181.124844) rotate(-90) scale(0.1 -0.1)">
      <defs>
       <path id="SimSong-Regular-767e" d="M 262 4800 
L 384 4518 
C 525 4550 749 4570 1062 4570 
L 2842 4570 
C 2803 4134 2765 3757 2726 3443 
L 1702 3443 
C 1555 3526 1408 3597 1254 3654 
C 1274 3475 1286 3302 1286 3123 
L 1286 -115 
C 1286 -243 1274 -371 1254 -499 
C 1254 -576 1312 -621 1402 -621 
C 1459 -621 1536 -608 1626 -582 
C 1677 -563 1709 -538 1709 -499 
L 1709 -32 
L 4627 -32 
L 4627 -525 
C 4627 -602 4672 -646 4742 -646 
C 4819 -646 4902 -634 5005 -608 
C 5069 -582 5107 -544 5107 -506 
C 5082 -301 5069 -141 5069 -19 
L 5069 3072 
C 5069 3123 5094 3168 5165 3213 
C 5235 3251 5280 3296 5280 3341 
C 5280 3379 5210 3450 5094 3546 
C 4966 3648 4883 3706 4845 3706 
C 4806 3706 4762 3674 4710 3622 
C 4659 3558 4608 3494 4544 3443 
L 2880 3443 
C 3034 3693 3226 4070 3456 4570 
L 6003 4570 
C 6067 4570 6106 4595 6106 4653 
C 6106 4678 6029 4768 5901 4915 
C 5766 5056 5664 5133 5600 5133 
C 5574 5133 5504 5075 5414 4966 
C 5312 4851 5242 4774 5210 4742 
L 1062 4742 
C 717 4742 454 4762 262 4800 
L 262 4800 
z
M 1709 1843 
L 1709 3264 
L 4627 3264 
L 4627 1843 
L 1709 1843 
z
M 1709 141 
L 1709 1664 
L 4627 1664 
L 4627 141 
L 1709 141 
z
" transform="scale(0.015625)"/>
       <path id="SimSong-Regular-5206" d="M 3520 5203 
C 3622 5037 3706 4813 3789 4525 
C 3955 4083 4166 3699 4422 3379 
C 4691 3021 5024 2701 5434 2406 
C 5594 2304 5702 2253 5747 2253 
C 5786 2253 5824 2285 5862 2362 
C 5907 2451 5990 2515 6118 2554 
L 6157 2662 
C 5728 2784 5325 3002 4941 3309 
C 4672 3533 4442 3802 4243 4115 
C 4064 4358 3981 4557 3981 4704 
C 3981 4736 3994 4781 4038 4832 
C 4179 4922 4262 4979 4262 5018 
C 4262 5062 4218 5094 4147 5120 
L 3514 5203 
L 3520 5203 
z
M 2074 5030 
C 1843 4378 1594 3834 1312 3411 
C 954 2880 627 2464 320 2170 
L 390 2074 
C 922 2483 1338 2899 1658 3328 
C 1939 3667 2214 4115 2470 4678 
C 2470 4691 2509 4710 2573 4723 
C 2656 4736 2707 4762 2707 4800 
C 2707 4832 2624 4870 2483 4909 
C 2368 4941 2234 4979 2074 5030 
L 2074 5030 
z
M 1235 2771 
L 1357 2490 
C 1530 2522 1734 2541 1990 2541 
L 2445 2541 
C 2374 2118 2266 1709 2118 1318 
C 1997 1030 1888 813 1786 672 
C 1619 429 1427 230 1216 70 
C 966 -128 666 -314 320 -486 
L 365 -576 
C 704 -454 1024 -314 1318 -147 
C 1594 19 1824 198 2016 390 
C 2208 589 2387 864 2541 1216 
C 2701 1626 2822 2067 2912 2541 
L 4314 2541 
C 4314 1760 4262 1146 4173 710 
C 4083 262 4013 26 3942 -6 
L 3936 -6 
C 3859 -45 3763 -70 3622 -70 
C 3430 -70 3194 -13 2886 102 
L 2861 6 
C 3290 -134 3494 -256 3514 -358 
C 3520 -499 3565 -570 3622 -570 
C 3763 -570 3930 -538 4122 -480 
C 4320 -384 4448 -224 4499 0 
C 4640 512 4717 1299 4730 2349 
C 4730 2381 4749 2419 4813 2464 
C 4870 2502 4909 2547 4909 2586 
C 4909 2624 4845 2694 4742 2797 
C 4627 2899 4544 2957 4499 2957 
C 4461 2957 4416 2925 4365 2874 
C 4307 2810 4256 2758 4211 2714 
L 1990 2714 
C 1818 2714 1568 2733 1235 2771 
L 1235 2771 
z
" transform="scale(0.015625)"/>
       <path id="SimSong-Regular-6570" d="M 4064 5203 
C 3987 4544 3891 3981 3782 3507 
C 3674 3059 3520 2579 3315 2054 
L 3398 1965 
C 3616 2323 3808 2662 3949 2995 
L 3930 2995 
C 3981 2464 4051 2029 4141 1696 
C 4224 1395 4346 1120 4480 864 
C 4365 627 4237 422 4096 256 
C 3878 -26 3622 -282 3315 -518 
L 3354 -608 
C 3654 -435 3930 -243 4179 -13 
C 4371 160 4538 346 4672 538 
C 4909 205 5139 -51 5363 -230 
C 5606 -422 5773 -518 5850 -518 
C 5869 -518 5901 -474 5939 -390 
C 5984 -288 6054 -224 6170 -198 
L 6182 -128 
C 5798 38 5472 256 5197 525 
C 5082 627 4979 749 4883 890 
C 5011 1126 5133 1440 5242 1837 
C 5382 2400 5491 3014 5568 3667 
L 6093 3667 
C 6144 3667 6182 3693 6182 3757 
C 6182 3770 6125 3827 6035 3917 
C 5882 4051 5792 4122 5760 4122 
C 5734 4122 5670 4077 5594 4000 
C 5517 3910 5466 3859 5440 3840 
L 4250 3840 
C 4339 4147 4416 4486 4493 4864 
C 4493 4870 4531 4883 4602 4896 
C 4666 4909 4704 4934 4704 4973 
C 4704 5011 4634 5056 4506 5094 
L 4064 5203 
L 4064 5203 
z
M 1594 2432 
C 1530 2234 1453 2035 1376 1843 
L 1222 1843 
C 902 1843 627 1862 384 1901 
L 506 1619 
C 698 1651 928 1664 1222 1664 
L 1299 1664 
C 1171 1382 1037 1101 870 832 
C 1254 717 1600 589 1914 448 
L 1907 448 
C 1952 422 2003 397 2048 378 
C 1933 269 1798 160 1638 58 
C 1267 -173 890 -365 493 -525 
L 538 -602 
C 1005 -474 1402 -326 1734 -160 
C 1990 -19 2182 96 2323 205 
C 2502 83 2662 -51 2803 -211 
C 2944 -352 3072 -422 3181 -422 
C 3283 -416 3341 -365 3354 -275 
C 3354 -109 3238 38 3021 186 
C 2899 262 2746 346 2554 429 
C 2630 525 2707 634 2778 762 
C 2886 979 2989 1229 3072 1523 
C 3072 1549 3091 1581 3142 1613 
C 3194 1638 3232 1677 3232 1715 
C 3232 1754 3174 1818 3078 1907 
C 2970 2003 2899 2054 2874 2054 
C 2842 2054 2797 2029 2758 1984 
L 2637 1843 
L 1824 1843 
C 1862 1920 1901 2003 1939 2086 
C 1952 2138 1978 2170 2029 2182 
C 2093 2182 2138 2208 2138 2253 
C 2138 2278 2099 2304 2042 2317 
L 1971 2336 
C 2010 2336 2061 2349 2112 2362 
C 2157 2374 2189 2394 2189 2426 
C 2176 2547 2170 2630 2170 2669 
L 2170 3200 
C 2445 3078 2694 2906 2931 2688 
C 3002 2598 3078 2554 3149 2554 
C 3200 2554 3251 2586 3302 2650 
C 3328 2694 3354 2752 3354 2829 
C 3341 2899 3258 2970 3104 3040 
C 2842 3155 2528 3251 2170 3322 
L 2170 3629 
C 2170 3642 2182 3654 2195 3667 
L 3533 3667 
C 3571 3667 3603 3693 3603 3757 
C 3603 3770 3546 3834 3456 3942 
C 3366 4038 3296 4090 3251 4090 
C 3232 4090 3181 4051 3117 3987 
C 3053 3910 3008 3859 2982 3840 
L 2170 3840 
L 2170 4851 
C 2170 4902 2189 4934 2246 4954 
C 2323 4979 2368 5018 2368 5069 
C 2368 5094 2298 5114 2170 5126 
L 1798 5178 
C 1811 5114 1824 5043 1824 4954 
L 1824 3840 
L 1190 3840 
C 845 3840 576 3859 384 3898 
L 506 3616 
C 646 3648 870 3667 1190 3667 
L 1696 3667 
C 1357 3155 915 2746 371 2438 
L 416 2349 
C 934 2554 1408 2861 1824 3264 
L 1824 2598 
C 1824 2547 1811 2483 1798 2400 
C 1798 2394 1805 2387 1805 2374 
L 1594 2432 
L 1594 2432 
z
M 2861 4954 
C 2752 4627 2598 4326 2394 4045 
L 2451 4000 
C 2752 4192 3002 4397 3213 4627 
C 3213 4634 3238 4640 3296 4653 
C 3347 4659 3379 4672 3379 4698 
C 3379 4742 3322 4787 3219 4832 
L 2861 4954 
L 2861 4954 
z
M 877 4877 
L 819 4826 
C 947 4646 1043 4429 1107 4160 
C 1146 4019 1229 3955 1325 3955 
C 1363 3955 1408 3981 1446 4038 
C 1478 4090 1504 4147 1504 4211 
C 1504 4314 1446 4416 1350 4531 
C 1254 4640 1101 4755 877 4877 
L 877 4877 
z
M 4045 3245 
C 4045 3245 4051 3258 4070 3283 
L 4198 3667 
L 5152 3667 
C 5088 3078 4998 2502 4870 1952 
C 4787 1658 4710 1421 4646 1242 
C 4627 1261 4614 1293 4608 1312 
C 4454 1600 4326 1958 4205 2413 
C 4141 2694 4090 2976 4051 3245 
L 4045 3245 
z
M 2221 563 
C 1958 653 1651 755 1299 851 
C 1466 1152 1613 1421 1734 1664 
L 2675 1664 
C 2586 1254 2464 915 2291 659 
L 2214 563 
L 2221 563 
z
" transform="scale(0.015625)"/>
       <path id="TimesNewRomanPSMT-25" d="M 4350 4334 
L 1263 -175 
L 984 -175 
L 4072 4334 
L 4350 4334 
z
M 1138 4334 
Q 1559 4334 1792 3984 
Q 2025 3634 2025 3181 
Q 2025 2638 1762 2341 
Q 1500 2044 1131 2044 
Q 884 2044 678 2180 
Q 472 2316 348 2584 
Q 225 2853 225 3181 
Q 225 3509 350 3786 
Q 475 4063 692 4198 
Q 909 4334 1138 4334 
z
M 1128 4159 
Q 969 4159 845 3971 
Q 722 3784 722 3184 
Q 722 2750 791 2522 
Q 844 2350 956 2256 
Q 1022 2200 1119 2200 
Q 1269 2200 1375 2363 
Q 1531 2603 1531 3166 
Q 1531 3759 1378 4000 
Q 1278 4159 1128 4159 
z
M 4206 2103 
Q 4428 2103 4648 1962 
Q 4869 1822 4989 1553 
Q 5109 1284 5109 963 
Q 5109 409 4843 117 
Q 4578 -175 4216 -175 
Q 3988 -175 3773 -34 
Q 3559 106 3436 367 
Q 3313 628 3313 963 
Q 3313 1291 3436 1562 
Q 3559 1834 3773 1968 
Q 3988 2103 4206 2103 
z
M 4209 1938 
Q 4059 1938 3950 1769 
Q 3809 1550 3809 941 
Q 3809 381 3953 159 
Q 4059 0 4209 0 
Q 4353 0 4466 172 
Q 4616 400 4616 956 
Q 4616 1544 4466 1778 
Q 4363 1938 4209 1938 
z
" transform="scale(0.015625)"/>
      </defs>
      <use xlink:href="#SimSong-Regular-767e"/>
      <use xlink:href="#SimSong-Regular-5206" transform="translate(99.999985 0)"/>
      <use xlink:href="#SimSong-Regular-6570" transform="translate(199.999969 0)"/>
      <use xlink:href="#TimesNewRomanPSMT-20" transform="translate(299.999954 0)"/>
      <use xlink:href="#TimesNewRomanPSMT-28" transform="translate(324.999954 0)"/>
      <use xlink:href="#TimesNewRomanPSMT-25" transform="translate(358.300735 0)"/>
      <use xlink:href="#TimesNewRomanPSMT-29" transform="translate(441.601517 0)"/>
     </g>
    </g>
   </g>
   <g id="line2d_29">
    <path d="M 70.683409 290.635142 
L 75.211949 290.585112 
L 75.858884 290.45068 
L 76.505818 289.981413 
L 77.152752 288.766465 
L 77.799687 285.742799 
L 78.446621 280.888869 
L 79.74049 263.730535 
L 81.681292 228.715736 
L 82.328227 215.550368 
L 84.915964 150.580984 
L 86.856767 103.304542 
L 87.503701 88.815255 
L 88.150636 77.45992 
L 88.79757 80.006808 
L 90.091439 60.403467 
L 91.385307 47.452747 
L 92.679176 39.99994 
L 93.973044 36.855552 
L 94.619979 36.192653 
L 95.913847 35.718782 
L 98.501585 35.249215 
L 99.795453 34.845297 
L 101.736256 34.361622 
L 103.677059 33.984217 
L 104.970928 33.872817 
L 105.617862 33.599485 
L 106.911731 33.588149 
L 107.558665 33.336407 
L 108.852534 33.553298 
L 109.499468 33.579356 
L 113.381074 32.811134 
L 114.028008 32.868875 
L 114.674943 32.754291 
L 115.321877 32.80722 
L 115.968811 32.587858 
L 117.909614 32.478775 
L 118.556548 32.570511 
L 119.203483 32.100462 
L 120.497351 31.866582 
L 121.144286 31.589212 
L 122.438154 31.36394 
L 123.085089 31.183212 
L 123.732023 31.449833 
L 125.025892 31.217324 
L 126.31976 31.43486 
L 129.554432 31.084742 
L 130.201366 30.971548 
L 130.8483 31.162467 
L 131.495235 31.079398 
L 132.142169 31.157325 
L 132.789103 31.073322 
L 134.082972 31.225109 
L 134.729906 31.448565 
L 137.317644 31.479542 
L 137.964578 31.672319 
L 138.611512 31.45534 
L 139.258447 31.435127 
L 139.905381 31.300583 
L 140.552315 31.302891 
L 141.19925 31.104766 
L 141.846184 31.037319 
L 143.140052 31.306253 
L 145.72779 31.35763 
L 146.374724 31.570286 
L 147.021658 31.595046 
L 147.668593 31.485924 
L 148.315527 31.618915 
L 150.903264 31.430694 
L 151.550199 31.676623 
L 152.197133 31.613898 
L 153.491001 31.150967 
L 154.78487 31.055604 
L 155.431804 30.869056 
L 156.078739 30.953682 
L 157.372607 30.564992 
L 158.666476 30.687825 
L 159.31341 30.556625 
L 159.960345 30.609786 
L 160.607279 30.551417 
L 161.254213 30.610241 
L 161.901148 30.276887 
L 162.548082 30.376372 
L 165.135819 30.083166 
L 165.782753 30.119061 
L 167.076622 29.908489 
L 172.252097 30.558 
L 172.899031 30.7122 
L 173.545965 30.624101 
L 174.839834 30.882235 
L 175.486768 30.765628 
L 179.368374 30.729401 
L 180.662243 30.606363 
L 181.309177 30.609001 
L 181.956111 30.354745 
L 182.603046 30.726906 
L 187.131586 30.533239 
L 188.425455 30.653579 
L 192.30706 30.59709 
L 193.600929 30.319589 
L 194.247863 30.337292 
L 194.894798 30.12764 
L 195.541732 30.070518 
L 197.482535 29.438901 
L 199.423338 29.46145 
L 200.070272 29.572685 
L 202.011075 29.600528 
L 202.658009 29.648283 
L 203.304944 29.851925 
L 204.598812 29.895193 
L 205.245747 30.029859 
L 210.421221 28.847996 
L 213.655893 29.002356 
L 214.302827 29.25383 
L 216.890564 29.773642 
L 218.184433 29.767134 
L 218.831367 29.395538 
L 219.478302 29.627956 
L 220.77217 29.075667 
L 221.419105 29.012196 
L 222.066039 28.714687 
L 224.653776 28.280692 
L 225.300711 28.21311 
L 226.594579 28.377269 
L 227.888448 28.971804 
L 230.476185 29.680745 
L 231.123119 29.760922 
L 231.770054 29.565804 
L 232.416988 29.830133 
L 234.357791 29.068052 
L 235.004725 28.882492 
L 236.298594 28.365044 
L 237.592463 28.261065 
L 238.239397 28.275875 
L 238.886331 28.553516 
L 239.533265 28.613674 
L 240.1802 28.537132 
L 240.827134 29.032868 
L 244.061806 30.364354 
L 246.649543 30.260977 
L 248.590346 29.572462 
L 249.23728 29.1555 
L 250.531149 28.670676 
L 251.178083 28.325849 
L 253.118886 27.945636 
L 254.412755 28.416303 
L 255.059689 28.527894 
L 256.353558 29.085223 
L 260.235164 30.063407 
L 260.882098 30.100747 
L 261.529032 29.990055 
L 262.822901 29.478852 
L 264.763704 28.862472 
L 265.410638 28.377992 
L 266.704507 28.071759 
L 267.998375 27.796307 
L 269.292244 27.704011 
L 271.233047 28.093207 
L 273.17385 28.643103 
L 277.055456 29.429429 
L 278.349324 29.426973 
L 280.937062 28.973805 
L 282.23093 28.494227 
L 282.877865 28.359529 
L 284.171733 27.929816 
L 285.465602 27.645996 
L 288.053339 27.961083 
L 289.347208 28.460163 
L 289.994142 28.604254 
L 291.288011 29.242037 
L 293.228814 29.719109 
L 295.169617 29.814986 
L 297.757354 29.118963 
L 300.345091 28.228998 
L 301.63896 27.99478 
L 302.932828 27.940611 
L 304.873631 28.341662 
L 305.520566 28.456055 
L 306.814434 28.982343 
L 310.049106 29.461183 
L 311.342975 29.331536 
L 313.283777 28.69753 
L 313.930712 28.300423 
L 315.871515 27.678779 
L 316.518449 27.367249 
L 318.459252 27.220375 
L 319.106186 27.351088 
L 319.753121 27.322801 
L 320.400055 27.419612 
L 321.046989 27.726756 
L 322.340858 28.035322 
L 324.928595 28.850659 
L 328.163267 28.608905 
L 330.10407 28.021427 
L 331.397938 27.463186 
L 332.691807 27.218248 
L 333.338741 27.035268 
L 333.985676 26.999214 
L 335.279544 27.099484 
L 336.573413 27.005528 
L 337.867281 27.707755 
L 338.514216 27.724157 
L 339.16115 27.95201 
L 339.808084 28.301493 
L 340.455019 28.334653 
L 341.101953 28.573565 
L 344.336625 28.926969 
L 345.630493 28.614589 
L 346.277428 28.238326 
L 348.218231 27.791111 
L 350.159033 27.434618 
L 352.099836 27.411887 
L 355.334508 28.161524 
L 355.981442 28.485361 
L 356.628377 28.622789 
L 357.922245 29.098366 
L 359.863048 29.329032 
L 361.156917 29.324897 
L 361.803851 29.146315 
L 362.450785 29.233992 
L 365.038523 28.255575 
L 365.685457 28.115255 
L 366.332391 27.714103 
L 367.62626 27.428892 
L 369.567063 27.023149 
L 370.860932 27.00206 
L 372.801735 27.274417 
L 373.448669 27.617406 
L 377.977209 29.218008 
L 378.624143 29.160586 
L 379.918012 29.474766 
L 380.564946 29.221718 
L 381.211881 29.351214 
L 381.858815 29.250859 
L 382.505749 29.032319 
L 383.152684 28.97452 
L 384.446552 28.46449 
L 385.093487 28.395588 
L 388.328158 27.386582 
L 390.268961 27.157543 
L 392.209764 27.254542 
L 392.856698 27.219122 
L 395.444436 27.841523 
L 396.738304 28.178954 
L 397.385239 28.542234 
L 398.679107 28.923921 
L 400.61991 29.278204 
L 401.913779 29.267128 
L 403.854582 28.862881 
L 405.14845 28.408547 
L 405.795385 28.079277 
L 407.089253 27.681272 
L 408.383122 27.20207 
L 412.264728 26.547304 
L 414.205531 27.109976 
L 414.852465 27.210028 
L 415.499399 27.562271 
L 419.381005 28.577802 
L 420.674874 28.691324 
L 424.55648 27.867887 
L 425.203414 27.686326 
L 425.850348 27.274934 
L 426.497283 27.250037 
L 427.144217 27.058223 
L 428.438086 26.491921 
L 429.08502 26.526813 
L 429.731954 26.285305 
L 430.378889 26.362338 
L 431.025823 26.211794 
L 431.672757 26.359675 
L 432.319692 26.342719 
L 432.966626 26.610642 
L 434.260495 26.764453 
L 436.201297 27.377157 
L 438.1421 27.823228 
L 440.082903 27.882645 
L 442.023706 27.655972 
L 443.964509 27.215123 
L 445.258378 26.865862 
L 447.199181 26.268856 
L 449.786918 26.182204 
L 451.080787 26.277905 
L 451.727721 26.393983 
L 453.02159 26.848623 
L 453.668524 26.988241 
L 455.609327 27.70874 
L 456.903196 28.105865 
L 457.55013 28.010185 
L 458.197064 28.330321 
L 460.784801 28.36818 
L 462.07867 28.101992 
L 463.372539 27.576298 
L 464.019473 27.561899 
L 467.901079 26.522084 
L 469.194948 26.541868 
L 470.488816 26.390482 
L 478.252028 28.424766 
L 479.545897 28.485694 
L 482.133634 28.138546 
L 484.074437 27.64897 
L 487.956043 26.558494 
L 490.54378 27.072792 
L 491.837649 27.68613 
L 493.778452 28.713435 
L 495.719254 30.329573 
L 498.306992 31.854321 
L 499.60086 32.432014 
L 500.247795 32.931673 
L 501.541663 33.359897 
L 502.835532 33.751814 
L 504.776335 33.579617 
L 505.423269 33.411235 
L 506.717138 32.580583 
L 508.657941 31.086953 
L 510.598744 29.325328 
L 511.892612 28.434702 
L 513.186481 27.974691 
L 514.48035 27.896268 
L 515.127284 28.220321 
L 516.421153 29.313476 
L 517.068087 30.078553 
L 517.715021 31.061724 
L 519.655824 35.004452 
L 520.949693 38.010204 
L 524.184364 45.549939 
L 526.125167 48.876116 
L 526.772102 49.763662 
L 527.419036 50.057685 
L 528.06597 50.566033 
L 528.712905 50.823211 
L 529.359839 50.661923 
L 530.006773 50.309565 
L 530.653708 49.808881 
L 531.300642 49.142249 
L 533.241445 45.657659 
L 535.182248 41.028564 
L 537.769985 34.318884 
L 539.710788 30.732048 
L 540.357722 29.983579 
L 541.004657 29.538321 
L 541.651591 29.228804 
L 541.651591 29.228804 
" clip-path="url(#pb7ab83de85)" style="fill: none; stroke: #1f77b4; stroke-width: 1.5; stroke-linecap: square"/>
   </g>
   <g id="line2d_30">
    <path d="M 70.683409 289.091966 
L 73.271146 288.309195 
L 74.565015 287.371966 
L 75.858884 285.382506 
L 77.152752 281.473528 
L 78.446621 273.640314 
L 79.74049 260.027654 
L 81.034358 240.746509 
L 82.328227 213.989012 
L 84.915964 148.823736 
L 86.856767 100.617038 
L 87.503701 85.742199 
L 88.79757 62.895493 
L 90.091439 47.782961 
L 91.385307 38.842052 
L 92.679176 34.253973 
L 93.973044 32.56774 
L 95.266913 32.009008 
L 97.85465 31.407677 
L 100.442388 30.623164 
L 102.383191 29.993927 
L 103.677059 29.735972 
L 105.617862 29.329645 
L 108.205599 28.88246 
L 109.499468 28.878367 
L 110.793337 28.632814 
L 112.73414 28.582487 
L 114.028008 28.558857 
L 115.968811 28.637375 
L 117.26268 28.286546 
L 118.556548 28.469627 
L 119.850417 28.155126 
L 123.085089 28.140627 
L 123.732023 28.20644 
L 125.672826 28.071618 
L 128.260563 28.028724 
L 129.554432 27.934659 
L 130.201366 27.850317 
L 131.495235 28.141136 
L 134.082972 28.030384 
L 135.376841 28.270093 
L 136.670709 28.247837 
L 137.964578 28.49559 
L 141.846184 28.069765 
L 150.903264 28.272557 
L 152.844067 28.041553 
L 154.137936 27.854053 
L 158.019542 27.503418 
L 158.666476 27.556565 
L 160.607279 27.318891 
L 165.782753 26.980504 
L 167.076622 26.919803 
L 169.664359 27.042957 
L 172.899031 27.530113 
L 176.133703 27.633953 
L 183.24998 27.31995 
L 189.072389 27.498897 
L 190.366257 27.402582 
L 197.482535 26.602043 
L 207.833484 26.189333 
L 213.008959 26.034352 
L 215.596696 26.043128 
L 223.359908 25.766155 
L 229.829251 25.650455 
L 233.710857 25.683971 
L 238.239397 26.02134 
L 240.827134 26.215193 
L 244.70874 26.275477 
L 266.057572 25.774484 
L 277.055456 25.909468 
L 289.347208 25.9124 
L 291.934945 25.959316 
L 295.169617 26.107627 
L 303.579763 26.303486 
L 310.69604 25.924271 
L 327.516332 25.595037 
L 329.457135 25.60922 
L 333.985676 25.536016 
L 343.68969 25.266231 
L 346.277428 25.383561 
L 352.099836 25.528492 
L 355.981442 25.566927 
L 365.038523 25.772091 
L 370.860932 25.571875 
L 376.036406 25.433083 
L 379.918012 25.592115 
L 387.034289 25.824891 
L 390.915895 25.669799 
L 394.150567 25.564707 
L 398.032173 25.564402 
L 405.14845 25.597685 
L 409.030056 25.534805 
L 410.970859 25.516916 
L 412.264728 25.122043 
L 416.146334 25.209541 
L 424.55648 25.201987 
L 429.731954 25.023844 
L 434.260495 24.892372 
L 438.789035 24.808722 
L 442.670641 24.754619 
L 449.786918 24.799478 
L 462.725604 25.212759 
L 466.60721 25.098504 
L 468.548013 25.138333 
L 470.488816 25.153605 
L 472.429619 25.253657 
L 473.723488 25.290463 
L 478.252028 25.58507 
L 482.780568 25.574359 
L 484.074437 25.534061 
L 487.956043 25.352599 
L 490.54378 25.224508 
L 493.778452 25.158574 
L 495.07232 25.304085 
L 497.013123 25.238853 
L 500.894729 25.273073 
L 503.482466 25.15725 
L 508.011006 24.918966 
L 511.245678 24.806381 
L 515.774218 25.002331 
L 523.53743 25.522129 
L 531.300642 25.650353 
L 533.241445 25.67883 
L 540.357722 26.161456 
L 541.651591 26.180658 
L 541.651591 26.180658 
" clip-path="url(#pb7ab83de85)" style="fill: none; stroke: #ff7f0e; stroke-opacity: 0.5; stroke-width: 1.5; stroke-linecap: square"/>
   </g>
   <g id="line2d_31">
    <path d="M 70.683409 290.634661 
L 73.271146 290.581748 
L 73.918081 290.409969 
L 74.565015 289.745605 
L 75.211949 287.493125 
L 75.858884 281.244632 
L 76.505818 266.380666 
L 77.152752 236.094664 
L 77.799687 190.606115 
L 79.093555 88.862547 
L 79.74049 55.584566 
L 80.387424 37.587803 
L 81.034358 30.64987 
L 81.681292 28.928989 
L 82.328227 28.678019 
L 84.915964 26.540467 
L 85.562898 26.574014 
L 87.503701 27.233796 
L 88.150636 27.105134 
L 88.79757 43.313402 
L 90.091439 37.113291 
L 91.385307 32.356293 
L 92.032242 30.597955 
L 92.679176 29.199589 
L 93.973044 27.644419 
L 94.619979 27.240108 
L 95.266913 27.278431 
L 95.913847 27.156641 
L 97.207716 27.272566 
L 97.85465 27.376294 
L 99.795453 27.303263 
L 101.089322 27.3828 
L 102.383191 27.513956 
L 103.030125 27.583301 
L 103.677059 27.521744 
L 104.970928 27.660027 
L 105.617862 27.532944 
L 106.911731 27.755539 
L 107.558665 27.603134 
L 108.205599 27.849553 
L 109.499468 27.95772 
L 111.440271 27.837539 
L 113.381074 27.519443 
L 114.028008 27.543186 
L 114.674943 27.391026 
L 115.321877 27.419626 
L 115.968811 27.170223 
L 117.26268 27.324898 
L 118.556548 27.309453 
L 119.203483 26.985045 
L 119.850417 27.054095 
L 120.497351 26.922959 
L 121.144286 26.661553 
L 122.438154 26.458568 
L 123.085089 26.205215 
L 123.732023 26.407783 
L 125.025892 26.313738 
L 126.31976 26.503488 
L 130.8483 26.292938 
L 131.495235 26.058512 
L 132.142169 26.179538 
L 132.789103 26.135514 
L 134.729906 26.409097 
L 135.376841 26.28466 
L 136.023775 26.359666 
L 137.317644 26.204309 
L 137.964578 26.27283 
L 138.611512 26.135494 
L 140.552315 26.265723 
L 141.19925 26.083895 
L 141.846184 26.035289 
L 143.140052 26.267485 
L 144.433921 26.378532 
L 145.72779 26.24195 
L 146.374724 26.441056 
L 147.021658 26.44856 
L 147.668593 26.277452 
L 149.609396 26.417018 
L 150.903264 26.191308 
L 151.550199 26.492757 
L 152.844067 26.377545 
L 153.491001 26.252834 
L 154.78487 26.276067 
L 155.431804 26.158687 
L 156.078739 26.317383 
L 157.372607 26.108167 
L 161.254213 26.299729 
L 161.901148 25.96911 
L 162.548082 26.078498 
L 165.135819 25.985706 
L 165.782753 26.089281 
L 168.370491 26.062952 
L 169.664359 26.080891 
L 170.311294 25.959774 
L 171.605162 26.103453 
L 172.252097 26.044422 
L 172.899031 26.109531 
L 173.545965 25.978172 
L 174.839834 26.165661 
L 175.486768 26.013328 
L 176.133703 26.048901 
L 176.780637 26.196785 
L 177.427571 26.1005 
L 179.368374 26.210785 
L 180.662243 26.202416 
L 181.309177 26.223817 
L 181.956111 25.984005 
L 182.603046 26.327392 
L 187.131586 25.847901 
L 188.425455 25.999909 
L 189.719323 26.034678 
L 191.660126 26.297336 
L 194.247863 26.325936 
L 194.894798 26.16507 
L 195.541732 26.14373 
L 197.482535 25.669758 
L 199.423338 25.726132 
L 200.717207 25.844633 
L 201.364141 25.752309 
L 203.304944 26.268482 
L 204.598812 26.372749 
L 205.245747 26.542941 
L 208.480418 25.918957 
L 209.774287 25.626325 
L 210.421221 25.515114 
L 213.655893 25.692422 
L 214.949761 26.051844 
L 216.890564 26.523474 
L 218.184433 26.562183 
L 218.831367 26.226749 
L 219.478302 26.502663 
L 220.77217 25.991723 
L 221.419105 25.946182 
L 222.066039 25.663884 
L 224.653776 25.211863 
L 225.300711 25.165069 
L 226.594579 25.375059 
L 227.888448 25.989228 
L 231.123119 26.840399 
L 231.770054 26.635581 
L 232.416988 26.895368 
L 234.357791 26.057342 
L 235.004725 25.837109 
L 236.298594 25.225699 
L 237.592463 25.014334 
L 238.239397 24.963061 
L 238.886331 25.177979 
L 239.533265 25.189902 
L 240.1802 25.063317 
L 240.827134 25.542654 
L 244.061806 26.822826 
L 246.649543 26.761677 
L 248.590346 26.12179 
L 249.23728 25.717315 
L 250.531149 25.245237 
L 251.178083 24.919404 
L 253.118886 24.585344 
L 254.412755 25.072409 
L 255.059689 25.215446 
L 256.353558 25.814008 
L 257.000492 25.988974 
L 258.294361 26.498703 
L 260.882098 27.062658 
L 261.529032 26.961282 
L 262.822901 26.458507 
L 264.763704 25.815718 
L 265.410638 25.315499 
L 266.704507 24.981703 
L 268.64531 24.568534 
L 269.292244 24.521242 
L 271.233047 24.900904 
L 273.17385 25.435333 
L 276.408521 26.194148 
L 278.349324 26.233265 
L 280.290127 25.980371 
L 284.818668 24.488295 
L 285.465602 24.389231 
L 288.053339 24.747064 
L 289.347208 25.252547 
L 289.994142 25.413728 
L 290.641076 25.805985 
L 292.581879 26.495251 
L 295.169617 26.460787 
L 295.816551 26.292368 
L 297.11042 25.833464 
L 300.992025 24.430587 
L 302.932828 24.351264 
L 306.1675 25.29706 
L 306.814434 25.599232 
L 308.108303 25.943046 
L 309.402172 26.187785 
L 310.049106 26.276526 
L 311.342975 26.175567 
L 313.283777 25.627903 
L 313.930712 25.224477 
L 315.871515 24.630925 
L 316.518449 24.339983 
L 318.459252 24.202138 
L 319.106186 24.36672 
L 319.753121 24.354044 
L 320.400055 24.467871 
L 321.046989 24.807765 
L 322.340858 25.161526 
L 324.928595 26.020689 
L 328.163267 25.75407 
L 329.457135 25.357629 
L 330.751004 24.927986 
L 331.397938 24.620693 
L 332.691807 24.404991 
L 333.338741 24.252454 
L 333.985676 24.243678 
L 335.279544 24.416272 
L 336.573413 24.378449 
L 337.867281 25.16846 
L 338.514216 25.252354 
L 339.16115 25.495902 
L 339.808084 25.862186 
L 340.455019 25.914253 
L 341.101953 26.173949 
L 344.336625 26.439213 
L 345.630493 26.069712 
L 346.277428 25.690111 
L 348.218231 25.160437 
L 350.159033 24.752022 
L 351.452902 24.612426 
L 354.040639 25.14602 
L 359.216114 26.52437 
L 361.156917 26.490436 
L 361.803851 26.29532 
L 362.450785 26.374165 
L 365.038523 25.353668 
L 365.685457 25.223571 
L 366.332391 24.858224 
L 368.920129 24.322706 
L 370.860932 24.301926 
L 372.801735 24.671539 
L 373.448669 25.047332 
L 376.036406 25.898727 
L 377.330275 26.321649 
L 377.977209 26.658122 
L 378.624143 26.58163 
L 379.918012 26.80622 
L 380.564946 26.522883 
L 381.211881 26.62602 
L 381.858815 26.471844 
L 382.505749 26.198139 
L 383.152684 26.145889 
L 384.446552 25.620073 
L 385.093487 25.53396 
L 387.681224 24.675815 
L 388.975092 24.491278 
L 390.268961 24.381707 
L 391.56283 24.529642 
L 394.150567 24.853795 
L 394.797501 24.977712 
L 395.444436 25.26672 
L 396.738304 25.59125 
L 397.385239 25.955834 
L 398.679107 26.329469 
L 400.61991 26.665259 
L 401.913779 26.633809 
L 403.854582 26.226158 
L 409.676991 24.405521 
L 410.970859 24.319967 
L 414.852465 25.025015 
L 415.499399 25.365316 
L 420.02794 26.39245 
L 420.674874 26.460054 
L 425.203414 25.49241 
L 425.850348 25.086296 
L 426.497283 25.069904 
L 427.144217 24.92255 
L 428.438086 24.414022 
L 429.08502 24.465418 
L 429.731954 24.257168 
L 430.378889 24.369917 
L 431.025823 24.241072 
L 431.672757 24.412872 
L 432.319692 24.417362 
L 432.966626 24.708782 
L 434.260495 24.879981 
L 435.554363 25.393508 
L 438.789035 26.066617 
L 440.729838 26.090706 
L 443.964509 25.476292 
L 445.258378 25.125107 
L 447.199181 24.525773 
L 450.433852 24.375628 
L 451.727721 24.518737 
L 453.02159 24.907858 
L 453.668524 25.010048 
L 454.962393 25.489426 
L 456.903196 25.972653 
L 457.55013 25.873192 
L 458.197064 26.176076 
L 460.784801 26.191878 
L 462.07867 25.914772 
L 462.725604 25.58899 
L 463.372539 25.398466 
L 464.019473 25.419419 
L 467.901079 24.338629 
L 469.194948 24.4195 
L 470.488816 24.219426 
L 472.429619 24.635965 
L 473.076553 24.838615 
L 473.723488 24.85406 
L 475.017356 25.180932 
L 476.311225 25.561612 
L 477.605094 25.716491 
L 478.898962 25.880838 
L 481.4867 25.669697 
L 484.721371 24.914517 
L 486.01524 24.607091 
L 487.956043 24.125483 
L 489.896846 24.541462 
L 491.190714 25.054042 
L 493.131517 26.085239 
L 494.425386 26.976961 
L 495.719254 27.994515 
L 497.013123 28.787214 
L 498.306992 29.533832 
L 499.60086 30.102053 
L 500.247795 30.586481 
L 501.541663 31.03166 
L 502.835532 31.479313 
L 504.129401 31.507648 
L 505.423269 31.276837 
L 506.717138 30.551101 
L 508.657941 29.089478 
L 511.245678 26.881654 
L 511.892612 26.458181 
L 513.186481 25.969619 
L 514.48035 25.82314 
L 515.127284 26.096377 
L 516.421153 27.090351 
L 517.068087 27.807219 
L 517.715021 28.738944 
L 519.00889 31.213183 
L 520.949693 35.491088 
L 524.184364 42.970261 
L 526.125167 46.294418 
L 526.772102 47.184858 
L 527.419036 47.475454 
L 528.06597 47.966561 
L 528.712905 48.203847 
L 529.359839 48.042748 
L 530.006773 47.688498 
L 530.653708 47.155596 
L 531.300642 46.454784 
L 532.59451 44.248864 
L 533.888379 41.351203 
L 535.829182 36.305524 
L 537.123051 32.840426 
L 537.769985 31.08104 
L 539.710788 27.288907 
L 540.357722 26.497909 
L 541.004657 26.031674 
L 541.651591 25.70296 
L 541.651591 25.70296 
" clip-path="url(#pb7ab83de85)" style="fill: none; stroke: #2ca02c; stroke-opacity: 0.5; stroke-width: 1.5; stroke-linecap: square"/>
   </g>
   <g id="line2d_32">
    <path d="M 70.683409 24.233655 
L 117.26268 24.342502 
L 238.886331 24.788712 
L 272.526916 24.804427 
L 297.11042 24.761246 
L 361.156917 24.638575 
L 464.666407 24.495179 
L 509.304875 24.643005 
L 541.651591 24.856349 
L 541.651591 24.856349 
" clip-path="url(#pb7ab83de85)" style="fill: none; stroke: #d62728; stroke-opacity: 0.5; stroke-width: 1.5; stroke-linecap: square"/>
   </g>
   <g id="patch_3">
    <path d="M 47.135 303.960625 
L 47.135 10.8 
" style="fill: none; stroke: #000000; stroke-width: 0.8; stroke-linejoin: miter; stroke-linecap: square"/>
   </g>
   <g id="patch_4">
    <path d="M 565.2 303.960625 
L 565.2 10.8 
" style="fill: none; stroke: #000000; stroke-width: 0.8; stroke-linejoin: miter; stroke-linecap: square"/>
   </g>
   <g id="patch_5">
    <path d="M 47.135 303.960625 
L 565.2 303.960625 
" style="fill: none; stroke: #000000; stroke-width: 0.8; stroke-linejoin: miter; stroke-linecap: square"/>
   </g>
   <g id="patch_6">
    <path d="M 47.135 10.8 
L 565.2 10.8 
" style="fill: none; stroke: #000000; stroke-width: 0.8; stroke-linejoin: miter; stroke-linecap: square"/>
   </g>
   <g id="legend_1">
    <g id="patch_7">
     <path d="M 422.778125 298.960625 
L 558.2 298.960625 
Q 560.2 298.960625 560.2 296.960625 
L 560.2 236.485625 
Q 560.2 234.485625 558.2 234.485625 
L 422.778125 234.485625 
Q 420.778125 234.485625 420.778125 236.485625 
L 420.778125 296.960625 
Q 420.778125 298.960625 422.778125 298.960625 
z
" style="fill: #ffffff; opacity: 0.8; stroke: #cccccc; stroke-linejoin: miter"/>
    </g>
    <g id="line2d_33">
     <path d="M 424.778125 243.195 
L 434.778125 243.195 
L 444.778125 243.195 
" style="fill: none; stroke: #1f77b4; stroke-width: 1.5; stroke-linecap: square"/>
    </g>
    <g id="text_17">
     <!-- 整体透射率 (%) -->
     <g transform="translate(452.778125 246.695) scale(0.1 -0.1)">
      <defs>
       <path id="SimSong-Regular-6574" d="M 3968 5254 
C 3878 4787 3770 4397 3648 4083 
C 3501 3699 3373 3398 3245 3194 
L 3309 3091 
C 3558 3373 3757 3648 3910 3942 
L 3898 3942 
C 3955 3712 4038 3501 4134 3315 
C 4211 3174 4314 3034 4429 2893 
C 4282 2701 4115 2534 3923 2400 
C 3699 2240 3430 2086 3091 1926 
L 3130 1850 
C 3482 1946 3802 2067 4096 2234 
C 4301 2349 4480 2490 4640 2650 
C 4806 2483 5024 2323 5280 2170 
C 5498 2042 5645 1978 5722 1978 
C 5728 1978 5747 2016 5786 2093 
C 5824 2170 5907 2234 6035 2272 
L 6054 2323 
C 5645 2458 5312 2605 5050 2771 
C 4986 2810 4915 2854 4851 2906 
C 4934 3021 5018 3162 5101 3328 
L 5107 3328 
C 5248 3622 5357 3936 5440 4269 
L 5926 4269 
C 5978 4269 6010 4294 6010 4352 
C 6010 4371 5958 4422 5869 4512 
C 5728 4640 5638 4704 5606 4704 
C 5581 4704 5523 4659 5453 4582 
C 5376 4506 5331 4461 5306 4442 
L 4160 4442 
C 4218 4582 4275 4749 4333 4928 
C 4339 4941 4371 4960 4429 4979 
C 4506 4986 4557 5005 4557 5043 
C 4557 5075 4480 5107 4352 5146 
C 4243 5171 4122 5210 3968 5254 
L 3968 5254 
z
M 410 4698 
L 531 4416 
C 672 4448 896 4467 1210 4467 
L 1747 4467 
L 1747 4038 
L 998 4038 
C 902 4090 800 4141 685 4179 
C 698 4051 710 3917 710 3776 
L 710 3258 
C 710 3155 698 3059 685 2970 
C 685 2906 730 2880 800 2880 
C 845 2880 902 2886 966 2906 
C 1005 2918 1030 2944 1030 2970 
L 1030 3117 
L 1619 3117 
C 1293 2656 870 2285 346 2003 
L 390 1920 
C 896 2118 1350 2400 1747 2758 
L 1747 2464 
C 1747 2298 1734 2112 1722 1920 
C 1728 1856 1779 1830 1843 1830 
C 1901 1830 1965 1837 2035 1862 
C 2086 1875 2118 1901 2118 1939 
C 2099 2131 2093 2310 2093 2464 
L 2093 2771 
C 2355 2662 2605 2502 2835 2298 
C 2906 2214 2982 2176 3053 2176 
C 3091 2176 3136 2202 3181 2259 
C 3206 2298 3232 2355 3232 2419 
C 3226 2483 3142 2547 2989 2611 
C 2739 2714 2438 2803 2093 2874 
L 2093 3117 
L 2822 3117 
L 2822 2995 
C 2822 2931 2861 2906 2918 2906 
C 2976 2906 3040 2912 3117 2938 
C 3168 2950 3200 2976 3200 3008 
C 3174 3162 3168 3290 3168 3386 
L 3168 3712 
C 3168 3750 3187 3782 3251 3814 
C 3315 3846 3354 3878 3354 3917 
C 3354 3949 3296 4006 3206 4083 
C 3104 4160 3040 4205 3008 4205 
C 2982 4205 2938 4186 2899 4154 
L 2771 4038 
L 2093 4038 
L 2093 4467 
L 3405 4467 
C 3450 4467 3482 4493 3482 4557 
C 3482 4570 3424 4634 3334 4742 
C 3238 4838 3168 4890 3123 4890 
C 3104 4890 3059 4851 2995 4787 
C 2925 4710 2880 4659 2854 4640 
L 2093 4640 
L 2093 4902 
C 2093 4954 2112 4986 2176 4998 
C 2259 5024 2310 5062 2310 5114 
C 2310 5139 2246 5158 2138 5178 
C 1971 5203 1837 5216 1722 5229 
C 1734 5075 1747 4890 1747 4685 
L 1747 4640 
L 1210 4640 
C 864 4640 602 4659 410 4698 
L 410 4698 
z
M 4000 4090 
L 4083 4269 
L 5018 4269 
C 4954 3981 4864 3718 4762 3488 
C 4704 3347 4653 3226 4589 3123 
C 4518 3187 4442 3270 4371 3360 
C 4218 3552 4102 3795 4000 4090 
z
M 1030 3290 
L 1030 3866 
L 1747 3866 
L 1747 3290 
L 1030 3290 
z
M 2086 3866 
L 2822 3866 
L 2822 3290 
L 2093 3290 
L 2093 3866 
L 2086 3866 
z
M 659 1798 
L 781 1517 
C 922 1549 1146 1568 1466 1568 
L 3059 1568 
L 3059 -134 
L 1856 -134 
L 1856 806 
C 1856 851 1882 883 1952 902 
C 2048 934 2106 979 2106 1030 
C 2106 1062 2035 1088 1914 1101 
C 1734 1126 1587 1139 1459 1152 
C 1472 998 1485 832 1485 646 
L 1485 -134 
L 1139 -134 
C 794 -134 531 -115 339 -77 
L 454 -358 
C 595 -320 819 -307 1139 -307 
L 5946 -307 
C 5997 -307 6029 -275 6029 -224 
C 6029 -198 5965 -122 5856 0 
C 5747 115 5664 179 5613 179 
C 5587 179 5536 134 5459 45 
L 5293 -134 
L 3430 -134 
L 3430 666 
L 5190 666 
C 5242 666 5280 691 5280 755 
C 5280 774 5222 832 5126 922 
C 4966 1062 4870 1139 4838 1139 
C 4806 1139 4742 1094 4666 1011 
C 4582 922 4525 864 4499 838 
L 3430 838 
L 3430 1568 
L 5696 1568 
C 5747 1568 5779 1594 5779 1651 
C 5779 1677 5715 1747 5606 1875 
C 5498 1990 5414 2054 5363 2054 
C 5338 2054 5286 2010 5210 1920 
C 5126 1824 5069 1766 5043 1741 
L 1466 1741 
C 1120 1741 851 1760 659 1798 
L 659 1798 
z
" transform="scale(0.015625)"/>
       <path id="SimSong-Regular-4f53" d="M 1498 5229 
C 1325 4525 1133 3936 915 3475 
C 646 2893 397 2445 166 2125 
L 243 2016 
C 563 2362 832 2701 1062 3053 
L 1050 3053 
L 1050 314 
C 1050 58 1037 -198 1018 -461 
C 1018 -531 1069 -570 1158 -570 
C 1210 -570 1280 -557 1370 -538 
C 1414 -512 1446 -480 1446 -442 
L 1446 3277 
C 1446 3334 1459 3373 1510 3398 
C 1587 3437 1632 3482 1632 3533 
C 1632 3552 1587 3571 1510 3597 
L 1389 3616 
C 1568 3955 1747 4365 1907 4864 
C 1914 4877 1952 4896 2016 4909 
C 2106 4922 2157 4947 2157 4986 
C 2157 5024 2074 5062 1926 5107 
C 1805 5133 1664 5178 1498 5229 
L 1498 5229 
z
M 1984 3923 
L 2106 3642 
C 2246 3674 2470 3693 2790 3693 
L 3405 3693 
C 3174 2938 2899 2278 2560 1709 
C 2221 1158 1862 704 1491 352 
L 1562 301 
C 2208 768 2714 1318 3078 1958 
C 3264 2266 3450 2669 3629 3168 
L 3610 3168 
L 3610 915 
L 3238 915 
C 2893 915 2630 934 2438 973 
L 2554 691 
C 2701 723 2925 742 3238 742 
L 3610 742 
L 3610 64 
C 3610 -115 3597 -307 3584 -518 
C 3590 -582 3642 -621 3712 -621 
C 3776 -621 3846 -608 3930 -589 
C 3974 -563 4006 -538 4006 -499 
C 3987 -294 3981 -102 3981 64 
L 3981 742 
L 5101 742 
C 5152 742 5184 768 5184 832 
C 5184 851 5120 922 5018 1037 
C 4909 1146 4832 1203 4781 1203 
C 4762 1203 4710 1158 4640 1082 
C 4557 992 4506 941 4480 915 
L 3981 915 
L 3981 3277 
L 3962 3277 
C 4090 2867 4262 2458 4467 2054 
C 4710 1581 4966 1184 5242 870 
C 5510 557 5683 403 5754 403 
C 5786 403 5824 442 5856 531 
C 5907 640 6003 717 6150 755 
L 6182 826 
C 5792 1005 5408 1312 5024 1754 
C 4666 2138 4326 2784 3994 3693 
L 5850 3693 
C 5914 3693 5958 3718 5958 3776 
C 5958 3802 5882 3891 5747 4038 
C 5613 4186 5517 4262 5453 4262 
C 5427 4262 5357 4205 5261 4090 
C 5158 3974 5094 3898 5062 3866 
L 3981 3866 
L 3981 4851 
C 3981 4902 4006 4934 4077 4954 
C 4166 4979 4218 5024 4218 5082 
C 4218 5107 4147 5126 4032 5152 
C 3853 5178 3712 5190 3584 5203 
C 3597 5037 3610 4838 3610 4614 
L 3610 3866 
L 2790 3866 
C 2445 3866 2176 3885 1984 3923 
L 1984 3923 
z
" transform="scale(0.015625)"/>
       <path id="SimSong-Regular-900f" d="M 5056 4781 
L 5350 4723 
C 5402 4723 5434 4742 5434 4781 
C 5434 4819 5363 4883 5242 4966 
L 4870 5178 
C 4416 5037 3987 4941 3590 4890 
C 3206 4826 2765 4768 2240 4717 
L 2253 4602 
C 2714 4602 3174 4614 3635 4640 
L 3635 3994 
L 2765 3994 
C 2419 3994 2157 4006 1965 4045 
L 2080 3763 
C 2221 3795 2445 3814 2765 3814 
L 3290 3814 
C 3123 3584 2912 3366 2662 3174 
C 2400 2970 2125 2803 1811 2656 
L 1837 2573 
C 2208 2669 2566 2822 2912 3040 
C 3181 3200 3430 3398 3635 3610 
L 3635 3206 
C 3635 2976 3622 2797 3610 2682 
C 3610 2611 3661 2579 3738 2579 
C 3795 2579 3866 2592 3955 2618 
C 3994 2643 4026 2669 4026 2701 
C 4013 2893 4006 3059 4006 3206 
L 4006 3802 
L 3994 3802 
C 4109 3610 4262 3424 4467 3238 
C 4672 3059 4890 2906 5126 2784 
C 5344 2662 5491 2605 5555 2605 
C 5581 2605 5619 2643 5651 2720 
L 5645 2720 
C 5696 2822 5792 2893 5933 2931 
L 5958 2995 
C 5626 3053 5293 3149 4960 3283 
C 4678 3398 4410 3571 4154 3814 
L 5741 3814 
C 5792 3814 5830 3840 5830 3904 
C 5830 3930 5766 4000 5658 4122 
C 5542 4237 5466 4301 5414 4301 
C 5389 4301 5338 4256 5261 4173 
C 5178 4077 5120 4019 5094 3994 
L 4006 3994 
L 4006 4672 
C 4346 4698 4698 4730 5056 4781 
z
M 858 5107 
L 794 5043 
C 1050 4806 1229 4512 1350 4166 
C 1395 4006 1485 3930 1600 3930 
C 1651 3930 1696 3962 1734 4026 
C 1773 4090 1805 4154 1805 4224 
C 1805 4358 1722 4499 1574 4640 
C 1434 4787 1197 4941 858 5107 
L 858 5107 
z
M 288 2746 
L 403 2464 
C 582 2496 845 2515 1178 2515 
L 1178 461 
C 998 314 736 141 390 -38 
C 480 -218 570 -378 640 -493 
C 672 -563 717 -595 742 -595 
C 800 -595 838 -518 838 -371 
C 1050 -128 1242 128 1395 403 
C 1414 442 1427 467 1434 467 
C 1683 19 2080 -237 2618 -314 
C 3046 -358 3514 -384 4013 -397 
L 5888 -397 
C 5939 -397 5978 -358 5990 -282 
C 6029 -115 6099 -26 6208 0 
L 6189 70 
C 5491 26 4858 6 4294 6 
C 3309 6 2662 26 2362 77 
C 2022 141 1754 301 1568 563 
L 1568 2374 
C 1568 2400 1594 2438 1658 2490 
C 1715 2541 1754 2579 1754 2618 
C 1754 2656 1690 2720 1581 2816 
C 1472 2906 1389 2957 1338 2957 
C 1299 2957 1242 2918 1165 2842 
L 1018 2694 
C 755 2694 518 2707 288 2746 
L 288 2746 
z
M 2170 2541 
L 2317 2246 
C 2470 2291 2630 2310 2803 2310 
L 3098 2310 
C 3059 2074 3014 1862 2950 1670 
C 2880 1459 2822 1299 2758 1190 
C 2662 1030 2560 896 2445 787 
C 2310 659 2144 531 1939 403 
L 1978 320 
C 2221 403 2432 506 2624 640 
C 2771 749 2899 870 3014 1011 
C 3110 1139 3213 1312 3302 1542 
C 3392 1773 3469 2029 3520 2310 
L 4314 2310 
L 4218 1850 
C 4205 1805 4186 1747 4141 1683 
C 4109 1651 4090 1619 4090 1594 
C 4090 1555 4154 1504 4269 1453 
L 4262 1453 
C 4294 1434 4346 1427 4397 1427 
C 4448 1427 4499 1459 4563 1536 
L 5075 1536 
C 5030 1024 4986 736 4928 672 
C 4890 608 4832 570 4730 570 
C 4480 570 4218 602 3930 678 
L 3891 608 
L 4314 474 
C 4390 442 4435 378 4467 282 
C 4486 192 4563 154 4672 154 
C 4851 154 5011 218 5152 346 
C 5274 448 5376 800 5446 1402 
C 5555 1434 5619 1478 5632 1542 
C 5632 1568 5600 1606 5555 1651 
C 5382 1786 5267 1856 5203 1856 
C 5152 1856 5082 1805 5005 1709 
L 4576 1709 
L 4672 2176 
C 4685 2214 4717 2240 4774 2266 
C 4838 2278 4877 2310 4883 2362 
C 4883 2387 4851 2419 4806 2458 
C 4640 2586 4531 2656 4486 2656 
C 4442 2656 4371 2598 4282 2483 
L 2771 2483 
C 2605 2483 2406 2502 2163 2541 
L 2170 2541 
z
" transform="scale(0.015625)"/>
       <path id="SimSong-Regular-5c04" d="M 1613 5254 
C 1568 4966 1510 4698 1440 4442 
L 1152 4442 
C 1011 4531 883 4589 762 4627 
C 774 4512 787 4339 787 4115 
L 787 1670 
C 621 1677 467 1696 314 1722 
L 429 1440 
C 621 1472 858 1491 1152 1491 
L 1869 1491 
C 1683 1107 1466 768 1210 461 
C 902 128 589 -147 269 -378 
L 339 -454 
C 710 -294 1075 -58 1434 262 
C 1786 582 2099 992 2374 1491 
L 2515 1491 
L 2515 32 
C 2515 -51 2458 -96 2323 -96 
C 2150 -96 1926 -77 1638 -45 
L 1606 -141 
C 1990 -224 2170 -320 2189 -422 
C 2189 -518 2246 -570 2323 -570 
C 2413 -570 2515 -544 2637 -493 
L 2637 -493 
C 2790 -416 2880 -314 2880 -186 
L 2880 4128 
C 2880 4166 2906 4198 2970 4230 
C 3021 4256 3059 4288 3059 4339 
C 3059 4371 2995 4435 2886 4538 
C 2784 4614 2714 4653 2688 4653 
C 2656 4653 2605 4621 2541 4570 
C 2502 4525 2464 4480 2426 4442 
L 1651 4442 
C 1779 4582 1888 4730 1997 4896 
C 2003 4928 2035 4947 2106 4960 
C 2170 4973 2208 4992 2208 5024 
C 2208 5062 2106 5107 1926 5158 
L 1613 5254 
L 1613 5254 
z
M 3110 3699 
L 3232 3418 
C 3373 3450 3597 3469 3910 3469 
L 4864 3469 
L 4864 96 
C 4864 38 4858 6 4838 -6 
C 4800 -32 4755 -45 4691 -45 
C 4512 -45 4230 -13 3821 51 
L 3789 -38 
C 4262 -141 4486 -250 4512 -358 
C 4518 -480 4582 -544 4672 -544 
C 4749 -544 4858 -512 5011 -454 
C 5152 -390 5229 -262 5229 -58 
L 5229 3469 
L 6042 3469 
C 6093 3469 6131 3494 6131 3552 
C 6131 3578 6067 3648 5958 3770 
C 5843 3891 5766 3955 5715 3955 
C 5690 3955 5638 3910 5562 3821 
C 5478 3725 5421 3667 5395 3642 
L 5229 3642 
L 5229 4832 
C 5229 4883 5254 4922 5325 4941 
C 5414 4966 5472 5005 5472 5062 
C 5472 5088 5402 5114 5274 5133 
L 4838 5178 
C 4851 5030 4864 4858 4864 4666 
L 4864 3642 
L 3910 3642 
C 3565 3642 3302 3661 3110 3699 
L 3110 3699 
z
M 1158 3539 
L 1158 4269 
L 2515 4269 
L 2515 3539 
L 1158 3539 
z
M 1158 2694 
L 1158 3366 
L 2515 3366 
L 2515 2694 
L 1158 2694 
z
M 3558 3053 
L 3494 2989 
C 3674 2643 3795 2221 3878 1715 
C 3917 1574 4000 1504 4102 1504 
C 4154 1504 4198 1530 4250 1594 
C 4288 1645 4320 1709 4320 1773 
C 4320 1971 4250 2176 4134 2381 
C 4019 2592 3827 2816 3558 3053 
L 3558 3053 
z
M 1158 1664 
L 1158 2515 
L 2515 2515 
L 2515 1664 
L 1158 1664 
z
" transform="scale(0.015625)"/>
       <path id="SimSong-Regular-7387" d="M 461 4499 
L 582 4218 
C 723 4250 947 4269 1261 4269 
L 2938 4269 
C 2784 3891 2643 3590 2502 3360 
C 2445 3270 2381 3213 2317 3174 
C 2266 3149 2240 3123 2240 3098 
C 2240 3053 2291 2963 2381 2835 
C 2406 2797 2445 2778 2483 2778 
C 2509 2778 2534 2790 2566 2822 
C 2662 2874 2746 2906 2816 2931 
L 3264 3123 
C 3066 2848 2867 2611 2669 2406 
C 2541 2266 2406 2176 2234 2118 
C 2195 2099 2163 2067 2163 2035 
C 2163 1984 2214 1875 2304 1722 
C 2330 1670 2368 1651 2406 1651 
C 2432 1651 2458 1670 2496 1709 
C 2586 1766 2669 1811 2746 1837 
L 3834 2163 
C 3872 2054 3904 1939 3930 1811 
C 3968 1670 4051 1606 4147 1606 
C 4186 1606 4230 1632 4269 1683 
C 4307 1741 4333 1798 4333 1862 
C 4333 1997 4269 2138 4160 2285 
C 4058 2432 3891 2586 3648 2752 
L 3590 2701 
C 3667 2586 3725 2451 3782 2304 
L 2586 2138 
C 2989 2470 3456 2886 3994 3386 
C 4026 3418 4070 3437 4134 3450 
C 4224 3462 4282 3482 4282 3520 
C 4275 3546 4237 3578 4179 3616 
L 3757 3853 
C 3642 3674 3533 3501 3418 3334 
L 2662 3181 
C 2810 3354 2989 3571 3194 3834 
C 3226 3866 3270 3885 3334 3898 
C 3424 3910 3482 3936 3482 3974 
C 3475 4000 3437 4032 3379 4064 
L 3021 4269 
L 5805 4269 
C 5869 4269 5907 4294 5907 4352 
C 5907 4378 5837 4467 5709 4608 
C 5574 4749 5478 4819 5421 4819 
C 5395 4819 5331 4762 5242 4653 
C 5146 4544 5082 4474 5050 4442 
L 3206 4442 
C 3219 4448 3232 4461 3245 4486 
C 3283 4538 3309 4595 3309 4659 
C 3309 4742 3245 4826 3130 4915 
C 3027 5005 2854 5101 2598 5203 
L 2541 5146 
C 2707 5005 2829 4826 2906 4608 
C 2931 4531 2970 4474 3014 4442 
L 1261 4442 
C 915 4442 653 4461 461 4499 
L 461 4499 
z
M 5485 3622 
L 5613 3597 
C 5651 3597 5677 3616 5683 3654 
C 5683 3686 5619 3738 5510 3802 
L 5133 4006 
C 4902 3635 4614 3328 4269 3072 
L 4326 2995 
C 4819 3200 5203 3405 5485 3616 
L 5485 3622 
z
M 877 3904 
L 819 3846 
C 1075 3667 1293 3398 1485 3034 
C 1536 2931 1606 2880 1683 2880 
C 1734 2880 1773 2906 1811 2970 
C 1850 3014 1882 3072 1882 3142 
C 1882 3258 1824 3366 1728 3462 
C 1645 3526 1574 3578 1517 3616 
C 1325 3731 1114 3827 877 3904 
L 877 3904 
z
M 4301 2803 
L 4243 2714 
C 4589 2509 4902 2195 5171 1792 
C 5242 1645 5325 1581 5402 1581 
C 5459 1581 5517 1613 5568 1683 
C 5606 1741 5632 1811 5632 1894 
C 5619 2016 5530 2138 5376 2259 
C 5082 2477 4730 2656 4301 2803 
L 4301 2803 
z
M 2125 2726 
C 1651 2406 1139 2138 570 1920 
C 634 1824 698 1734 749 1651 
C 819 1536 883 1478 922 1478 
C 941 1478 960 1504 960 1568 
L 960 1651 
C 960 1677 1018 1728 1152 1805 
C 1478 1997 1818 2285 2176 2669 
L 2131 2726 
L 2125 2726 
z
M 314 1075 
L 429 794 
C 576 826 800 838 1114 838 
L 2976 838 
L 2976 -262 
C 2976 -314 2963 -390 2950 -499 
C 2957 -544 3008 -570 3078 -570 
C 3142 -570 3219 -557 3322 -538 
C 3360 -512 3392 -486 3392 -461 
C 3373 -320 3366 -224 3366 -186 
L 3366 838 
L 5978 838 
C 6042 838 6080 864 6080 928 
C 6080 954 6003 1043 5875 1190 
C 5741 1331 5638 1408 5574 1408 
C 5549 1408 5478 1350 5389 1242 
L 5190 1018 
L 3366 1018 
L 3366 1331 
C 3366 1382 3392 1421 3456 1446 
C 3546 1472 3603 1510 3603 1574 
C 3603 1606 3520 1626 3373 1638 
L 2950 1702 
C 2963 1632 2976 1549 2976 1446 
L 2976 1018 
L 1114 1018 
C 768 1018 506 1037 314 1075 
L 314 1075 
z
" transform="scale(0.015625)"/>
      </defs>
      <use xlink:href="#SimSong-Regular-6574"/>
      <use xlink:href="#SimSong-Regular-4f53" transform="translate(99.999985 0)"/>
      <use xlink:href="#SimSong-Regular-900f" transform="translate(199.999969 0)"/>
      <use xlink:href="#SimSong-Regular-5c04" transform="translate(299.999954 0)"/>
      <use xlink:href="#SimSong-Regular-7387" transform="translate(399.999939 0)"/>
      <use xlink:href="#TimesNewRomanPSMT-20" transform="translate(499.999924 0)"/>
      <use xlink:href="#TimesNewRomanPSMT-28" transform="translate(524.999924 0)"/>
      <use xlink:href="#TimesNewRomanPSMT-25" transform="translate(558.300705 0)"/>
      <use xlink:href="#TimesNewRomanPSMT-29" transform="translate(641.601486 0)"/>
     </g>
    </g>
    <g id="line2d_34">
     <path d="M 424.778125 258.584062 
L 434.778125 258.584062 
L 444.778125 258.584062 
" style="fill: none; stroke: #ff7f0e; stroke-opacity: 0.5; stroke-width: 1.5; stroke-linecap: square"/>
    </g>
    <g id="text_18">
     <!-- 二向色镜透射率 T(%) -->
     <g transform="translate(452.778125 262.084062) scale(0.1 -0.1)">
      <defs>
       <path id="SimSong-Regular-4e8c" d="M 864 4301 
L 979 4019 
C 1126 4051 1350 4064 1664 4064 
L 5338 4064 
C 5414 4064 5459 4090 5459 4154 
C 5459 4186 5376 4288 5222 4454 
C 5069 4614 4960 4698 4890 4698 
C 4864 4698 4787 4634 4678 4506 
C 4563 4365 4486 4282 4448 4243 
L 1664 4243 
C 1318 4243 1056 4262 864 4301 
L 864 4301 
z
M 314 346 
L 429 64 
C 576 96 800 115 1114 115 
L 6010 115 
C 6086 115 6131 141 6131 205 
C 6131 237 6048 339 5901 506 
C 5747 666 5638 749 5562 749 
C 5536 749 5459 685 5357 557 
C 5242 416 5165 326 5126 294 
L 1114 294 
C 768 294 506 307 314 346 
L 314 346 
z
" transform="scale(0.015625)"/>
       <path id="SimSong-Regular-5411" d="M 2662 5254 
C 2573 4826 2451 4422 2285 4038 
L 1171 4038 
C 1050 4115 915 4179 755 4230 
C 774 3968 787 3750 787 3571 
L 787 275 
C 787 64 774 -173 755 -454 
C 755 -531 813 -570 902 -570 
C 960 -570 1030 -557 1133 -531 
C 1171 -506 1210 -474 1210 -435 
L 1210 3866 
L 5184 3866 
L 5184 90 
C 5184 0 5152 -45 5075 -45 
C 4851 -45 4557 -26 4186 6 
L 4154 -102 
C 4640 -192 4877 -294 4902 -410 
C 4909 -512 4973 -570 5075 -570 
C 5152 -570 5254 -538 5370 -480 
C 5517 -403 5600 -288 5600 -141 
L 5600 3680 
C 5600 3718 5632 3757 5709 3789 
L 5709 3789 
C 5766 3821 5805 3866 5805 3923 
C 5805 3962 5734 4032 5613 4147 
C 5491 4237 5414 4282 5382 4282 
C 5344 4282 5286 4243 5216 4179 
C 5171 4128 5126 4083 5082 4038 
L 2509 4038 
C 2726 4275 2925 4544 3110 4851 
C 3117 4870 3162 4896 3238 4909 
C 3309 4922 3354 4947 3354 4986 
C 3354 5037 3238 5088 3027 5146 
C 2938 5171 2816 5210 2662 5254 
L 2662 5254 
z
M 2048 3078 
C 2061 2912 2074 2752 2074 2586 
L 2074 1203 
C 2074 1082 2061 960 2048 838 
C 2048 762 2099 730 2182 730 
C 2234 730 2304 736 2394 762 
C 2438 781 2470 806 2470 838 
L 2470 1190 
L 3802 1190 
L 3802 883 
C 3802 813 3840 781 3904 781 
C 3968 781 4045 787 4134 813 
C 4186 826 4224 858 4224 896 
C 4198 1075 4192 1216 4192 1331 
L 4192 2541 
C 4192 2586 4224 2624 4301 2662 
C 4378 2701 4429 2739 4429 2778 
C 4429 2816 4365 2880 4262 2970 
C 4147 3059 4077 3104 4038 3104 
C 4006 3104 3962 3078 3917 3034 
L 3770 2893 
L 2445 2893 
C 2317 2963 2189 3027 2048 3078 
L 2048 3078 
z
M 2470 1370 
L 2470 2714 
L 3802 2714 
L 3802 1370 
L 2470 1370 
z
" transform="scale(0.015625)"/>
       <path id="SimSong-Regular-8272" d="M 2176 5254 
C 1933 4659 1670 4166 1370 3776 
C 992 3290 640 2918 320 2650 
L 390 2547 
C 678 2739 941 2938 1165 3123 
L 1165 128 
C 1165 -32 1210 -147 1299 -224 
C 1376 -301 1510 -346 1696 -371 
L 3123 -371 
C 4326 -371 5062 -352 5338 -320 
C 5619 -294 5811 -262 5920 -224 
L 5920 -224 
C 6022 -173 6080 -115 6080 -38 
C 6080 26 6010 96 5888 166 
C 5837 230 5811 326 5805 461 
C 5792 589 5786 819 5779 1152 
L 5670 1178 
L 5517 326 
C 5504 218 5440 141 5306 90 
C 5190 51 4973 32 4659 32 
C 4109 13 3597 6 3123 6 
C 2592 6 2195 6 1939 13 
C 1766 26 1658 45 1606 70 
C 1549 115 1530 173 1530 243 
L 1530 1690 
L 4902 1690 
L 4902 1382 
C 4902 1312 4941 1280 5005 1280 
C 5069 1280 5146 1286 5235 1312 
C 5286 1331 5325 1357 5325 1395 
C 5299 1574 5293 1715 5293 1830 
L 5293 3040 
C 5293 3085 5318 3123 5389 3162 
C 5459 3200 5504 3238 5504 3277 
C 5504 3315 5440 3379 5338 3469 
C 5222 3558 5152 3603 5114 3603 
C 5082 3603 5037 3578 4992 3533 
L 4845 3392 
L 3539 3392 
C 3827 3622 4109 3866 4390 4122 
C 4442 4173 4512 4205 4602 4218 
C 4678 4224 4730 4256 4730 4307 
C 4730 4371 4653 4474 4525 4602 
C 4390 4736 4301 4806 4250 4806 
C 4218 4806 4173 4774 4122 4710 
L 3942 4518 
L 2342 4518 
C 2413 4634 2483 4762 2554 4896 
C 2566 4915 2605 4934 2675 4947 
C 2758 4960 2810 4986 2810 5024 
C 2810 5062 2726 5094 2579 5133 
L 2176 5254 
L 2176 5254 
z
M 1472 3411 
L 1722 3680 
C 1894 3859 2061 4083 2227 4339 
L 4006 4339 
C 3814 3981 3597 3667 3366 3392 
L 1504 3392 
L 1472 3411 
z
M 1523 3219 
L 3014 3219 
L 3014 1869 
L 1530 1869 
L 1530 3219 
L 1523 3219 
z
M 3430 1869 
L 3430 3219 
L 4902 3219 
L 4902 1869 
L 3430 1869 
z
" transform="scale(0.015625)"/>
       <path id="SimSong-Regular-955c" d="M 3834 5280 
L 3770 5216 
C 3898 5075 3987 4896 4051 4691 
C 4064 4627 4096 4582 4128 4544 
L 3462 4544 
C 3117 4544 2854 4557 2662 4595 
L 2784 4314 
C 2925 4346 3149 4365 3462 4365 
L 5850 4365 
C 5901 4365 5933 4390 5933 4454 
C 5933 4480 5869 4544 5766 4659 
C 5658 4774 5581 4832 5530 4832 
C 5510 4832 5459 4787 5389 4704 
L 5229 4544 
L 4442 4544 
L 4448 4550 
C 4480 4602 4506 4666 4506 4749 
C 4506 4838 4448 4922 4352 5011 
C 4250 5094 4077 5184 3834 5280 
L 3834 5280 
z
M 1069 5203 
C 960 4602 832 4096 691 3699 
C 518 3200 365 2816 218 2541 
L 282 2438 
C 448 2662 595 2886 723 3098 
L 781 2963 
C 896 2989 1056 3002 1261 3008 
L 1261 2016 
L 1139 2016 
C 794 2016 531 2035 339 2074 
L 454 1792 
C 595 1824 819 1843 1139 1843 
L 1261 1843 
L 1261 211 
C 1261 128 1235 58 1178 0 
C 1120 -38 1088 -70 1088 -96 
C 1088 -147 1165 -230 1306 -346 
C 1370 -397 1434 -422 1478 -422 
C 1517 -422 1549 -397 1562 -352 
C 1613 -230 1670 -134 1754 -58 
L 2624 864 
L 2560 954 
L 1632 256 
L 1632 1843 
L 2547 1843 
C 2598 1843 2630 1869 2630 1926 
C 2630 1952 2573 2022 2470 2138 
C 2355 2246 2278 2304 2234 2304 
C 2214 2304 2163 2259 2086 2176 
C 2010 2093 1958 2042 1933 2016 
L 1632 2016 
L 1632 3014 
L 2374 3014 
C 2426 3014 2458 3040 2458 3104 
C 2458 3123 2400 3187 2298 3296 
C 2202 3405 2131 3462 2080 3462 
C 2061 3462 2010 3424 1946 3347 
L 1792 3194 
L 1466 3194 
C 1184 3194 960 3200 787 3219 
C 858 3354 928 3482 992 3622 
L 986 3622 
C 1050 3750 1114 3898 1178 4064 
L 2586 4064 
C 2643 4064 2682 4090 2682 4154 
C 2682 4173 2624 4230 2528 4320 
C 2362 4467 2266 4544 2240 4544 
C 2208 4544 2144 4499 2067 4410 
L 1901 4243 
L 1242 4243 
C 1306 4429 1370 4640 1434 4877 
C 1440 4890 1472 4909 1530 4928 
C 1606 4934 1658 4954 1658 4992 
C 1658 5024 1581 5062 1453 5101 
C 1344 5126 1222 5158 1069 5203 
L 1069 5203 
z
M 4838 4301 
C 4774 3981 4691 3686 4589 3418 
L 3360 3418 
C 3014 3418 2752 3437 2560 3475 
L 2682 3194 
C 2822 3226 3046 3238 3360 3238 
L 6003 3238 
C 6048 3238 6080 3264 6080 3328 
C 6080 3354 6022 3418 5920 3533 
C 5805 3648 5728 3706 5683 3706 
C 5664 3706 5613 3661 5536 3578 
C 5459 3494 5408 3443 5382 3418 
L 4762 3418 
C 4928 3584 5069 3763 5203 3962 
C 5203 3968 5229 3974 5286 3987 
C 5344 3994 5382 4013 5382 4038 
C 5382 4083 5318 4128 5210 4173 
C 5094 4218 4973 4262 4838 4301 
L 4838 4301 
z
M 3373 4230 
L 3322 4173 
C 3424 4032 3501 3866 3558 3661 
C 3597 3520 3674 3456 3776 3456 
C 3814 3456 3853 3482 3891 3533 
C 3930 3590 3955 3648 3955 3712 
C 3955 3789 3904 3866 3814 3955 
C 3725 4045 3584 4134 3373 4230 
L 3373 4230 
z
M 3014 2976 
C 3027 2822 3040 2669 3040 2515 
L 3040 1395 
C 3040 1280 3027 1165 3014 1056 
C 3014 986 3059 954 3136 954 
C 3187 954 3258 960 3334 986 
C 3373 998 3405 1024 3405 1056 
L 3405 1190 
L 3693 1190 
C 3680 960 3635 762 3565 602 
C 3501 435 3405 288 3258 154 
C 3104 26 2925 -90 2707 -205 
L 2714 -205 
C 2496 -307 2272 -397 2042 -480 
L 2093 -550 
C 2445 -467 2752 -365 3034 -243 
C 3245 -154 3418 -51 3558 64 
C 3699 186 3814 326 3898 486 
C 3987 646 4051 883 4090 1190 
L 4538 1190 
L 4538 -70 
C 4538 -224 4570 -333 4627 -397 
C 4653 -429 4723 -454 4826 -480 
C 4928 -493 5107 -499 5363 -499 
C 5542 -499 5683 -486 5798 -461 
C 5920 -448 6016 -422 6093 -384 
C 6144 -339 6182 -282 6182 -205 
C 6182 -134 6125 -77 6029 -26 
C 5990 0 5971 45 5965 83 
C 5946 122 5946 352 5933 787 
L 5837 806 
C 5792 275 5760 -13 5728 -70 
C 5702 -102 5664 -128 5619 -154 
C 5555 -160 5466 -173 5363 -173 
C 5146 -173 5011 -166 4973 -160 
C 4922 -122 4909 -58 4909 32 
L 4909 1190 
L 5184 1190 
L 5184 1082 
C 5184 1011 5222 979 5286 979 
C 5350 979 5421 986 5504 1011 
C 5555 1030 5587 1056 5587 1094 
C 5562 1261 5555 1395 5555 1498 
L 5555 2477 
C 5555 2515 5568 2554 5606 2592 
C 5651 2630 5683 2662 5683 2701 
C 5683 2726 5626 2784 5523 2874 
C 5414 2957 5344 3002 5312 3002 
C 5280 3002 5235 2976 5197 2938 
C 5152 2886 5107 2842 5056 2790 
L 3424 2790 
C 3290 2867 3155 2925 3014 2976 
L 3014 2976 
z
M 3405 2067 
L 3405 2618 
L 5184 2618 
L 5184 2067 
L 3405 2067 
z
M 3405 1370 
L 3405 1894 
L 5184 1894 
L 5184 1370 
L 3405 1370 
z
" transform="scale(0.015625)"/>
       <path id="TimesNewRomanPSMT-54" d="M 3703 4238 
L 3750 3244 
L 3631 3244 
Q 3597 3506 3538 3619 
Q 3441 3800 3280 3886 
Q 3119 3972 2856 3972 
L 2259 3972 
L 2259 734 
Q 2259 344 2344 247 
Q 2463 116 2709 116 
L 2856 116 
L 2856 0 
L 1059 0 
L 1059 116 
L 1209 116 
Q 1478 116 1591 278 
Q 1659 378 1659 734 
L 1659 3972 
L 1150 3972 
Q 853 3972 728 3928 
Q 566 3869 450 3700 
Q 334 3531 313 3244 
L 194 3244 
L 244 4238 
L 3703 4238 
z
" transform="scale(0.015625)"/>
      </defs>
      <use xlink:href="#SimSong-Regular-4e8c"/>
      <use xlink:href="#SimSong-Regular-5411" transform="translate(99.999985 0)"/>
      <use xlink:href="#SimSong-Regular-8272" transform="translate(199.999969 0)"/>
      <use xlink:href="#SimSong-Regular-955c" transform="translate(299.999954 0)"/>
      <use xlink:href="#SimSong-Regular-900f" transform="translate(399.999939 0)"/>
      <use xlink:href="#SimSong-Regular-5c04" transform="translate(499.999924 0)"/>
      <use xlink:href="#SimSong-Regular-7387" transform="translate(599.999908 0)"/>
      <use xlink:href="#TimesNewRomanPSMT-20" transform="translate(699.999893 0)"/>
      <use xlink:href="#TimesNewRomanPSMT-54" transform="translate(723.249893 0)"/>
      <use xlink:href="#TimesNewRomanPSMT-28" transform="translate(784.333878 0)"/>
      <use xlink:href="#TimesNewRomanPSMT-25" transform="translate(817.634659 0)"/>
      <use xlink:href="#TimesNewRomanPSMT-29" transform="translate(900.93544 0)"/>
     </g>
    </g>
    <g id="line2d_35">
     <path d="M 424.778125 273.9325 
L 434.778125 273.9325 
L 444.778125 273.9325 
" style="fill: none; stroke: #2ca02c; stroke-opacity: 0.5; stroke-width: 1.5; stroke-linecap: square"/>
    </g>
    <g id="text_19">
     <!-- 长通滤光片透射率 T(%) -->
     <g transform="translate(452.778125 277.4325) scale(0.1 -0.1)">
      <defs>
       <path id="SimSong-Regular-901a" d="M 2163 4896 
L 2278 4614 
C 2432 4646 2656 4666 2963 4666 
L 4819 4666 
C 4614 4461 4371 4262 4083 4077 
C 4083 4077 4083 4077 4083 4077 
C 3821 4211 3475 4320 3027 4403 
L 2970 4314 
C 3334 4179 3648 3981 3942 3712 
L 3987 3667 
L 2720 3667 
C 2586 3744 2451 3802 2310 3853 
C 2323 3699 2336 3546 2336 3392 
L 2336 774 
C 2336 653 2323 538 2310 429 
C 2310 358 2362 326 2438 326 
C 2490 326 2554 333 2630 358 
C 2675 371 2707 397 2707 429 
L 2707 1594 
L 3712 1594 
L 3712 1005 
C 3712 774 3699 595 3686 480 
C 3686 410 3738 378 3814 378 
C 3866 378 3936 390 4032 416 
C 4070 442 4102 467 4102 506 
C 4090 698 4083 864 4083 1005 
L 4083 1594 
L 5184 1594 
L 5184 851 
C 5184 768 5152 730 5075 730 
C 4909 730 4691 762 4410 832 
L 4384 736 
C 4755 634 4928 531 4941 416 
C 4941 307 4998 256 5075 256 
C 5152 256 5242 282 5344 333 
C 5478 403 5555 506 5555 640 
L 5555 3379 
C 5555 3418 5581 3450 5645 3482 
L 5645 3482 
C 5696 3501 5734 3539 5734 3590 
C 5734 3622 5670 3686 5562 3782 
C 5459 3859 5389 3904 5363 3904 
C 5331 3904 5280 3866 5216 3802 
L 5101 3667 
L 4314 3667 
C 4339 3693 4358 3731 4358 3776 
C 4352 3840 4307 3910 4230 3981 
C 4602 4122 4947 4301 5274 4512 
L 5478 4518 
C 5574 4518 5632 4550 5632 4608 
C 5632 4646 5555 4730 5427 4870 
C 5280 5011 5178 5082 5126 5082 
C 5107 5082 5043 5043 4954 4966 
C 4915 4928 4864 4883 4806 4838 
L 2963 4838 
C 2720 4838 2458 4858 2163 4896 
L 2163 4896 
z
M 858 5030 
L 794 4966 
C 1024 4736 1184 4454 1299 4115 
C 1344 3955 1434 3878 1549 3878 
C 1600 3878 1645 3910 1690 3974 
C 1728 4038 1754 4102 1754 4173 
C 1754 4301 1677 4435 1536 4576 
C 1402 4723 1178 4877 858 5030 
L 858 5030 
z
M 2707 2739 
L 2707 3494 
L 3712 3494 
L 3712 2739 
L 2707 2739 
z
M 4077 3494 
L 5184 3494 
L 5184 2739 
L 4083 2739 
L 4083 3494 
L 4077 3494 
z
M 288 2701 
L 403 2419 
C 595 2451 870 2464 1222 2464 
L 1222 486 
C 1024 314 730 115 339 -102 
C 416 -262 499 -403 576 -518 
C 602 -570 640 -595 666 -595 
C 710 -595 742 -525 742 -390 
C 1005 -134 1242 134 1446 429 
C 1459 467 1472 493 1478 493 
C 1728 32 2125 -237 2650 -314 
C 3072 -358 3526 -384 4019 -397 
L 5862 -397 
C 5914 -397 5952 -358 5965 -282 
C 6003 -115 6074 -26 6182 0 
L 6163 70 
C 5472 26 4851 6 4301 6 
C 3328 6 2694 26 2400 77 
C 2067 141 1805 314 1619 589 
L 1619 2374 
C 1619 2400 1645 2438 1709 2490 
C 1766 2541 1805 2579 1805 2618 
C 1805 2656 1741 2720 1632 2816 
C 1517 2906 1440 2957 1389 2957 
C 1350 2957 1286 2912 1210 2822 
L 1069 2643 
C 794 2643 531 2662 288 2701 
L 288 2701 
z
M 2707 1766 
L 2707 2566 
L 3712 2566 
L 3712 1766 
L 2707 1766 
z
M 4077 2566 
L 5184 2566 
L 5184 1766 
L 4083 1766 
L 4083 2566 
L 4077 2566 
z
" transform="scale(0.015625)"/>
       <path id="SimSong-Regular-6ee4" d="M 3661 5229 
C 3674 5126 3686 5030 3686 4934 
L 3686 3789 
L 2694 3789 
C 2592 3846 2458 3910 2278 3981 
C 2304 3699 2323 3238 2323 2605 
C 2323 1728 2246 1069 2099 627 
C 1984 269 1760 -109 1421 -512 
L 1498 -576 
C 1792 -320 2029 -70 2208 173 
C 2400 480 2547 819 2624 1190 
C 2688 1594 2720 2067 2720 2605 
L 2720 3616 
L 5478 3616 
C 5376 3437 5267 3277 5146 3136 
L 5210 3072 
C 5427 3181 5632 3283 5824 3392 
C 5875 3437 5933 3469 6010 3482 
C 6086 3482 6131 3507 6131 3558 
C 6131 3616 6061 3706 5946 3821 
C 5824 3942 5741 4006 5702 4006 
C 5677 4006 5632 3981 5581 3936 
C 5530 3891 5478 3840 5427 3789 
L 4058 3789 
L 4058 4365 
L 5600 4365 
C 5651 4365 5683 4390 5683 4454 
C 5683 4467 5632 4518 5549 4595 
C 5414 4717 5331 4781 5306 4781 
C 5280 4781 5229 4742 5165 4672 
C 5088 4602 5043 4557 5018 4544 
L 4058 4544 
L 4058 4877 
C 4058 4928 4083 4960 4147 4979 
C 4237 5018 4294 5056 4294 5107 
C 4294 5133 4230 5152 4115 5178 
C 3936 5203 3789 5216 3661 5229 
L 3661 5229 
z
M 883 5082 
L 819 5018 
C 1037 4838 1197 4621 1299 4365 
C 1344 4205 1434 4128 1549 4128 
C 1600 4128 1651 4160 1702 4224 
C 1728 4275 1754 4339 1754 4422 
C 1754 4531 1683 4640 1555 4749 
C 1421 4851 1197 4966 883 5082 
L 883 5082 
z
M 403 3706 
L 346 3642 
C 550 3475 698 3264 800 3014 
C 845 2854 934 2778 1050 2778 
C 1101 2778 1152 2810 1203 2874 
C 1229 2925 1254 2995 1254 3072 
C 1254 3181 1184 3283 1056 3386 
C 928 3488 717 3590 403 3706 
L 403 3706 
z
M 1830 3706 
L 954 1446 
L 960 1446 
C 922 1370 877 1312 800 1286 
C 730 1261 589 1254 365 1254 
L 346 1146 
C 646 1114 813 1075 877 1037 
C 922 998 941 947 941 877 
C 941 749 934 576 922 358 
C 883 26 864 -179 864 -282 
C 877 -474 992 -570 1178 -570 
C 1325 -570 1414 -474 1434 -282 
C 1434 -166 1408 58 1357 416 
C 1344 685 1338 896 1338 1050 
C 1338 1197 1382 1478 1478 1901 
C 1587 2317 1747 2906 1958 3654 
L 1830 3706 
L 1830 3706 
z
M 4723 3187 
C 4685 3187 4640 3142 4614 3066 
L 4576 2976 
C 4410 2957 4230 2931 4058 2912 
L 4058 3181 
C 4058 3226 4083 3258 4154 3283 
C 4243 3315 4294 3360 4294 3411 
C 4294 3437 4224 3462 4109 3482 
L 3661 3526 
C 3674 3405 3686 3283 3686 3162 
L 3686 2861 
C 3334 2816 3040 2784 2816 2771 
L 3008 2534 
C 3117 2566 3341 2605 3686 2656 
L 3686 2323 
C 3686 2195 3706 2106 3738 2054 
C 3776 1984 3846 1939 3936 1920 
C 4058 1894 4339 1882 4781 1882 
C 5030 1882 5235 1888 5395 1907 
C 5478 1920 5542 1946 5587 1971 
C 5645 2010 5683 2074 5683 2157 
C 5683 2208 5638 2246 5562 2285 
C 5523 2310 5504 2362 5498 2426 
C 5491 2490 5485 2656 5478 2931 
L 5382 2957 
C 5331 2637 5293 2451 5274 2400 
C 5254 2310 5222 2253 5146 2214 
C 5062 2189 4934 2176 4781 2176 
C 4499 2176 4288 2182 4154 2208 
C 4083 2227 4058 2298 4058 2419 
L 4058 2707 
L 5037 2848 
C 5094 2848 5133 2880 5133 2957 
C 5133 2982 5069 3027 4954 3091 
C 4838 3155 4762 3187 4723 3187 
z
M 3974 1728 
L 3917 1670 
C 4070 1466 4179 1216 4256 909 
C 4294 768 4378 704 4474 704 
C 4512 704 4557 730 4595 787 
C 4634 838 4659 896 4659 960 
C 4659 1075 4595 1197 4486 1325 
C 4384 1453 4218 1587 3974 1728 
L 3974 1728 
z
M 3290 1427 
C 3302 1306 3315 1184 3315 1062 
L 3315 70 
C 3315 -77 3328 -179 3354 -237 
C 3386 -314 3456 -371 3539 -397 
C 3648 -429 3904 -448 4314 -448 
C 4582 -448 4806 -435 4979 -410 
C 5082 -384 5158 -352 5222 -314 
C 5274 -256 5306 -192 5306 -128 
C 5306 -64 5248 -19 5158 13 
C 5107 45 5088 90 5088 147 
C 5075 237 5069 435 5056 723 
L 4941 755 
C 4928 557 4915 384 4902 243 
C 4890 122 4877 51 4864 26 
C 4838 -19 4794 -51 4710 -70 
C 4589 -83 4454 -96 4314 -96 
C 4064 -96 3885 -83 3770 -58 
C 3706 -32 3680 38 3680 179 
L 3680 1082 
C 3680 1126 3706 1158 3782 1184 
C 3866 1216 3917 1261 3917 1312 
C 3917 1338 3846 1363 3731 1376 
C 3558 1402 3418 1414 3290 1427 
L 3290 1427 
z
M 5152 1357 
L 5094 1299 
C 5350 979 5530 582 5658 109 
C 5696 -26 5779 -96 5875 -96 
C 5914 -96 5958 -64 5997 -13 
C 6029 38 6054 96 6054 160 
C 6054 339 5978 531 5837 730 
C 5702 928 5478 1139 5152 1357 
L 5152 1357 
z
M 2854 1203 
C 2816 922 2765 710 2714 570 
C 2656 416 2586 282 2490 166 
C 2387 51 2336 -45 2336 -134 
C 2336 -179 2355 -218 2387 -250 
C 2426 -275 2477 -294 2522 -294 
C 2573 -294 2630 -269 2682 -230 
C 2778 -141 2854 6 2893 218 
C 2931 422 2957 749 2957 1178 
L 2854 1203 
L 2854 1203 
z
" transform="scale(0.015625)"/>
       <path id="SimSong-Regular-5149" d="M 5210 4269 
L 5357 4243 
C 5395 4243 5427 4262 5434 4301 
C 5434 4339 5363 4397 5242 4474 
L 5242 4474 
C 5107 4538 4966 4614 4806 4710 
C 4531 3917 4205 3245 3795 2694 
L 3341 2694 
L 3341 4806 
C 3341 4864 3373 4902 3456 4928 
C 3565 4966 3629 5018 3629 5082 
C 3629 5107 3552 5139 3411 5165 
C 3194 5190 3021 5216 2867 5229 
C 2886 5107 2899 4986 2899 4870 
L 2899 2694 
L 1165 2694 
C 819 2694 557 2707 365 2746 
L 480 2464 
C 621 2496 845 2515 1165 2515 
L 2208 2515 
C 2195 2080 2138 1709 2042 1402 
C 1965 1120 1850 851 1670 608 
C 1478 378 1254 166 986 -26 
C 717 -211 454 -371 166 -506 
L 230 -602 
C 659 -454 1043 -275 1382 -70 
C 1645 83 1856 269 2022 480 
C 2202 685 2349 934 2451 1216 
C 2560 1504 2637 1939 2675 2515 
L 3584 2515 
L 3584 45 
C 3584 -134 3629 -262 3718 -326 
C 3763 -365 3866 -397 4006 -422 
C 4166 -435 4435 -448 4806 -448 
C 5088 -448 5318 -429 5504 -403 
C 5696 -390 5850 -365 5990 -320 
C 6054 -269 6106 -198 6106 -109 
C 6106 -19 6029 45 5901 109 
C 5837 147 5805 198 5792 262 
C 5773 301 5766 595 5754 1152 
L 5651 1178 
C 5574 499 5510 128 5453 51 
C 5408 13 5357 -13 5280 -32 
C 5152 -58 4992 -70 4806 -70 
C 4429 -70 4198 -58 4122 -45 
C 4038 -13 4006 51 4006 166 
L 4006 2515 
L 5901 2515 
C 5965 2515 6010 2541 6010 2605 
C 6010 2637 5926 2726 5786 2880 
C 5645 3034 5536 3110 5472 3110 
C 5446 3110 5382 3046 5280 2931 
C 5178 2803 5114 2726 5075 2694 
L 3962 2694 
C 4480 3194 4896 3718 5210 4262 
L 5210 4269 
z
M 1082 4576 
L 1018 4518 
C 1325 4173 1549 3750 1702 3238 
C 1741 3078 1837 3002 1952 3002 
C 1997 3002 2042 3034 2086 3098 
C 2125 3162 2157 3232 2157 3296 
C 2157 3494 2061 3699 1894 3904 
C 1734 4122 1466 4346 1082 4576 
L 1082 4576 
z
" transform="scale(0.015625)"/>
       <path id="SimSong-Regular-7247" d="M 1389 4979 
C 1421 4826 1440 4685 1440 4550 
C 1440 2899 1408 1901 1350 1562 
C 1286 1107 1190 742 1062 474 
C 909 141 685 -154 390 -416 
L 442 -506 
C 806 -269 1094 0 1306 307 
C 1498 602 1638 954 1715 1363 
C 1741 1472 1766 1664 1792 1939 
L 3872 1939 
L 3872 -442 
C 3872 -506 3917 -544 3981 -544 
C 4045 -544 4122 -531 4211 -512 
C 4262 -493 4301 -467 4301 -429 
C 4275 -250 4269 -102 4269 6 
L 4269 1798 
C 4269 1843 4301 1882 4378 1914 
L 4378 1914 
C 4454 1952 4506 1997 4506 2035 
C 4506 2074 4442 2144 4326 2234 
C 4205 2330 4128 2381 4090 2381 
C 4058 2381 4013 2349 3962 2298 
C 3910 2234 3859 2170 3808 2118 
L 1805 2118 
C 1818 2400 1830 2758 1843 3194 
L 5875 3194 
C 5939 3194 5984 3219 5984 3277 
C 5984 3302 5920 3366 5805 3482 
C 5619 3648 5504 3731 5466 3731 
C 5434 3731 5363 3674 5267 3565 
C 5171 3462 5107 3392 5075 3366 
L 4083 3366 
L 4083 4806 
C 4083 4858 4109 4896 4186 4922 
C 4288 4960 4352 5005 4352 5062 
C 4352 5088 4275 5114 4141 5139 
C 3942 5165 3776 5190 3629 5203 
C 3648 5088 3661 4979 3661 4864 
L 3661 3366 
L 1843 3366 
C 1850 3738 1856 4173 1856 4659 
C 1856 4717 1875 4755 1933 4768 
C 1997 4787 2035 4813 2035 4845 
C 2035 4883 1946 4915 1779 4928 
C 1658 4947 1530 4966 1389 4979 
L 1389 4979 
z
" transform="scale(0.015625)"/>
      </defs>
      <use xlink:href="#SimSong-Regular-957f"/>
      <use xlink:href="#SimSong-Regular-901a" transform="translate(99.999985 0)"/>
      <use xlink:href="#SimSong-Regular-6ee4" transform="translate(199.999969 0)"/>
      <use xlink:href="#SimSong-Regular-5149" transform="translate(299.999954 0)"/>
      <use xlink:href="#SimSong-Regular-7247" transform="translate(399.999939 0)"/>
      <use xlink:href="#SimSong-Regular-900f" transform="translate(499.999924 0)"/>
      <use xlink:href="#SimSong-Regular-5c04" transform="translate(599.999908 0)"/>
      <use xlink:href="#SimSong-Regular-7387" transform="translate(699.999893 0)"/>
      <use xlink:href="#TimesNewRomanPSMT-20" transform="translate(799.999878 0)"/>
      <use xlink:href="#TimesNewRomanPSMT-54" transform="translate(823.249878 0)"/>
      <use xlink:href="#TimesNewRomanPSMT-28" transform="translate(884.333862 0)"/>
      <use xlink:href="#TimesNewRomanPSMT-25" transform="translate(917.634644 0)"/>
      <use xlink:href="#TimesNewRomanPSMT-29" transform="translate(1000.935425 0)"/>
     </g>
    </g>
    <g id="line2d_36">
     <path d="M 424.778125 289.321562 
L 434.778125 289.321562 
L 444.778125 289.321562 
" style="fill: none; stroke: #d62728; stroke-opacity: 0.5; stroke-width: 1.5; stroke-linecap: square"/>
    </g>
    <g id="text_20">
     <!-- 准直镜透射率 T(%) -->
     <g transform="translate(452.778125 292.821562) scale(0.1 -0.1)">
      <defs>
       <path id="SimSong-Regular-51c6" d="M 2899 5178 
C 2733 4486 2554 3910 2349 3450 
C 2093 2880 1862 2438 1645 2125 
L 1715 2016 
C 1990 2323 2221 2630 2426 2944 
L 2413 2944 
L 2413 38 
C 2413 -154 2400 -339 2387 -518 
C 2394 -576 2445 -608 2515 -621 
C 2566 -621 2624 -608 2714 -582 
C 2752 -557 2784 -531 2784 -499 
L 2784 -109 
L 6029 -109 
C 6093 -109 6131 -77 6131 -19 
C 6131 6 6067 64 5965 166 
C 5786 326 5683 410 5645 410 
C 5606 410 5542 358 5453 262 
C 5363 154 5299 90 5267 64 
L 4384 64 
L 4384 1318 
L 5760 1318 
C 5818 1318 5856 1344 5856 1402 
C 5856 1427 5798 1485 5696 1587 
C 5530 1741 5427 1818 5389 1818 
C 5357 1818 5293 1766 5203 1670 
C 5114 1574 5056 1517 5030 1491 
L 4384 1491 
L 4384 2592 
L 5760 2592 
C 5818 2592 5856 2618 5856 2682 
C 5856 2701 5798 2758 5696 2861 
C 5530 3014 5427 3091 5389 3091 
C 5357 3091 5293 3040 5203 2950 
C 5114 2848 5056 2790 5030 2765 
L 4384 2765 
L 4384 3814 
L 5990 3814 
C 6042 3814 6080 3840 6080 3904 
C 6080 3930 6022 3987 5920 4083 
C 5754 4237 5651 4314 5613 4314 
C 5581 4314 5517 4262 5434 4173 
L 5254 3994 
L 2989 3994 
C 3091 4230 3187 4506 3290 4826 
C 3296 4838 3334 4858 3398 4870 
C 3482 4883 3533 4909 3533 4947 
C 3533 4986 3450 5024 3309 5062 
C 3194 5088 3059 5126 2899 5178 
L 2899 5178 
z
M 3891 5005 
L 3846 4934 
C 4038 4742 4166 4544 4243 4339 
C 4301 4198 4384 4128 4461 4128 
C 4512 4128 4550 4141 4582 4179 
C 4627 4224 4659 4275 4659 4326 
C 4659 4467 4608 4582 4518 4672 
C 4403 4800 4198 4909 3891 5005 
L 3891 5005 
z
M 608 4851 
L 544 4794 
C 826 4557 1037 4262 1178 3917 
C 1216 3757 1312 3680 1427 3680 
C 1472 3680 1517 3706 1562 3770 
C 1600 3834 1632 3904 1632 3974 
C 1632 4109 1542 4250 1382 4390 
C 1229 4538 973 4691 608 4851 
L 608 4851 
z
M 4026 2765 
L 2784 2765 
L 2784 3558 
L 2906 3814 
L 4013 3814 
L 4013 2765 
L 4026 2765 
z
M 1773 3802 
L 922 1702 
C 883 1619 838 1562 762 1536 
C 698 1510 550 1504 314 1504 
L 288 1389 
C 602 1357 781 1318 845 1274 
C 896 1235 915 1178 915 1101 
C 915 954 909 762 896 518 
C 858 147 838 -96 838 -211 
C 851 -384 960 -474 1126 -474 
C 1254 -474 1338 -384 1357 -211 
C 1357 -77 1331 179 1293 570 
C 1280 877 1274 1114 1274 1280 
C 1274 1421 1318 1690 1421 2086 
C 1530 2483 1690 3046 1907 3757 
L 1773 3802 
L 1773 3802 
z
M 4026 1491 
L 2784 1491 
L 2784 2592 
L 4013 2592 
L 4013 1491 
L 4026 1491 
z
M 4026 64 
L 2784 64 
L 2784 1318 
L 4013 1318 
L 4013 64 
L 4026 64 
z
" transform="scale(0.015625)"/>
       <path id="SimSong-Regular-76f4" d="M 563 4525 
L 678 4243 
C 826 4275 1050 4294 1363 4294 
L 2790 4294 
C 2752 4070 2714 3821 2662 3539 
L 1933 3539 
C 1786 3629 1658 3693 1536 3731 
C 1549 3610 1562 3437 1562 3219 
L 1562 -83 
L 1088 -83 
C 742 -83 480 -64 288 -26 
L 403 -307 
C 550 -269 774 -256 1088 -256 
L 6003 -256 
C 6067 -256 6106 -224 6106 -173 
C 6106 -141 6035 -58 5907 83 
C 5779 224 5683 294 5619 294 
C 5594 294 5536 237 5446 128 
C 5344 19 5280 -45 5248 -83 
L 4896 -83 
L 4896 3174 
C 4896 3206 4922 3238 4986 3277 
C 5062 3315 5107 3354 5107 3392 
C 5107 3437 5018 3520 4858 3642 
C 4768 3718 4704 3757 4672 3757 
C 4653 3757 4608 3725 4550 3674 
C 4499 3635 4448 3590 4397 3539 
L 3014 3539 
L 3174 4294 
L 5856 4294 
C 5920 4294 5958 4320 5958 4378 
C 5958 4403 5882 4493 5754 4634 
C 5626 4768 5530 4838 5466 4838 
C 5446 4838 5382 4781 5293 4678 
C 5197 4570 5133 4499 5101 4467 
L 3213 4467 
L 3296 4845 
C 3302 4896 3328 4928 3386 4941 
C 3482 4966 3539 4998 3539 5050 
C 3539 5075 3462 5101 3334 5126 
C 3155 5165 3008 5190 2893 5203 
C 2880 5011 2854 4768 2816 4467 
L 1363 4467 
C 1018 4467 755 4486 563 4525 
L 563 4525 
z
M 1933 2669 
L 1933 3366 
L 4499 3366 
L 4499 2669 
L 1933 2669 
z
M 1933 1766 
L 1933 2490 
L 4499 2490 
L 4499 1766 
L 1933 1766 
z
M 1933 819 
L 1933 1594 
L 4499 1594 
L 4499 819 
L 1933 819 
z
M 1933 -83 
L 1933 640 
L 4499 640 
L 4499 -83 
L 1933 -83 
z
" transform="scale(0.015625)"/>
      </defs>
      <use xlink:href="#SimSong-Regular-51c6"/>
      <use xlink:href="#SimSong-Regular-76f4" transform="translate(99.999985 0)"/>
      <use xlink:href="#SimSong-Regular-955c" transform="translate(199.999969 0)"/>
      <use xlink:href="#SimSong-Regular-900f" transform="translate(299.999954 0)"/>
      <use xlink:href="#SimSong-Regular-5c04" transform="translate(399.999939 0)"/>
      <use xlink:href="#SimSong-Regular-7387" transform="translate(499.999924 0)"/>
      <use xlink:href="#TimesNewRomanPSMT-20" transform="translate(599.999908 0)"/>
      <use xlink:href="#TimesNewRomanPSMT-54" transform="translate(623.249908 0)"/>
      <use xlink:href="#TimesNewRomanPSMT-28" transform="translate(684.333893 0)"/>
      <use xlink:href="#TimesNewRomanPSMT-25" transform="translate(717.634674 0)"/>
      <use xlink:href="#TimesNewRomanPSMT-29" transform="translate(800.935455 0)"/>
     </g>
    </g>
   </g>
  </g>
 </g>
 <defs>
  <clipPath id="pb7ab83de85">
   <rect x="47.135" y="10.8" width="518.065" height="293.160625"/>
  </clipPath>
 </defs>
</svg>
